# Tiled2Unity generated file. Do not modify by hand.
# Wavefront file for 'ForestEnd_mesh_0004.obj'

# Vertices (Count = 8)
v -3.84 -3.2 0
v -4.16 -3.2 0
v -4.16 -2.88 0
v -3.84 -2.88 0
v -3.84 -3.52 0
v -4.16 -3.52 0
v -4.16 -3.2 0
v -3.84 -3.2 0

# Texture cooridinates (Count = 6)
vt 0.875 0.25
vt 0.9375 0.25
vt 0.9375 0.3125
vt 0.875 0.3125
vt 0.875 0.1875
vt 0.9375 0.1875

# Normal
vn 0 0 -1

# Mesh description
g ForestEnd_mesh_0004

# Faces
f 1/1/1 2/2/1 3/3/1 4/4/1
f 5/5/1 6/6/1 7/2/1 8/1/1

