# Tiled2Unity generated file. Do not modify by hand.
# Wavefront file for 'Houses_Inside_mesh_0004.obj'

# Vertices (Count = 120)
v -14.72 -1.28 0
v -15.04 -1.28 0
v -15.04 -0.96 0
v -14.72 -0.96 0
v -17.92 -1.28 0
v -18.24 -1.28 0
v -18.24 -0.96 0
v -17.92 -0.96 0
v -14.72 -1.6 0
v -15.04 -1.6 0
v -15.04 -1.28 0
v -14.72 -1.28 0
v -17.92 -1.6 0
v -18.24 -1.6 0
v -18.24 -1.28 0
v -17.92 -1.28 0
v -17.92 -1.92 0
v -18.24 -1.92 0
v -18.24 -1.6 0
v -17.92 -1.6 0
v -17.92 -2.24 0
v -18.24 -2.24 0
v -18.24 -1.92 0
v -17.92 -1.92 0
v -17.92 -2.56 0
v -18.24 -2.56 0
v -18.24 -2.24 0
v -17.92 -2.24 0
v -17.92 -2.88 0
v -18.24 -2.88 0
v -18.24 -2.56 0
v -17.92 -2.56 0
v -17.92 -3.2 0
v -18.24 -3.2 0
v -18.24 -2.88 0
v -17.92 -2.88 0
v -8.32 -3.84 0
v -8.639999 -3.84 0
v -8.639999 -3.52 0
v -8.32 -3.52 0
v -8.32 -4.16 0
v -8.639999 -4.16 0
v -8.639999 -3.84 0
v -8.32 -3.84 0
v -8.32 -4.48 0
v -8.639999 -4.48 0
v -8.639999 -4.16 0
v -8.32 -4.16 0
v -16.32 -4.48 0
v -16.64 -4.48 0
v -16.64 -4.16 0
v -16.32 -4.16 0
v -2.88 -10.88 0
v -3.2 -10.88 0
v -3.2 -10.56 0
v -2.88 -10.56 0
v -7.36 -11.84 0
v -7.68 -11.84 0
v -7.68 -11.52 0
v -7.36 -11.52 0
v -7.68 -11.84 0
v -8 -11.84 0
v -8 -11.52 0
v -7.68 -11.52 0
v -8 -11.84 0
v -8.32 -11.84 0
v -8.32 -11.52 0
v -8 -11.52 0
v -8.32 -11.84 0
v -8.639999 -11.84 0
v -8.639999 -11.52 0
v -8.32 -11.52 0
v -8.639999 -11.84 0
v -8.96 -11.84 0
v -8.96 -11.52 0
v -8.639999 -11.52 0
v -11.84 -11.84 0
v -12.16 -11.84 0
v -12.16 -11.52 0
v -11.84 -11.52 0
v -12.16 -11.84 0
v -12.48 -11.84 0
v -12.48 -11.52 0
v -12.16 -11.52 0
v -12.48 -11.84 0
v -12.8 -11.84 0
v -12.8 -11.52 0
v -12.48 -11.52 0
v -12.8 -11.84 0
v -13.12 -11.84 0
v -13.12 -11.52 0
v -12.8 -11.52 0
v -13.12 -11.84 0
v -13.44 -11.84 0
v -13.44 -11.52 0
v -13.12 -11.52 0
v -13.44 -11.84 0
v -13.76 -11.84 0
v -13.76 -11.52 0
v -13.44 -11.52 0
v -13.76 -11.84 0
v -14.08 -11.84 0
v -14.08 -11.52 0
v -13.76 -11.52 0
v -14.08 -11.84 0
v -14.4 -11.84 0
v -14.4 -11.52 0
v -14.08 -11.52 0
v -14.4 -11.84 0
v -14.72 -11.84 0
v -14.72 -11.52 0
v -14.4 -11.52 0
v -14.72 -11.84 0
v -15.04 -11.84 0
v -15.04 -11.52 0
v -14.72 -11.52 0
v -15.04 -11.84 0
v -15.36 -11.84 0
v -15.36 -11.52 0
v -15.04 -11.52 0

# Texture cooridinates (Count = 18)
vt 0.125 0.0714286
vt 0.1875 0.0714286
vt 0.1875 0.1428571
vt 0.125 0.1428571
vt 0.25 0.0714286
vt 0.25 0.1428571
vt 0.0625 0.0714286
vt 0.0625 0.1428571
vt 0.625 0.1428571
vt 0.6875 0.1428571
vt 0.6875 0.2142857
vt 0.625 0.2142857
vt 0.3125 0.7857143
vt 0.375 0.7857143
vt 0.375 0.8571429
vt 0.3125 0.8571429
vt 0.1875 0.2142857
vt 0.125 0.2142857

# Normal
vn 0 0 -1

# Mesh description
g Houses_Inside_mesh_0004

# Faces
f 1/1/1 2/2/1 3/3/1 4/4/1
f 5/2/1 6/5/1 7/6/1 8/3/1
f 9/1/1 10/2/1 11/3/1 12/4/1
f 13/2/1 14/5/1 15/6/1 16/3/1
f 17/1/1 18/2/1 19/3/1 20/4/1
f 21/1/1 22/2/1 23/3/1 24/4/1
f 25/1/1 26/2/1 27/3/1 28/4/1
f 29/1/1 30/2/1 31/3/1 32/4/1
f 33/2/1 34/5/1 35/6/1 36/3/1
f 37/7/1 38/1/1 39/4/1 40/8/1
f 41/7/1 42/1/1 43/4/1 44/8/1
f 45/9/1 46/10/1 47/11/1 48/12/1
f 49/13/1 50/14/1 51/15/1 52/16/1
f 53/4/1 54/3/1 55/17/1 56/18/1
f 57/4/1 58/3/1 59/17/1 60/18/1
f 61/4/1 62/3/1 63/17/1 64/18/1
f 65/4/1 66/3/1 67/17/1 68/18/1
f 69/4/1 70/3/1 71/17/1 72/18/1
f 73/4/1 74/3/1 75/17/1 76/18/1
f 77/4/1 78/3/1 79/17/1 80/18/1
f 81/4/1 82/3/1 83/17/1 84/18/1
f 85/4/1 86/3/1 87/17/1 88/18/1
f 89/4/1 90/3/1 91/17/1 92/18/1
f 93/4/1 94/3/1 95/17/1 96/18/1
f 97/4/1 98/3/1 99/17/1 100/18/1
f 101/4/1 102/3/1 103/17/1 104/18/1
f 105/4/1 106/3/1 107/17/1 108/18/1
f 109/4/1 110/3/1 111/17/1 112/18/1
f 113/4/1 114/3/1 115/17/1 116/18/1
f 117/4/1 118/3/1 119/17/1 120/18/1

