# Tiled2Unity generated file. Do not modify by hand.
# Wavefront file for 'Houses_Inside_mesh_0007.obj'

# Vertices (Count = 128)
v -8.32 -3.52 0
v -8.639999 -3.52 0
v -8.639999 -3.2 0
v -8.32 -3.2 0
v -0.32 -8.639999 0
v -0.64 -8.639999 0
v -0.64 -8.32 0
v -0.32 -8.32 0
v -0.64 -8.639999 0
v -0.96 -8.639999 0
v -0.96 -8.32 0
v -0.64 -8.32 0
v -0.96 -8.639999 0
v -1.28 -8.639999 0
v -1.28 -8.32 0
v -0.96 -8.32 0
v -1.28 -8.639999 0
v -1.6 -8.639999 0
v -1.6 -8.32 0
v -1.28 -8.32 0
v -1.6 -8.639999 0
v -1.92 -8.639999 0
v -1.92 -8.32 0
v -1.6 -8.32 0
v -1.92 -8.639999 0
v -2.24 -8.639999 0
v -2.24 -8.32 0
v -1.92 -8.32 0
v -2.24 -8.639999 0
v -2.56 -8.639999 0
v -2.56 -8.32 0
v -2.24 -8.32 0
v -2.56 -8.639999 0
v -2.88 -8.639999 0
v -2.88 -8.32 0
v -2.56 -8.32 0
v -2.88 -8.639999 0
v -3.2 -8.639999 0
v -3.2 -8.32 0
v -2.88 -8.32 0
v -3.2 -8.639999 0
v -3.52 -8.639999 0
v -3.52 -8.32 0
v -3.2 -8.32 0
v -3.52 -8.639999 0
v -3.84 -8.639999 0
v -3.84 -8.32 0
v -3.52 -8.32 0
v -3.84 -8.639999 0
v -4.16 -8.639999 0
v -4.16 -8.32 0
v -3.84 -8.32 0
v -4.16 -8.639999 0
v -4.48 -8.639999 0
v -4.48 -8.32 0
v -4.16 -8.32 0
v -4.48 -8.639999 0
v -4.8 -8.639999 0
v -4.8 -8.32 0
v -4.48 -8.32 0
v -4.8 -8.639999 0
v -5.12 -8.639999 0
v -5.12 -8.32 0
v -4.8 -8.32 0
v -0.32 -8.96 0
v -0.64 -8.96 0
v -0.64 -8.639999 0
v -0.32 -8.639999 0
v -0.64 -8.96 0
v -0.96 -8.96 0
v -0.96 -8.639999 0
v -0.64 -8.639999 0
v -0.96 -8.96 0
v -1.28 -8.96 0
v -1.28 -8.639999 0
v -0.96 -8.639999 0
v -1.28 -8.96 0
v -1.6 -8.96 0
v -1.6 -8.639999 0
v -1.28 -8.639999 0
v -1.6 -8.96 0
v -1.92 -8.96 0
v -1.92 -8.639999 0
v -1.6 -8.639999 0
v -1.92 -8.96 0
v -2.24 -8.96 0
v -2.24 -8.639999 0
v -1.92 -8.639999 0
v -2.24 -8.96 0
v -2.56 -8.96 0
v -2.56 -8.639999 0
v -2.24 -8.639999 0
v -2.56 -8.96 0
v -2.88 -8.96 0
v -2.88 -8.639999 0
v -2.56 -8.639999 0
v -2.88 -8.96 0
v -3.2 -8.96 0
v -3.2 -8.639999 0
v -2.88 -8.639999 0
v -3.2 -8.96 0
v -3.52 -8.96 0
v -3.52 -8.639999 0
v -3.2 -8.639999 0
v -3.52 -8.96 0
v -3.84 -8.96 0
v -3.84 -8.639999 0
v -3.52 -8.639999 0
v -3.84 -8.96 0
v -4.16 -8.96 0
v -4.16 -8.639999 0
v -3.84 -8.639999 0
v -4.16 -8.96 0
v -4.48 -8.96 0
v -4.48 -8.639999 0
v -4.16 -8.639999 0
v -4.48 -8.96 0
v -4.8 -8.96 0
v -4.8 -8.639999 0
v -4.48 -8.639999 0
v -4.8 -8.96 0
v -5.12 -8.96 0
v -5.12 -8.639999 0
v -4.8 -8.639999 0
v -2.88 -10.88 0
v -3.2 -10.88 0
v -3.2 -10.56 0
v -2.88 -10.56 0

# Texture cooridinates (Count = 16)
vt 0.4 0.5
vt 0.5 0.5
vt 0.5 0.6
vt 0.4 0.6
vt 0.6 0.5
vt 0.7 0.5
vt 0.7 0.6
vt 0.6 0.6
vt 0 0.9
vt 0.1 0.9
vt 0.1 1
vt 0 1
vt 0 0.8
vt 0.1 0.8
vt 0.3 0.5
vt 0.3 0.6

# Normal
vn 0 0 -1

# Mesh description
g Houses_Inside_mesh_0007

# Faces
f 1/1/1 2/2/1 3/3/1 4/4/1
f 5/5/1 6/6/1 7/7/1 8/8/1
f 9/9/1 10/10/1 11/11/1 12/12/1
f 13/9/1 14/10/1 15/11/1 16/12/1
f 17/9/1 18/10/1 19/11/1 20/12/1
f 21/9/1 22/10/1 23/11/1 24/12/1
f 25/9/1 26/10/1 27/11/1 28/12/1
f 29/9/1 30/10/1 31/11/1 32/12/1
f 33/9/1 34/10/1 35/11/1 36/12/1
f 37/9/1 38/10/1 39/11/1 40/12/1
f 41/9/1 42/10/1 43/11/1 44/12/1
f 45/9/1 46/10/1 47/11/1 48/12/1
f 49/9/1 50/10/1 51/11/1 52/12/1
f 53/9/1 54/10/1 55/11/1 56/12/1
f 57/9/1 58/10/1 59/11/1 60/12/1
f 61/2/1 62/5/1 63/8/1 64/3/1
f 65/5/1 66/6/1 67/7/1 68/8/1
f 69/13/1 70/14/1 71/10/1 72/9/1
f 73/13/1 74/14/1 75/10/1 76/9/1
f 77/13/1 78/14/1 79/10/1 80/9/1
f 81/13/1 82/14/1 83/10/1 84/9/1
f 85/13/1 86/14/1 87/10/1 88/9/1
f 89/13/1 90/14/1 91/10/1 92/9/1
f 93/13/1 94/14/1 95/10/1 96/9/1
f 97/13/1 98/14/1 99/10/1 100/9/1
f 101/13/1 102/14/1 103/10/1 104/9/1
f 105/13/1 106/14/1 107/10/1 108/9/1
f 109/13/1 110/14/1 111/10/1 112/9/1
f 113/13/1 114/14/1 115/10/1 116/9/1
f 117/13/1 118/14/1 119/10/1 120/9/1
f 121/2/1 122/5/1 123/8/1 124/3/1
f 125/15/1 126/1/1 127/4/1 128/16/1

