# Tiled2Unity generated file. Do not modify by hand.
# Wavefront file for 'Houses_Inside_mesh_0013.obj'

# Vertices (Count = 160)
v -8 -7.68 0
v -8.32 -7.68 0
v -8.32 -7.36 0
v -8 -7.36 0
v -11.2 -7.68 0
v -11.52 -7.68 0
v -11.52 -7.36 0
v -11.2 -7.36 0
v -14.4 -7.68 0
v -14.72 -7.68 0
v -14.72 -7.36 0
v -14.4 -7.36 0
v -8 -8 0
v -8.32 -8 0
v -8.32 -7.68 0
v -8 -7.68 0
v -8.32 -8 0
v -8.639999 -8 0
v -8.639999 -7.68 0
v -8.32 -7.68 0
v -11.2 -8 0
v -11.52 -8 0
v -11.52 -7.68 0
v -11.2 -7.68 0
v -14.4 -8 0
v -14.72 -8 0
v -14.72 -7.68 0
v -14.4 -7.68 0
v -8.639999 -8.32 0
v -8.96 -8.32 0
v -8.96 -8 0
v -8.639999 -8 0
v -9.28 -8.32 0
v -9.599999 -8.32 0
v -9.599999 -8 0
v -9.28 -8 0
v -9.92 -8.32 0
v -10.24 -8.32 0
v -10.24 -8 0
v -9.92 -8 0
v -10.24 -8.32 0
v -10.56 -8.32 0
v -10.56 -8 0
v -10.24 -8 0
v -10.56 -8.32 0
v -10.88 -8.32 0
v -10.88 -8 0
v -10.56 -8 0
v -24.96 -8.32 0
v -25.28 -8.32 0
v -25.28 -8 0
v -24.96 -8 0
v -25.28 -8.32 0
v -25.6 -8.32 0
v -25.6 -8 0
v -25.28 -8 0
v -9.92 -8.639999 0
v -10.24 -8.639999 0
v -10.24 -8.32 0
v -9.92 -8.32 0
v -10.24 -8.639999 0
v -10.56 -8.639999 0
v -10.56 -8.32 0
v -10.24 -8.32 0
v -10.56 -8.639999 0
v -10.88 -8.639999 0
v -10.88 -8.32 0
v -10.56 -8.32 0
v -14.08 -8.96 0
v -14.4 -8.96 0
v -14.4 -8.639999 0
v -14.08 -8.639999 0
v -14.4 -8.96 0
v -14.72 -8.96 0
v -14.72 -8.639999 0
v -14.4 -8.639999 0
v -14.08 -9.28 0
v -14.4 -9.28 0
v -14.4 -8.96 0
v -14.08 -8.96 0
v -14.4 -9.28 0
v -14.72 -9.28 0
v -14.72 -8.96 0
v -14.4 -8.96 0
v -14.72 -9.28 0
v -15.04 -9.28 0
v -15.04 -8.96 0
v -14.72 -8.96 0
v -7.36 -9.92 0
v -7.68 -9.92 0
v -7.68 -9.599999 0
v -7.36 -9.599999 0
v -7.36 -10.24 0
v -7.68 -10.24 0
v -7.68 -9.92 0
v -7.36 -9.92 0
v -13.12 -10.24 0
v -13.44 -10.24 0
v -13.44 -9.92 0
v -13.12 -9.92 0
v -13.44 -10.24 0
v -13.76 -10.24 0
v -13.76 -9.92 0
v -13.44 -9.92 0
v -7.36 -10.56 0
v -7.68 -10.56 0
v -7.68 -10.24 0
v -7.36 -10.24 0
v -12.8 -10.56 0
v -13.12 -10.56 0
v -13.12 -10.24 0
v -12.8 -10.24 0
v -13.12 -10.56 0
v -13.44 -10.56 0
v -13.44 -10.24 0
v -13.12 -10.24 0
v -13.44 -10.56 0
v -13.76 -10.56 0
v -13.76 -10.24 0
v -13.44 -10.24 0
v -13.76 -10.56 0
v -14.08 -10.56 0
v -14.08 -10.24 0
v -13.76 -10.24 0
v -15.04 -10.56 0
v -15.36 -10.56 0
v -15.36 -10.24 0
v -15.04 -10.24 0
v -7.36 -10.88 0
v -7.68 -10.88 0
v -7.68 -10.56 0
v -7.36 -10.56 0
v -15.04 -10.88 0
v -15.36 -10.88 0
v -15.36 -10.56 0
v -15.04 -10.56 0
v -7.36 -11.2 0
v -7.68 -11.2 0
v -7.68 -10.88 0
v -7.36 -10.88 0
v -9.599999 -11.2 0
v -9.92 -11.2 0
v -9.92 -10.88 0
v -9.599999 -10.88 0
v -10.88 -11.2 0
v -11.2 -11.2 0
v -11.2 -10.88 0
v -10.88 -10.88 0
v -15.04 -11.2 0
v -15.36 -11.2 0
v -15.36 -10.88 0
v -15.04 -10.88 0
v -7.36 -11.52 0
v -7.68 -11.52 0
v -7.68 -11.2 0
v -7.36 -11.2 0
v -15.04 -11.52 0
v -15.36 -11.52 0
v -15.36 -11.2 0
v -15.04 -11.2 0

# Texture cooridinates (Count = 47)
vt 0.75 0.3571429
vt 0.8125 0.3571429
vt 0.8125 0.4285714
vt 0.75 0.4285714
vt 0.75 0.2857143
vt 0.8125 0.2857143
vt 0.0625 0.2142857
vt 0.125 0.2142857
vt 0.125 0.2857143
vt 0.0625 0.2857143
vt 0.0625 0.3571429
vt 0.125 0.3571429
vt 0.125 0.4285714
vt 0.0625 0.4285714
vt 0.375 0.6428571
vt 0.4375 0.6428571
vt 0.4375 0.7142857
vt 0.375 0.7142857
vt 0.9375 0.8571429
vt 1 0.8571429
vt 1 0.9285714
vt 0.9375 0.9285714
vt 0.9375 0.7857143
vt 1 0.7857143
vt 0.25 0.5714285
vt 0.3125 0.5714285
vt 0.3125 0.6428571
vt 0.25 0.6428571
vt 0.375 0.5714285
vt 0.25 0.5
vt 0.3125 0.5
vt 0.375 0.5
vt 0.625 0.5714285
vt 0.6875 0.5714285
vt 0.6875 0.6428571
vt 0.625 0.6428571
vt 0.4375 0.4285714
vt 0.5 0.4285714
vt 0.5 0.5
vt 0.4375 0.5
vt 0.4375 0.3571429
vt 0.5 0.3571429
vt 0.5625 0.5714285
vt 0.5625 0.6428571
vt 0.6875 0.4285714
vt 0.75 0.5
vt 0.6875 0.5

# Normal
vn 0 0 -1

# Mesh description
g Houses_Inside_mesh_0013

# Faces
f 1/1/1 2/2/1 3/3/1 4/4/1
f 5/1/1 6/2/1 7/3/1 8/4/1
f 9/1/1 10/2/1 11/3/1 12/4/1
f 13/5/1 14/6/1 15/2/1 16/1/1
f 17/7/1 18/8/1 19/9/1 20/10/1
f 21/5/1 22/6/1 23/2/1 24/1/1
f 25/5/1 26/6/1 27/2/1 28/1/1
f 29/11/1 30/12/1 31/13/1 32/14/1
f 33/15/1 34/16/1 35/17/1 36/18/1
f 37/19/1 38/20/1 39/21/1 40/22/1
f 41/19/1 42/20/1 43/21/1 44/22/1
f 45/19/1 46/20/1 47/21/1 48/22/1
f 49/7/1 50/8/1 51/9/1 52/10/1
f 53/10/1 54/9/1 55/12/1 56/11/1
f 57/23/1 58/24/1 59/20/1 60/19/1
f 61/23/1 62/24/1 63/20/1 64/19/1
f 65/23/1 66/24/1 67/20/1 68/19/1
f 69/25/1 70/26/1 71/27/1 72/28/1
f 73/26/1 74/29/1 75/15/1 76/27/1
f 77/30/1 78/31/1 79/26/1 80/25/1
f 81/31/1 82/32/1 83/29/1 84/26/1
f 85/33/1 86/34/1 87/35/1 88/36/1
f 89/37/1 90/38/1 91/39/1 92/40/1
f 93/41/1 94/42/1 95/38/1 96/37/1
f 97/25/1 98/26/1 99/27/1 100/28/1
f 101/26/1 102/29/1 103/15/1 104/27/1
f 105/43/1 106/33/1 107/36/1 108/44/1
f 109/43/1 110/33/1 111/36/1 112/44/1
f 113/30/1 114/31/1 115/26/1 116/25/1
f 117/31/1 118/32/1 119/29/1 120/26/1
f 121/33/1 122/34/1 123/35/1 124/36/1
f 125/33/1 126/34/1 127/35/1 128/36/1
f 129/43/1 130/33/1 131/36/1 132/44/1
f 133/37/1 134/38/1 135/39/1 136/40/1
f 137/43/1 138/33/1 139/36/1 140/44/1
f 141/45/1 142/4/1 143/46/1 144/47/1
f 145/15/1 146/16/1 147/17/1 148/18/1
f 149/41/1 150/42/1 151/38/1 152/37/1
f 153/43/1 154/33/1 155/36/1 156/44/1
f 157/33/1 158/34/1 159/35/1 160/36/1

