# Tiled2Unity generated file. Do not modify by hand.
# Wavefront file for 'ForestPath_mesh_0004.obj'

# Vertices (Count = 796)
v -0.32 -0.32 0
v -0.64 -0.32 0
v -0.64 0 0
v -0.32 0 0
v -0.64 -0.32 0
v -0.96 -0.32 0
v -0.96 0 0
v -0.64 0 0
v -0.96 -0.32 0
v -1.28 -0.32 0
v -1.28 0 0
v -0.96 0 0
v -4.8 -0.32 0
v -5.12 -0.32 0
v -5.12 0 0
v -4.8 0 0
v -5.12 -0.32 0
v -5.44 -0.32 0
v -5.44 0 0
v -5.12 0 0
v -5.44 -0.32 0
v -5.76 -0.32 0
v -5.76 0 0
v -5.44 0 0
v -7.36 -0.32 0
v -7.68 -0.32 0
v -7.68 0 0
v -7.36 0 0
v -7.68 -0.32 0
v -8 -0.32 0
v -8 0 0
v -7.68 0 0
v -8 -0.32 0
v -8.32 -0.32 0
v -8.32 0 0
v -8 0 0
v -0.32 -0.64 0
v -0.64 -0.64 0
v -0.64 -0.32 0
v -0.32 -0.32 0
v -0.64 -0.64 0
v -0.96 -0.64 0
v -0.96 -0.32 0
v -0.64 -0.32 0
v -0.96 -0.64 0
v -1.28 -0.64 0
v -1.28 -0.32 0
v -0.96 -0.32 0
v -4.8 -0.64 0
v -5.12 -0.64 0
v -5.12 -0.32 0
v -4.8 -0.32 0
v -5.12 -0.64 0
v -5.44 -0.64 0
v -5.44 -0.32 0
v -5.12 -0.32 0
v -5.44 -0.64 0
v -5.76 -0.64 0
v -5.76 -0.32 0
v -5.44 -0.32 0
v -7.36 -0.64 0
v -7.68 -0.64 0
v -7.68 -0.32 0
v -7.36 -0.32 0
v -7.68 -0.64 0
v -8 -0.64 0
v -8 -0.32 0
v -7.68 -0.32 0
v -8 -0.64 0
v -8.32 -0.64 0
v -8.32 -0.32 0
v -8 -0.32 0
v -0.32 -0.96 0
v -0.64 -0.96 0
v -0.64 -0.64 0
v -0.32 -0.64 0
v -0.64 -0.96 0
v -0.96 -0.96 0
v -0.96 -0.64 0
v -0.64 -0.64 0
v -0.96 -0.96 0
v -1.28 -0.96 0
v -1.28 -0.64 0
v -0.96 -0.64 0
v -4.8 -0.96 0
v -5.12 -0.96 0
v -5.12 -0.64 0
v -4.8 -0.64 0
v -5.12 -0.96 0
v -5.44 -0.96 0
v -5.44 -0.64 0
v -5.12 -0.64 0
v -5.44 -0.96 0
v -5.76 -0.96 0
v -5.76 -0.64 0
v -5.44 -0.64 0
v -7.36 -0.96 0
v -7.68 -0.96 0
v -7.68 -0.64 0
v -7.36 -0.64 0
v -7.68 -0.96 0
v -8 -0.96 0
v -8 -0.64 0
v -7.68 -0.64 0
v -8 -0.96 0
v -8.32 -0.96 0
v -8.32 -0.64 0
v -8 -0.64 0
v -0.32 -1.28 0
v -0.64 -1.28 0
v -0.64 -0.96 0
v -0.32 -0.96 0
v -0.64 -1.28 0
v -0.96 -1.28 0
v -0.96 -0.96 0
v -0.64 -0.96 0
v -0.96 -1.28 0
v -1.28 -1.28 0
v -1.28 -0.96 0
v -0.96 -0.96 0
v -1.92 -1.28 0
v -2.24 -1.28 0
v -2.24 -0.96 0
v -1.92 -0.96 0
v -2.24 -1.28 0
v -2.56 -1.28 0
v -2.56 -0.96 0
v -2.24 -0.96 0
v -2.56 -1.28 0
v -2.88 -1.28 0
v -2.88 -0.96 0
v -2.56 -0.96 0
v -4.8 -1.28 0
v -5.12 -1.28 0
v -5.12 -0.96 0
v -4.8 -0.96 0
v -5.12 -1.28 0
v -5.44 -1.28 0
v -5.44 -0.96 0
v -5.12 -0.96 0
v -5.44 -1.28 0
v -5.76 -1.28 0
v -5.76 -0.96 0
v -5.44 -0.96 0
v -6.4 -1.28 0
v -6.72 -1.28 0
v -6.72 -0.96 0
v -6.4 -0.96 0
v -6.72 -1.28 0
v -7.04 -1.28 0
v -7.04 -0.96 0
v -6.72 -0.96 0
v -7.04 -1.28 0
v -7.36 -1.28 0
v -7.36 -0.96 0
v -7.04 -0.96 0
v -7.36 -1.28 0
v -7.68 -1.28 0
v -7.68 -0.96 0
v -7.36 -0.96 0
v -7.68 -1.28 0
v -8 -1.28 0
v -8 -0.96 0
v -7.68 -0.96 0
v -8 -1.28 0
v -8.32 -1.28 0
v -8.32 -0.96 0
v -8 -0.96 0
v -0.32 -1.6 0
v -0.64 -1.6 0
v -0.64 -1.28 0
v -0.32 -1.28 0
v -0.64 -1.6 0
v -0.96 -1.6 0
v -0.96 -1.28 0
v -0.64 -1.28 0
v -0.96 -1.6 0
v -1.28 -1.6 0
v -1.28 -1.28 0
v -0.96 -1.28 0
v -1.92 -1.6 0
v -2.24 -1.6 0
v -2.24 -1.28 0
v -1.92 -1.28 0
v -2.24 -1.6 0
v -2.56 -1.6 0
v -2.56 -1.28 0
v -2.24 -1.28 0
v -2.56 -1.6 0
v -2.88 -1.6 0
v -2.88 -1.28 0
v -2.56 -1.28 0
v -4.8 -1.6 0
v -5.12 -1.6 0
v -5.12 -1.28 0
v -4.8 -1.28 0
v -5.12 -1.6 0
v -5.44 -1.6 0
v -5.44 -1.28 0
v -5.12 -1.28 0
v -5.44 -1.6 0
v -5.76 -1.6 0
v -5.76 -1.28 0
v -5.44 -1.28 0
v -6.4 -1.6 0
v -6.72 -1.6 0
v -6.72 -1.28 0
v -6.4 -1.28 0
v -6.72 -1.6 0
v -7.04 -1.6 0
v -7.04 -1.28 0
v -6.72 -1.28 0
v -7.04 -1.6 0
v -7.36 -1.6 0
v -7.36 -1.28 0
v -7.04 -1.28 0
v -1.92 -1.92 0
v -2.24 -1.92 0
v -2.24 -1.6 0
v -1.92 -1.6 0
v -2.24 -1.92 0
v -2.56 -1.92 0
v -2.56 -1.6 0
v -2.24 -1.6 0
v -2.56 -1.92 0
v -2.88 -1.92 0
v -2.88 -1.6 0
v -2.56 -1.6 0
v -6.4 -1.92 0
v -6.72 -1.92 0
v -6.72 -1.6 0
v -6.4 -1.6 0
v -6.72 -1.92 0
v -7.04 -1.92 0
v -7.04 -1.6 0
v -6.72 -1.6 0
v -7.04 -1.92 0
v -7.36 -1.92 0
v -7.36 -1.6 0
v -7.04 -1.6 0
v -1.92 -2.24 0
v -2.24 -2.24 0
v -2.24 -1.92 0
v -1.92 -1.92 0
v -2.24 -2.24 0
v -2.56 -2.24 0
v -2.56 -1.92 0
v -2.24 -1.92 0
v -2.56 -2.24 0
v -2.88 -2.24 0
v -2.88 -1.92 0
v -2.56 -1.92 0
v -6.4 -2.24 0
v -6.72 -2.24 0
v -6.72 -1.92 0
v -6.4 -1.92 0
v -6.72 -2.24 0
v -7.04 -2.24 0
v -7.04 -1.92 0
v -6.72 -1.92 0
v -7.04 -2.24 0
v -7.36 -2.24 0
v -7.36 -1.92 0
v -7.04 -1.92 0
v -1.92 -2.56 0
v -2.24 -2.56 0
v -2.24 -2.24 0
v -1.92 -2.24 0
v -2.24 -2.56 0
v -2.56 -2.56 0
v -2.56 -2.24 0
v -2.24 -2.24 0
v -2.56 -2.56 0
v -2.88 -2.56 0
v -2.88 -2.24 0
v -2.56 -2.24 0
v -6.4 -2.56 0
v -6.72 -2.56 0
v -6.72 -2.24 0
v -6.4 -2.24 0
v -6.72 -2.56 0
v -7.04 -2.56 0
v -7.04 -2.24 0
v -6.72 -2.24 0
v -7.04 -2.56 0
v -7.36 -2.56 0
v -7.36 -2.24 0
v -7.04 -2.24 0
v -3.52 -4.16 0
v -3.84 -4.16 0
v -3.84 -3.84 0
v -3.52 -3.84 0
v -3.84 -4.16 0
v -4.16 -4.16 0
v -4.16 -3.84 0
v -3.84 -3.84 0
v -4.16 -4.16 0
v -4.48 -4.16 0
v -4.48 -3.84 0
v -4.16 -3.84 0
v 0 -4.48 0
v -0.32 -4.48 0
v -0.32 -4.16 0
v 0 -4.16 0
v -0.32 -4.48 0
v -0.64 -4.48 0
v -0.64 -4.16 0
v -0.32 -4.16 0
v -3.52 -4.48 0
v -3.84 -4.48 0
v -3.84 -4.16 0
v -3.52 -4.16 0
v -3.84 -4.48 0
v -4.16 -4.48 0
v -4.16 -4.16 0
v -3.84 -4.16 0
v -4.16 -4.48 0
v -4.48 -4.48 0
v -4.48 -4.16 0
v -4.16 -4.16 0
v 0 -4.8 0
v -0.32 -4.8 0
v -0.32 -4.48 0
v 0 -4.48 0
v -0.32 -4.8 0
v -0.64 -4.8 0
v -0.64 -4.48 0
v -0.32 -4.48 0
v -3.52 -4.8 0
v -3.84 -4.8 0
v -3.84 -4.48 0
v -3.52 -4.48 0
v -3.84 -4.8 0
v -4.16 -4.8 0
v -4.16 -4.48 0
v -3.84 -4.48 0
v -4.16 -4.8 0
v -4.48 -4.8 0
v -4.48 -4.48 0
v -4.16 -4.48 0
v 0 -5.12 0
v -0.32 -5.12 0
v -0.32 -4.8 0
v 0 -4.8 0
v -0.32 -5.12 0
v -0.64 -5.12 0
v -0.64 -4.8 0
v -0.32 -4.8 0
v -3.52 -5.12 0
v -3.84 -5.12 0
v -3.84 -4.8 0
v -3.52 -4.8 0
v -3.84 -5.12 0
v -4.16 -5.12 0
v -4.16 -4.8 0
v -3.84 -4.8 0
v -4.16 -5.12 0
v -4.48 -5.12 0
v -4.48 -4.8 0
v -4.16 -4.8 0
v 0 -5.44 0
v -0.32 -5.44 0
v -0.32 -5.12 0
v 0 -5.12 0
v -0.32 -5.44 0
v -0.64 -5.44 0
v -0.64 -5.12 0
v -0.32 -5.12 0
v -3.52 -5.44 0
v -3.84 -5.44 0
v -3.84 -5.12 0
v -3.52 -5.12 0
v -3.84 -5.44 0
v -4.16 -5.44 0
v -4.16 -5.12 0
v -3.84 -5.12 0
v -4.16 -5.44 0
v -4.48 -5.44 0
v -4.48 -5.12 0
v -4.16 -5.12 0
v 0 -5.76 0
v -0.32 -5.76 0
v -0.32 -5.44 0
v 0 -5.44 0
v -0.32 -5.76 0
v -0.64 -5.76 0
v -0.64 -5.44 0
v -0.32 -5.44 0
v -6.72 -6.72 0
v -7.04 -6.72 0
v -7.04 -6.4 0
v -6.72 -6.4 0
v -7.04 -6.72 0
v -7.36 -6.72 0
v -7.36 -6.4 0
v -7.04 -6.4 0
v -7.36 -6.72 0
v -7.68 -6.72 0
v -7.68 -6.4 0
v -7.36 -6.4 0
v -5.76 -7.04 0
v -6.08 -7.04 0
v -6.08 -6.72 0
v -5.76 -6.72 0
v -6.08 -7.04 0
v -6.4 -7.04 0
v -6.4 -6.72 0
v -6.08 -6.72 0
v -6.4 -7.04 0
v -6.72 -7.04 0
v -6.72 -6.72 0
v -6.4 -6.72 0
v -6.72 -7.04 0
v -7.04 -7.04 0
v -7.04 -6.72 0
v -6.72 -6.72 0
v -7.04 -7.04 0
v -7.36 -7.04 0
v -7.36 -6.72 0
v -7.04 -6.72 0
v -7.36 -7.04 0
v -7.68 -7.04 0
v -7.68 -6.72 0
v -7.36 -6.72 0
v -5.76 -7.36 0
v -6.08 -7.36 0
v -6.08 -7.04 0
v -5.76 -7.04 0
v -6.08 -7.36 0
v -6.4 -7.36 0
v -6.4 -7.04 0
v -6.08 -7.04 0
v -6.4 -7.36 0
v -6.72 -7.36 0
v -6.72 -7.04 0
v -6.4 -7.04 0
v -6.72 -7.36 0
v -7.04 -7.36 0
v -7.04 -7.04 0
v -6.72 -7.04 0
v -7.04 -7.36 0
v -7.36 -7.36 0
v -7.36 -7.04 0
v -7.04 -7.04 0
v -7.36 -7.36 0
v -7.68 -7.36 0
v -7.68 -7.04 0
v -7.36 -7.04 0
v -5.76 -7.68 0
v -6.08 -7.68 0
v -6.08 -7.36 0
v -5.76 -7.36 0
v -6.08 -7.68 0
v -6.4 -7.68 0
v -6.4 -7.36 0
v -6.08 -7.36 0
v -6.4 -7.68 0
v -6.72 -7.68 0
v -6.72 -7.36 0
v -6.4 -7.36 0
v -6.72 -7.68 0
v -7.04 -7.68 0
v -7.04 -7.36 0
v -6.72 -7.36 0
v -7.04 -7.68 0
v -7.36 -7.68 0
v -7.36 -7.36 0
v -7.04 -7.36 0
v -7.36 -7.68 0
v -7.68 -7.68 0
v -7.68 -7.36 0
v -7.36 -7.36 0
v -0.32 -8 0
v -0.64 -8 0
v -0.64 -7.68 0
v -0.32 -7.68 0
v -0.64 -8 0
v -0.96 -8 0
v -0.96 -7.68 0
v -0.64 -7.68 0
v -0.96 -8 0
v -1.28 -8 0
v -1.28 -7.68 0
v -0.96 -7.68 0
v -5.76 -8 0
v -6.08 -8 0
v -6.08 -7.68 0
v -5.76 -7.68 0
v -6.08 -8 0
v -6.4 -8 0
v -6.4 -7.68 0
v -6.08 -7.68 0
v -6.4 -8 0
v -6.72 -8 0
v -6.72 -7.68 0
v -6.4 -7.68 0
v -6.72 -8 0
v -7.04 -8 0
v -7.04 -7.68 0
v -6.72 -7.68 0
v -7.04 -8 0
v -7.36 -8 0
v -7.36 -7.68 0
v -7.04 -7.68 0
v -7.36 -8 0
v -7.68 -8 0
v -7.68 -7.68 0
v -7.36 -7.68 0
v -0.32 -8.32 0
v -0.64 -8.32 0
v -0.64 -8 0
v -0.32 -8 0
v -0.64 -8.32 0
v -0.96 -8.32 0
v -0.96 -8 0
v -0.64 -8 0
v -0.96 -8.32 0
v -1.28 -8.32 0
v -1.28 -8 0
v -0.96 -8 0
v -5.76 -8.32 0
v -6.08 -8.32 0
v -6.08 -8 0
v -5.76 -8 0
v -6.08 -8.32 0
v -6.4 -8.32 0
v -6.4 -8 0
v -6.08 -8 0
v -6.4 -8.32 0
v -6.72 -8.32 0
v -6.72 -8 0
v -6.4 -8 0
v -0.32 -8.639999 0
v -0.64 -8.639999 0
v -0.64 -8.32 0
v -0.32 -8.32 0
v -0.64 -8.639999 0
v -0.96 -8.639999 0
v -0.96 -8.32 0
v -0.64 -8.32 0
v -0.96 -8.639999 0
v -1.28 -8.639999 0
v -1.28 -8.32 0
v -0.96 -8.32 0
v -0.32 -8.96 0
v -0.64 -8.96 0
v -0.64 -8.639999 0
v -0.32 -8.639999 0
v -0.64 -8.96 0
v -0.96 -8.96 0
v -0.96 -8.639999 0
v -0.64 -8.639999 0
v -0.96 -8.96 0
v -1.28 -8.96 0
v -1.28 -8.639999 0
v -0.96 -8.639999 0
v -7.68 -8.96 0
v -8 -8.96 0
v -8 -8.639999 0
v -7.68 -8.639999 0
v -8 -8.96 0
v -8.32 -8.96 0
v -8.32 -8.639999 0
v -8 -8.639999 0
v -8.32 -8.96 0
v -8.639999 -8.96 0
v -8.639999 -8.639999 0
v -8.32 -8.639999 0
v -0.32 -9.28 0
v -0.64 -9.28 0
v -0.64 -8.96 0
v -0.32 -8.96 0
v -0.64 -9.28 0
v -0.96 -9.28 0
v -0.96 -8.96 0
v -0.64 -8.96 0
v -0.96 -9.28 0
v -1.28 -9.28 0
v -1.28 -8.96 0
v -0.96 -8.96 0
v -7.68 -9.28 0
v -8 -9.28 0
v -8 -8.96 0
v -7.68 -8.96 0
v -8 -9.28 0
v -8.32 -9.28 0
v -8.32 -8.96 0
v -8 -8.96 0
v -8.32 -9.28 0
v -8.639999 -9.28 0
v -8.639999 -8.96 0
v -8.32 -8.96 0
v -7.68 -9.599999 0
v -8 -9.599999 0
v -8 -9.28 0
v -7.68 -9.28 0
v -8 -9.599999 0
v -8.32 -9.599999 0
v -8.32 -9.28 0
v -8 -9.28 0
v -8.32 -9.599999 0
v -8.639999 -9.599999 0
v -8.639999 -9.28 0
v -8.32 -9.28 0
v -7.68 -9.92 0
v -8 -9.92 0
v -8 -9.599999 0
v -7.68 -9.599999 0
v -8 -9.92 0
v -8.32 -9.92 0
v -8.32 -9.599999 0
v -8 -9.599999 0
v -8.32 -9.92 0
v -8.639999 -9.92 0
v -8.639999 -9.599999 0
v -8.32 -9.599999 0
v -7.68 -10.24 0
v -8 -10.24 0
v -8 -9.92 0
v -7.68 -9.92 0
v -8 -10.24 0
v -8.32 -10.24 0
v -8.32 -9.92 0
v -8 -9.92 0
v -8.32 -10.24 0
v -8.639999 -10.24 0
v -8.639999 -9.92 0
v -8.32 -9.92 0
v -7.36 -12.8 0
v -7.68 -12.8 0
v -7.68 -12.48 0
v -7.36 -12.48 0
v -7.68 -12.8 0
v -8 -12.8 0
v -8 -12.48 0
v -7.68 -12.48 0
v -8 -12.8 0
v -8.32 -12.8 0
v -8.32 -12.48 0
v -8 -12.48 0
v -7.36 -13.12 0
v -7.68 -13.12 0
v -7.68 -12.8 0
v -7.36 -12.8 0
v -7.68 -13.12 0
v -8 -13.12 0
v -8 -12.8 0
v -7.68 -12.8 0
v -8 -13.12 0
v -8.32 -13.12 0
v -8.32 -12.8 0
v -8 -12.8 0
v -4.48 -13.44 0
v -4.8 -13.44 0
v -4.8 -13.12 0
v -4.48 -13.12 0
v -4.8 -13.44 0
v -5.12 -13.44 0
v -5.12 -13.12 0
v -4.8 -13.12 0
v -5.12 -13.44 0
v -5.44 -13.44 0
v -5.44 -13.12 0
v -5.12 -13.12 0
v -7.36 -13.44 0
v -7.68 -13.44 0
v -7.68 -13.12 0
v -7.36 -13.12 0
v -7.68 -13.44 0
v -8 -13.44 0
v -8 -13.12 0
v -7.68 -13.12 0
v -8 -13.44 0
v -8.32 -13.44 0
v -8.32 -13.12 0
v -8 -13.12 0
v -4.48 -13.76 0
v -4.8 -13.76 0
v -4.8 -13.44 0
v -4.48 -13.44 0
v -4.8 -13.76 0
v -5.12 -13.76 0
v -5.12 -13.44 0
v -4.8 -13.44 0
v -5.12 -13.76 0
v -5.44 -13.76 0
v -5.44 -13.44 0
v -5.12 -13.44 0
v -7.36 -13.76 0
v -7.68 -13.76 0
v -7.68 -13.44 0
v -7.36 -13.44 0
v -7.68 -13.76 0
v -8 -13.76 0
v -8 -13.44 0
v -7.68 -13.44 0
v -8 -13.76 0
v -8.32 -13.76 0
v -8.32 -13.44 0
v -8 -13.44 0
v -4.48 -14.08 0
v -4.8 -14.08 0
v -4.8 -13.76 0
v -4.48 -13.76 0
v -4.8 -14.08 0
v -5.12 -14.08 0
v -5.12 -13.76 0
v -4.8 -13.76 0
v -5.12 -14.08 0
v -5.44 -14.08 0
v -5.44 -13.76 0
v -5.12 -13.76 0
v -7.36 -14.08 0
v -7.68 -14.08 0
v -7.68 -13.76 0
v -7.36 -13.76 0
v -7.68 -14.08 0
v -8 -14.08 0
v -8 -13.76 0
v -7.68 -13.76 0
v -8 -14.08 0
v -8.32 -14.08 0
v -8.32 -13.76 0
v -8 -13.76 0
v -4.48 -14.4 0
v -4.8 -14.4 0
v -4.8 -14.08 0
v -4.48 -14.08 0
v -4.8 -14.4 0
v -5.12 -14.4 0
v -5.12 -14.08 0
v -4.8 -14.08 0
v -5.12 -14.4 0
v -5.44 -14.4 0
v -5.44 -14.08 0
v -5.12 -14.08 0
v -4.48 -14.72 0
v -4.8 -14.72 0
v -4.8 -14.4 0
v -4.48 -14.4 0
v -4.8 -14.72 0
v -5.12 -14.72 0
v -5.12 -14.4 0
v -4.8 -14.4 0
v -5.12 -14.72 0
v -5.44 -14.72 0
v -5.44 -14.4 0
v -5.12 -14.4 0
v -7.04 -15.04 0
v -7.36 -15.04 0
v -7.36 -14.72 0
v -7.04 -14.72 0
v -7.36 -15.04 0
v -7.68 -15.04 0
v -7.68 -14.72 0
v -7.36 -14.72 0
v -7.68 -15.04 0
v -8 -15.04 0
v -8 -14.72 0
v -7.68 -14.72 0
v -7.04 -15.36 0
v -7.36 -15.36 0
v -7.36 -15.04 0
v -7.04 -15.04 0
v -7.36 -15.36 0
v -7.68 -15.36 0
v -7.68 -15.04 0
v -7.36 -15.04 0
v -7.68 -15.36 0
v -8 -15.36 0
v -8 -15.04 0
v -7.68 -15.04 0
v -7.04 -15.68 0
v -7.36 -15.68 0
v -7.36 -15.36 0
v -7.04 -15.36 0
v -7.36 -15.68 0
v -7.68 -15.68 0
v -7.68 -15.36 0
v -7.36 -15.36 0
v -7.68 -15.68 0
v -8 -15.68 0
v -8 -15.36 0
v -7.68 -15.36 0
v -7.04 -16 0
v -7.36 -16 0
v -7.36 -15.68 0
v -7.04 -15.68 0
v -7.36 -16 0
v -7.68 -16 0
v -7.68 -15.68 0
v -7.36 -15.68 0
v -7.68 -16 0
v -8 -16 0
v -8 -15.68 0
v -7.68 -15.68 0

# Texture cooridinates (Count = 24)
vt 0.2307692 0.6153846
vt 0.3076923 0.6153846
vt 0.3076923 0.6923077
vt 0.2307692 0.6923077
vt 0.3846154 0.6153846
vt 0.3846154 0.6923077
vt 0.4615385 0.6153846
vt 0.4615385 0.6923077
vt 0.2307692 0.5384616
vt 0.3076923 0.5384616
vt 0.3846154 0.5384616
vt 0.4615385 0.5384616
vt 0.2307692 0.4615384
vt 0.3076923 0.4615384
vt 0.3846154 0.4615384
vt 0.4615385 0.4615384
vt 0.2307692 0.3846154
vt 0.3076923 0.3846154
vt 0.3846154 0.3846154
vt 0.4615385 0.3846154
vt 0.2307692 0.3076923
vt 0.3076923 0.3076923
vt 0.3846154 0.3076923
vt 0.4615385 0.3076923

# Normal
vn 0 0 -1

# Mesh description
g ForestPath_mesh_0004

# Faces
f 1/1/1 2/2/1 3/3/1 4/4/1
f 5/2/1 6/5/1 7/6/1 8/3/1
f 9/5/1 10/7/1 11/8/1 12/6/1
f 13/1/1 14/2/1 15/3/1 16/4/1
f 17/2/1 18/5/1 19/6/1 20/3/1
f 21/5/1 22/7/1 23/8/1 24/6/1
f 25/9/1 26/10/1 27/2/1 28/1/1
f 29/10/1 30/11/1 31/5/1 32/2/1
f 33/11/1 34/12/1 35/7/1 36/5/1
f 37/9/1 38/10/1 39/2/1 40/1/1
f 41/10/1 42/11/1 43/5/1 44/2/1
f 45/11/1 46/12/1 47/7/1 48/5/1
f 49/9/1 50/10/1 51/2/1 52/1/1
f 53/10/1 54/11/1 55/5/1 56/2/1
f 57/11/1 58/12/1 59/7/1 60/5/1
f 61/13/1 62/14/1 63/10/1 64/9/1
f 65/14/1 66/15/1 67/11/1 68/10/1
f 69/15/1 70/16/1 71/12/1 72/11/1
f 73/13/1 74/14/1 75/10/1 76/9/1
f 77/14/1 78/15/1 79/11/1 80/10/1
f 81/15/1 82/16/1 83/12/1 84/11/1
f 85/13/1 86/14/1 87/10/1 88/9/1
f 89/14/1 90/15/1 91/11/1 92/10/1
f 93/15/1 94/16/1 95/12/1 96/11/1
f 97/17/1 98/18/1 99/14/1 100/13/1
f 101/18/1 102/19/1 103/15/1 104/14/1
f 105/19/1 106/20/1 107/16/1 108/15/1
f 109/17/1 110/18/1 111/14/1 112/13/1
f 113/18/1 114/19/1 115/15/1 116/14/1
f 117/19/1 118/20/1 119/16/1 120/15/1
f 121/1/1 122/2/1 123/3/1 124/4/1
f 125/2/1 126/5/1 127/6/1 128/3/1
f 129/5/1 130/7/1 131/8/1 132/6/1
f 133/17/1 134/18/1 135/14/1 136/13/1
f 137/18/1 138/19/1 139/15/1 140/14/1
f 141/19/1 142/20/1 143/16/1 144/15/1
f 145/1/1 146/2/1 147/3/1 148/4/1
f 149/2/1 150/5/1 151/6/1 152/3/1
f 153/5/1 154/7/1 155/8/1 156/6/1
f 157/21/1 158/22/1 159/18/1 160/17/1
f 161/22/1 162/23/1 163/19/1 164/18/1
f 165/23/1 166/24/1 167/20/1 168/19/1
f 169/21/1 170/22/1 171/18/1 172/17/1
f 173/22/1 174/23/1 175/19/1 176/18/1
f 177/23/1 178/24/1 179/20/1 180/19/1
f 181/9/1 182/10/1 183/2/1 184/1/1
f 185/10/1 186/11/1 187/5/1 188/2/1
f 189/11/1 190/12/1 191/7/1 192/5/1
f 193/21/1 194/22/1 195/18/1 196/17/1
f 197/22/1 198/23/1 199/19/1 200/18/1
f 201/23/1 202/24/1 203/20/1 204/19/1
f 205/9/1 206/10/1 207/2/1 208/1/1
f 209/10/1 210/11/1 211/5/1 212/2/1
f 213/11/1 214/12/1 215/7/1 216/5/1
f 217/13/1 218/14/1 219/10/1 220/9/1
f 221/14/1 222/15/1 223/11/1 224/10/1
f 225/15/1 226/16/1 227/12/1 228/11/1
f 229/13/1 230/14/1 231/10/1 232/9/1
f 233/14/1 234/15/1 235/11/1 236/10/1
f 237/15/1 238/16/1 239/12/1 240/11/1
f 241/17/1 242/18/1 243/14/1 244/13/1
f 245/18/1 246/19/1 247/15/1 248/14/1
f 249/19/1 250/20/1 251/16/1 252/15/1
f 253/17/1 254/18/1 255/14/1 256/13/1
f 257/18/1 258/19/1 259/15/1 260/14/1
f 261/19/1 262/20/1 263/16/1 264/15/1
f 265/21/1 266/22/1 267/18/1 268/17/1
f 269/22/1 270/23/1 271/19/1 272/18/1
f 273/23/1 274/24/1 275/20/1 276/19/1
f 277/21/1 278/22/1 279/18/1 280/17/1
f 281/22/1 282/23/1 283/19/1 284/18/1
f 285/23/1 286/24/1 287/20/1 288/19/1
f 289/1/1 290/2/1 291/3/1 292/4/1
f 293/2/1 294/5/1 295/6/1 296/3/1
f 297/5/1 298/7/1 299/8/1 300/6/1
f 301/2/1 302/5/1 303/6/1 304/3/1
f 305/5/1 306/7/1 307/8/1 308/6/1
f 309/9/1 310/10/1 311/2/1 312/1/1
f 313/10/1 314/11/1 315/5/1 316/2/1
f 317/11/1 318/12/1 319/7/1 320/5/1
f 321/10/1 322/11/1 323/5/1 324/2/1
f 325/11/1 326/12/1 327/7/1 328/5/1
f 329/13/1 330/14/1 331/10/1 332/9/1
f 333/14/1 334/15/1 335/11/1 336/10/1
f 337/15/1 338/16/1 339/12/1 340/11/1
f 341/14/1 342/15/1 343/11/1 344/10/1
f 345/15/1 346/16/1 347/12/1 348/11/1
f 349/17/1 350/18/1 351/14/1 352/13/1
f 353/18/1 354/19/1 355/15/1 356/14/1
f 357/19/1 358/20/1 359/16/1 360/15/1
f 361/18/1 362/19/1 363/15/1 364/14/1
f 365/19/1 366/20/1 367/16/1 368/15/1
f 369/21/1 370/22/1 371/18/1 372/17/1
f 373/22/1 374/23/1 375/19/1 376/18/1
f 377/23/1 378/24/1 379/20/1 380/19/1
f 381/22/1 382/23/1 383/19/1 384/18/1
f 385/23/1 386/24/1 387/20/1 388/19/1
f 389/1/1 390/2/1 391/3/1 392/4/1
f 393/2/1 394/5/1 395/6/1 396/3/1
f 397/5/1 398/7/1 399/8/1 400/6/1
f 401/1/1 402/2/1 403/3/1 404/4/1
f 405/2/1 406/5/1 407/6/1 408/3/1
f 409/5/1 410/7/1 411/8/1 412/6/1
f 413/9/1 414/10/1 415/2/1 416/1/1
f 417/10/1 418/11/1 419/5/1 420/2/1
f 421/11/1 422/12/1 423/7/1 424/5/1
f 425/9/1 426/10/1 427/2/1 428/1/1
f 429/10/1 430/11/1 431/5/1 432/2/1
f 433/11/1 434/12/1 435/7/1 436/5/1
f 437/13/1 438/14/1 439/10/1 440/9/1
f 441/14/1 442/15/1 443/11/1 444/10/1
f 445/15/1 446/16/1 447/12/1 448/11/1
f 449/13/1 450/14/1 451/10/1 452/9/1
f 453/14/1 454/15/1 455/11/1 456/10/1
f 457/15/1 458/16/1 459/12/1 460/11/1
f 461/17/1 462/18/1 463/14/1 464/13/1
f 465/18/1 466/19/1 467/15/1 468/14/1
f 469/19/1 470/20/1 471/16/1 472/15/1
f 473/1/1 474/2/1 475/3/1 476/4/1
f 477/2/1 478/5/1 479/6/1 480/3/1
f 481/5/1 482/7/1 483/8/1 484/6/1
f 485/17/1 486/18/1 487/14/1 488/13/1
f 489/18/1 490/19/1 491/15/1 492/14/1
f 493/19/1 494/20/1 495/16/1 496/15/1
f 497/21/1 498/22/1 499/18/1 500/17/1
f 501/22/1 502/23/1 503/19/1 504/18/1
f 505/23/1 506/24/1 507/20/1 508/19/1
f 509/9/1 510/10/1 511/2/1 512/1/1
f 513/10/1 514/11/1 515/5/1 516/2/1
f 517/11/1 518/12/1 519/7/1 520/5/1
f 521/21/1 522/22/1 523/18/1 524/17/1
f 525/22/1 526/23/1 527/19/1 528/18/1
f 529/23/1 530/24/1 531/20/1 532/19/1
f 533/13/1 534/14/1 535/10/1 536/9/1
f 537/14/1 538/15/1 539/11/1 540/10/1
f 541/15/1 542/16/1 543/12/1 544/11/1
f 545/17/1 546/18/1 547/14/1 548/13/1
f 549/18/1 550/19/1 551/15/1 552/14/1
f 553/19/1 554/20/1 555/16/1 556/15/1
f 557/1/1 558/2/1 559/3/1 560/4/1
f 561/2/1 562/5/1 563/6/1 564/3/1
f 565/5/1 566/7/1 567/8/1 568/6/1
f 569/21/1 570/22/1 571/18/1 572/17/1
f 573/22/1 574/23/1 575/19/1 576/18/1
f 577/23/1 578/24/1 579/20/1 580/19/1
f 581/9/1 582/10/1 583/2/1 584/1/1
f 585/10/1 586/11/1 587/5/1 588/2/1
f 589/11/1 590/12/1 591/7/1 592/5/1
f 593/13/1 594/14/1 595/10/1 596/9/1
f 597/14/1 598/15/1 599/11/1 600/10/1
f 601/15/1 602/16/1 603/12/1 604/11/1
f 605/17/1 606/18/1 607/14/1 608/13/1
f 609/18/1 610/19/1 611/15/1 612/14/1
f 613/19/1 614/20/1 615/16/1 616/15/1
f 617/21/1 618/22/1 619/18/1 620/17/1
f 621/22/1 622/23/1 623/19/1 624/18/1
f 625/23/1 626/24/1 627/20/1 628/19/1
f 629/1/1 630/2/1 631/3/1 632/4/1
f 633/2/1 634/5/1 635/6/1 636/3/1
f 637/5/1 638/7/1 639/8/1 640/6/1
f 641/9/1 642/10/1 643/2/1 644/1/1
f 645/10/1 646/11/1 647/5/1 648/2/1
f 649/11/1 650/12/1 651/7/1 652/5/1
f 653/1/1 654/2/1 655/3/1 656/4/1
f 657/2/1 658/5/1 659/6/1 660/3/1
f 661/5/1 662/7/1 663/8/1 664/6/1
f 665/13/1 666/14/1 667/10/1 668/9/1
f 669/14/1 670/15/1 671/11/1 672/10/1
f 673/15/1 674/16/1 675/12/1 676/11/1
f 677/9/1 678/10/1 679/2/1 680/1/1
f 681/10/1 682/11/1 683/5/1 684/2/1
f 685/11/1 686/12/1 687/7/1 688/5/1
f 689/17/1 690/18/1 691/14/1 692/13/1
f 693/18/1 694/19/1 695/15/1 696/14/1
f 697/19/1 698/20/1 699/16/1 700/15/1
f 701/13/1 702/14/1 703/10/1 704/9/1
f 705/14/1 706/15/1 707/11/1 708/10/1
f 709/15/1 710/16/1 711/12/1 712/11/1
f 713/21/1 714/22/1 715/18/1 716/17/1
f 717/22/1 718/23/1 719/19/1 720/18/1
f 721/23/1 722/24/1 723/20/1 724/19/1
f 725/17/1 726/18/1 727/14/1 728/13/1
f 729/18/1 730/19/1 731/15/1 732/14/1
f 733/19/1 734/20/1 735/16/1 736/15/1
f 737/21/1 738/22/1 739/18/1 740/17/1
f 741/22/1 742/23/1 743/19/1 744/18/1
f 745/23/1 746/24/1 747/20/1 748/19/1
f 749/1/1 750/2/1 751/3/1 752/4/1
f 753/2/1 754/5/1 755/6/1 756/3/1
f 757/5/1 758/7/1 759/8/1 760/6/1
f 761/9/1 762/10/1 763/2/1 764/1/1
f 765/10/1 766/11/1 767/5/1 768/2/1
f 769/11/1 770/12/1 771/7/1 772/5/1
f 773/13/1 774/14/1 775/10/1 776/9/1
f 777/14/1 778/15/1 779/11/1 780/10/1
f 781/15/1 782/16/1 783/12/1 784/11/1
f 785/17/1 786/18/1 787/14/1 788/13/1
f 789/18/1 790/19/1 791/15/1 792/14/1
f 793/19/1 794/20/1 795/16/1 796/15/1

