# Tiled2Unity generated file. Do not modify by hand.
# Wavefront file for 'Houses_Inside_mesh_0012.obj'

# Vertices (Count = 16)
v -3.2 -9.28 0
v -3.52 -9.28 0
v -3.52 -8.96 0
v -3.2 -8.96 0
v -3.52 -9.28 0
v -3.84 -9.28 0
v -3.84 -8.96 0
v -3.52 -8.96 0
v -4.16 -9.28 0
v -4.48 -9.28 0
v -4.48 -8.96 0
v -4.16 -8.96 0
v -4.48 -9.28 0
v -4.8 -9.28 0
v -4.8 -8.96 0
v -4.48 -8.96 0

# Texture cooridinates (Count = 6)
vt 0.5 0.6666666
vt 1 0.6666666
vt 1 1
vt 0.5 1
vt 0 0.6666666
vt 0 1

# Normal
vn 0 0 -1

# Mesh description
g Houses_Inside_mesh_0012

# Faces
f 1/1/1 2/2/1 3/3/1 4/4/1
f 5/1/1 6/2/1 7/3/1 8/4/1
f 9/5/1 10/1/1 11/4/1 12/6/1
f 13/5/1 14/1/1 15/4/1 16/6/1

