# Tiled2Unity generated file. Do not modify by hand.
# Wavefront file for 'Shrine_mesh_0004.obj'

# Vertices (Count = 16)
v -4.48 -0.64 0
v -4.8 -0.64 0
v -4.8 -0.32 0
v -4.48 -0.32 0
v -5.12 -0.64 0
v -5.44 -0.64 0
v -5.44 -0.32 0
v -5.12 -0.32 0
v -4.48 -0.96 0
v -4.8 -0.96 0
v -4.8 -0.64 0
v -4.48 -0.64 0
v -5.12 -0.96 0
v -5.44 -0.96 0
v -5.44 -0.64 0
v -5.12 -0.64 0

# Texture cooridinates (Count = 9)
vt 0.5 0.25
vt 1 0.25
vt 1 0.5
vt 0.5 0.5
vt 0 0.25
vt 0 0.5
vt 0.5 0
vt 1 0
vt 0 0

# Normal
vn 0 0 -1

# Mesh description
g Shrine_mesh_0004

# Faces
f 1/1/1 2/2/1 3/3/1 4/4/1
f 5/5/1 6/1/1 7/4/1 8/6/1
f 9/7/1 10/8/1 11/2/1 12/1/1
f 13/9/1 14/7/1 15/1/1 16/5/1

