# Tiled2Unity generated file. Do not modify by hand.
# Wavefront file for 'Village_mesh_0021.obj'

# Vertices (Count = 16)
v -15.04 -14.72 0
v -15.36 -14.72 0
v -15.36 -14.4 0
v -15.04 -14.4 0
v -15.36 -14.72 0
v -15.68 -14.72 0
v -15.68 -14.4 0
v -15.36 -14.4 0
v -15.04 -15.04 0
v -15.36 -15.04 0
v -15.36 -14.72 0
v -15.04 -14.72 0
v -15.36 -15.04 0
v -15.68 -15.04 0
v -15.68 -14.72 0
v -15.36 -14.72 0

# Texture cooridinates (Count = 9)
vt 0.875 0.375
vt 0.9375 0.375
vt 0.9375 0.4375
vt 0.875 0.4375
vt 1 0.375
vt 1 0.4375
vt 0.875 0.3125
vt 0.9375 0.3125
vt 1 0.3125

# Normal
vn 0 0 -1

# Mesh description
g Village_mesh_0021

# Faces
f 1/1/1 2/2/1 3/3/1 4/4/1
f 5/2/1 6/5/1 7/6/1 8/3/1
f 9/7/1 10/8/1 11/2/1 12/1/1
f 13/8/1 14/9/1 15/5/1 16/2/1

