# Tiled2Unity generated file. Do not modify by hand.
# Wavefront file for 'ForestEnd_mesh_0005.obj'

# Vertices (Count = 516)
v 0 -0.32 0
v -0.32 -0.32 0
v -0.32 0 0
v 0 0 0
v -0.32 -0.32 0
v -0.64 -0.32 0
v -0.64 0 0
v -0.32 0 0
v -2.88 -0.32 0
v -3.2 -0.32 0
v -3.2 0 0
v -2.88 0 0
v -3.2 -0.32 0
v -3.52 -0.32 0
v -3.52 0 0
v -3.2 0 0
v -3.52 -0.32 0
v -3.84 -0.32 0
v -3.84 0 0
v -3.52 0 0
v -3.84 -0.32 0
v -4.16 -0.32 0
v -4.16 0 0
v -3.84 0 0
v -4.16 -0.32 0
v -4.48 -0.32 0
v -4.48 0 0
v -4.16 0 0
v -4.48 -0.32 0
v -4.8 -0.32 0
v -4.8 0 0
v -4.48 0 0
v 0 -0.64 0
v -0.32 -0.64 0
v -0.32 -0.32 0
v 0 -0.32 0
v -0.32 -0.64 0
v -0.64 -0.64 0
v -0.64 -0.32 0
v -0.32 -0.32 0
v -2.88 -0.64 0
v -3.2 -0.64 0
v -3.2 -0.32 0
v -2.88 -0.32 0
v -3.2 -0.64 0
v -3.52 -0.64 0
v -3.52 -0.32 0
v -3.2 -0.32 0
v -3.52 -0.64 0
v -3.84 -0.64 0
v -3.84 -0.32 0
v -3.52 -0.32 0
v -3.84 -0.64 0
v -4.16 -0.64 0
v -4.16 -0.32 0
v -3.84 -0.32 0
v -4.16 -0.64 0
v -4.48 -0.64 0
v -4.48 -0.32 0
v -4.16 -0.32 0
v -4.48 -0.64 0
v -4.8 -0.64 0
v -4.8 -0.32 0
v -4.48 -0.32 0
v 0 -0.96 0
v -0.32 -0.96 0
v -0.32 -0.64 0
v 0 -0.64 0
v -0.32 -0.96 0
v -0.64 -0.96 0
v -0.64 -0.64 0
v -0.32 -0.64 0
v -1.92 -0.96 0
v -2.24 -0.96 0
v -2.24 -0.64 0
v -1.92 -0.64 0
v -2.24 -0.96 0
v -2.56 -0.96 0
v -2.56 -0.64 0
v -2.24 -0.64 0
v -2.56 -0.96 0
v -2.88 -0.96 0
v -2.88 -0.64 0
v -2.56 -0.64 0
v -3.84 -0.96 0
v -4.16 -0.96 0
v -4.16 -0.64 0
v -3.84 -0.64 0
v -4.16 -0.96 0
v -4.48 -0.96 0
v -4.48 -0.64 0
v -4.16 -0.64 0
v -4.48 -0.96 0
v -4.8 -0.96 0
v -4.8 -0.64 0
v -4.48 -0.64 0
v -5.76 -0.96 0
v -6.08 -0.96 0
v -6.08 -0.64 0
v -5.76 -0.64 0
v -6.08 -0.96 0
v -6.4 -0.96 0
v -6.4 -0.64 0
v -6.08 -0.64 0
v -6.4 -0.96 0
v -6.72 -0.96 0
v -6.72 -0.64 0
v -6.4 -0.64 0
v 0 -1.28 0
v -0.32 -1.28 0
v -0.32 -0.96 0
v 0 -0.96 0
v -0.32 -1.28 0
v -0.64 -1.28 0
v -0.64 -0.96 0
v -0.32 -0.96 0
v -1.92 -1.28 0
v -2.24 -1.28 0
v -2.24 -0.96 0
v -1.92 -0.96 0
v -2.24 -1.28 0
v -2.56 -1.28 0
v -2.56 -0.96 0
v -2.24 -0.96 0
v -2.56 -1.28 0
v -2.88 -1.28 0
v -2.88 -0.96 0
v -2.56 -0.96 0
v -3.84 -1.28 0
v -4.16 -1.28 0
v -4.16 -0.96 0
v -3.84 -0.96 0
v -4.16 -1.28 0
v -4.48 -1.28 0
v -4.48 -0.96 0
v -4.16 -0.96 0
v -4.48 -1.28 0
v -4.8 -1.28 0
v -4.8 -0.96 0
v -4.48 -0.96 0
v -5.76 -1.28 0
v -6.08 -1.28 0
v -6.08 -0.96 0
v -5.76 -0.96 0
v -6.08 -1.28 0
v -6.4 -1.28 0
v -6.4 -0.96 0
v -6.08 -0.96 0
v -6.4 -1.28 0
v -6.72 -1.28 0
v -6.72 -0.96 0
v -6.4 -0.96 0
v -1.92 -1.6 0
v -2.24 -1.6 0
v -2.24 -1.28 0
v -1.92 -1.28 0
v -2.24 -1.6 0
v -2.56 -1.6 0
v -2.56 -1.28 0
v -2.24 -1.28 0
v -2.56 -1.6 0
v -2.88 -1.6 0
v -2.88 -1.28 0
v -2.56 -1.28 0
v -3.84 -1.6 0
v -4.16 -1.6 0
v -4.16 -1.28 0
v -3.84 -1.28 0
v -4.16 -1.6 0
v -4.48 -1.6 0
v -4.48 -1.28 0
v -4.16 -1.28 0
v -4.48 -1.6 0
v -4.8 -1.6 0
v -4.8 -1.28 0
v -4.48 -1.28 0
v -5.76 -1.6 0
v -6.08 -1.6 0
v -6.08 -1.28 0
v -5.76 -1.28 0
v -6.08 -1.6 0
v -6.4 -1.6 0
v -6.4 -1.28 0
v -6.08 -1.28 0
v -6.4 -1.6 0
v -6.72 -1.6 0
v -6.72 -1.28 0
v -6.4 -1.28 0
v -1.92 -1.92 0
v -2.24 -1.92 0
v -2.24 -1.6 0
v -1.92 -1.6 0
v -2.24 -1.92 0
v -2.56 -1.92 0
v -2.56 -1.6 0
v -2.24 -1.6 0
v -2.56 -1.92 0
v -2.88 -1.92 0
v -2.88 -1.6 0
v -2.56 -1.6 0
v -5.76 -1.92 0
v -6.08 -1.92 0
v -6.08 -1.6 0
v -5.76 -1.6 0
v -6.08 -1.92 0
v -6.4 -1.92 0
v -6.4 -1.6 0
v -6.08 -1.6 0
v -6.4 -1.92 0
v -6.72 -1.92 0
v -6.72 -1.6 0
v -6.4 -1.6 0
v -1.92 -2.24 0
v -2.24 -2.24 0
v -2.24 -1.92 0
v -1.92 -1.92 0
v -2.24 -2.24 0
v -2.56 -2.24 0
v -2.56 -1.92 0
v -2.24 -1.92 0
v -2.56 -2.24 0
v -2.88 -2.24 0
v -2.88 -1.92 0
v -2.56 -1.92 0
v -5.76 -2.24 0
v -6.08 -2.24 0
v -6.08 -1.92 0
v -5.76 -1.92 0
v -6.08 -2.24 0
v -6.4 -2.24 0
v -6.4 -1.92 0
v -6.08 -1.92 0
v -6.4 -2.24 0
v -6.72 -2.24 0
v -6.72 -1.92 0
v -6.4 -1.92 0
v -1.92 -3.2 0
v -2.24 -3.2 0
v -2.24 -2.88 0
v -1.92 -2.88 0
v -2.24 -3.2 0
v -2.56 -3.2 0
v -2.56 -2.88 0
v -2.24 -2.88 0
v -2.56 -3.2 0
v -2.88 -3.2 0
v -2.88 -2.88 0
v -2.56 -2.88 0
v -1.92 -3.52 0
v -2.24 -3.52 0
v -2.24 -3.2 0
v -1.92 -3.2 0
v -2.24 -3.52 0
v -2.56 -3.52 0
v -2.56 -3.2 0
v -2.24 -3.2 0
v -2.56 -3.52 0
v -2.88 -3.52 0
v -2.88 -3.2 0
v -2.56 -3.2 0
v -1.92 -3.84 0
v -2.24 -3.84 0
v -2.24 -3.52 0
v -1.92 -3.52 0
v -2.24 -3.84 0
v -2.56 -3.84 0
v -2.56 -3.52 0
v -2.24 -3.52 0
v -2.56 -3.84 0
v -2.88 -3.84 0
v -2.88 -3.52 0
v -2.56 -3.52 0
v -7.36 -3.84 0
v -7.68 -3.84 0
v -7.68 -3.52 0
v -7.36 -3.52 0
v -7.68 -3.84 0
v -8 -3.84 0
v -8 -3.52 0
v -7.68 -3.52 0
v -1.92 -4.16 0
v -2.24 -4.16 0
v -2.24 -3.84 0
v -1.92 -3.84 0
v -2.24 -4.16 0
v -2.56 -4.16 0
v -2.56 -3.84 0
v -2.24 -3.84 0
v -2.56 -4.16 0
v -2.88 -4.16 0
v -2.88 -3.84 0
v -2.56 -3.84 0
v -7.36 -4.16 0
v -7.68 -4.16 0
v -7.68 -3.84 0
v -7.36 -3.84 0
v -7.68 -4.16 0
v -8 -4.16 0
v -8 -3.84 0
v -7.68 -3.84 0
v -0.64 -4.48 0
v -0.96 -4.48 0
v -0.96 -4.16 0
v -0.64 -4.16 0
v -0.96 -4.48 0
v -1.28 -4.48 0
v -1.28 -4.16 0
v -0.96 -4.16 0
v -1.28 -4.48 0
v -1.6 -4.48 0
v -1.6 -4.16 0
v -1.28 -4.16 0
v -1.92 -4.48 0
v -2.24 -4.48 0
v -2.24 -4.16 0
v -1.92 -4.16 0
v -2.24 -4.48 0
v -2.56 -4.48 0
v -2.56 -4.16 0
v -2.24 -4.16 0
v -2.56 -4.48 0
v -2.88 -4.48 0
v -2.88 -4.16 0
v -2.56 -4.16 0
v -7.36 -4.48 0
v -7.68 -4.48 0
v -7.68 -4.16 0
v -7.36 -4.16 0
v -7.68 -4.48 0
v -8 -4.48 0
v -8 -4.16 0
v -7.68 -4.16 0
v -0.64 -4.8 0
v -0.96 -4.8 0
v -0.96 -4.48 0
v -0.64 -4.48 0
v -0.96 -4.8 0
v -1.28 -4.8 0
v -1.28 -4.48 0
v -0.96 -4.48 0
v -1.28 -4.8 0
v -1.6 -4.8 0
v -1.6 -4.48 0
v -1.28 -4.48 0
v -7.36 -4.8 0
v -7.68 -4.8 0
v -7.68 -4.48 0
v -7.36 -4.48 0
v -7.68 -4.8 0
v -8 -4.8 0
v -8 -4.48 0
v -7.68 -4.48 0
v -0.64 -5.12 0
v -0.96 -5.12 0
v -0.96 -4.8 0
v -0.64 -4.8 0
v -0.96 -5.12 0
v -1.28 -5.12 0
v -1.28 -4.8 0
v -0.96 -4.8 0
v -1.28 -5.12 0
v -1.6 -5.12 0
v -1.6 -4.8 0
v -1.28 -4.8 0
v -7.36 -5.12 0
v -7.68 -5.12 0
v -7.68 -4.8 0
v -7.36 -4.8 0
v -7.68 -5.12 0
v -8 -5.12 0
v -8 -4.8 0
v -7.68 -4.8 0
v -0.64 -5.44 0
v -0.96 -5.44 0
v -0.96 -5.12 0
v -0.64 -5.12 0
v -0.96 -5.44 0
v -1.28 -5.44 0
v -1.28 -5.12 0
v -0.96 -5.12 0
v -1.28 -5.44 0
v -1.6 -5.44 0
v -1.6 -5.12 0
v -1.28 -5.12 0
v -5.44 -5.44 0
v -5.76 -5.44 0
v -5.76 -5.12 0
v -5.44 -5.12 0
v -5.76 -5.44 0
v -6.08 -5.44 0
v -6.08 -5.12 0
v -5.76 -5.12 0
v -6.08 -5.44 0
v -6.4 -5.44 0
v -6.4 -5.12 0
v -6.08 -5.12 0
v -0.64 -5.76 0
v -0.96 -5.76 0
v -0.96 -5.44 0
v -0.64 -5.44 0
v -0.96 -5.76 0
v -1.28 -5.76 0
v -1.28 -5.44 0
v -0.96 -5.44 0
v -1.28 -5.76 0
v -1.6 -5.76 0
v -1.6 -5.44 0
v -1.28 -5.44 0
v -5.44 -5.76 0
v -5.76 -5.76 0
v -5.76 -5.44 0
v -5.44 -5.44 0
v -5.76 -5.76 0
v -6.08 -5.76 0
v -6.08 -5.44 0
v -5.76 -5.44 0
v -6.08 -5.76 0
v -6.4 -5.76 0
v -6.4 -5.44 0
v -6.08 -5.44 0
v -5.44 -6.08 0
v -5.76 -6.08 0
v -5.76 -5.76 0
v -5.44 -5.76 0
v -5.76 -6.08 0
v -6.08 -6.08 0
v -6.08 -5.76 0
v -5.76 -5.76 0
v -6.08 -6.08 0
v -6.4 -6.08 0
v -6.4 -5.76 0
v -6.08 -5.76 0
v -5.44 -6.4 0
v -5.76 -6.4 0
v -5.76 -6.08 0
v -5.44 -6.08 0
v -5.76 -6.4 0
v -6.08 -6.4 0
v -6.08 -6.08 0
v -5.76 -6.08 0
v -6.08 -6.4 0
v -6.4 -6.4 0
v -6.4 -6.08 0
v -6.08 -6.08 0
v -0.64 -6.72 0
v -0.96 -6.72 0
v -0.96 -6.4 0
v -0.64 -6.4 0
v -0.96 -6.72 0
v -1.28 -6.72 0
v -1.28 -6.4 0
v -0.96 -6.4 0
v -1.28 -6.72 0
v -1.6 -6.72 0
v -1.6 -6.4 0
v -1.28 -6.4 0
v -5.44 -6.72 0
v -5.76 -6.72 0
v -5.76 -6.4 0
v -5.44 -6.4 0
v -5.76 -6.72 0
v -6.08 -6.72 0
v -6.08 -6.4 0
v -5.76 -6.4 0
v -6.08 -6.72 0
v -6.4 -6.72 0
v -6.4 -6.4 0
v -6.08 -6.4 0
v -0.64 -7.04 0
v -0.96 -7.04 0
v -0.96 -6.72 0
v -0.64 -6.72 0
v -0.96 -7.04 0
v -1.28 -7.04 0
v -1.28 -6.72 0
v -0.96 -6.72 0
v -1.28 -7.04 0
v -1.6 -7.04 0
v -1.6 -6.72 0
v -1.28 -6.72 0
v -0.64 -7.36 0
v -0.96 -7.36 0
v -0.96 -7.04 0
v -0.64 -7.04 0
v -0.96 -7.36 0
v -1.28 -7.36 0
v -1.28 -7.04 0
v -0.96 -7.04 0
v -1.28 -7.36 0
v -1.6 -7.36 0
v -1.6 -7.04 0
v -1.28 -7.04 0
v -0.64 -7.68 0
v -0.96 -7.68 0
v -0.96 -7.36 0
v -0.64 -7.36 0
v -0.96 -7.68 0
v -1.28 -7.68 0
v -1.28 -7.36 0
v -0.96 -7.36 0
v -1.28 -7.68 0
v -1.6 -7.68 0
v -1.6 -7.36 0
v -1.28 -7.36 0
v -0.64 -8 0
v -0.96 -8 0
v -0.96 -7.68 0
v -0.64 -7.68 0
v -0.96 -8 0
v -1.28 -8 0
v -1.28 -7.68 0
v -0.96 -7.68 0
v -1.28 -8 0
v -1.6 -8 0
v -1.6 -7.68 0
v -1.28 -7.68 0

# Texture cooridinates (Count = 24)
vt 0.3076923 0.5384616
vt 0.3846154 0.5384616
vt 0.3846154 0.6153846
vt 0.3076923 0.6153846
vt 0.4615385 0.5384616
vt 0.4615385 0.6153846
vt 0.2307692 0.3846154
vt 0.3076923 0.3846154
vt 0.3076923 0.4615384
vt 0.2307692 0.4615384
vt 0.3846154 0.3846154
vt 0.3846154 0.4615384
vt 0.4615385 0.3846154
vt 0.4615385 0.4615384
vt 0.2307692 0.6153846
vt 0.3076923 0.6923077
vt 0.2307692 0.6923077
vt 0.3846154 0.6923077
vt 0.4615385 0.6923077
vt 0.2307692 0.3076923
vt 0.3076923 0.3076923
vt 0.3846154 0.3076923
vt 0.4615385 0.3076923
vt 0.2307692 0.5384616

# Normal
vn 0 0 -1

# Mesh description
g ForestEnd_mesh_0005

# Faces
f 1/1/1 2/2/1 3/3/1 4/4/1
f 5/2/1 6/5/1 7/6/1 8/3/1
f 9/7/1 10/8/1 11/9/1 12/10/1
f 13/8/1 14/11/1 15/12/1 16/9/1
f 17/11/1 18/13/1 19/14/1 20/12/1
f 21/15/1 22/4/1 23/16/1 24/17/1
f 25/4/1 26/3/1 27/18/1 28/16/1
f 29/3/1 30/6/1 31/19/1 32/18/1
f 33/9/1 34/12/1 35/2/1 36/1/1
f 37/12/1 38/14/1 39/5/1 40/2/1
f 41/20/1 42/21/1 43/8/1 44/7/1
f 45/21/1 46/22/1 47/11/1 48/8/1
f 49/22/1 50/23/1 51/13/1 52/11/1
f 53/24/1 54/1/1 55/4/1 56/15/1
f 57/1/1 58/2/1 59/3/1 60/4/1
f 61/2/1 62/5/1 63/6/1 64/3/1
f 65/8/1 66/11/1 67/12/1 68/9/1
f 69/11/1 70/13/1 71/14/1 72/12/1
f 73/15/1 74/4/1 75/16/1 76/17/1
f 77/4/1 78/3/1 79/18/1 80/16/1
f 81/3/1 82/6/1 83/19/1 84/18/1
f 85/10/1 86/9/1 87/1/1 88/24/1
f 89/9/1 90/12/1 91/2/1 92/1/1
f 93/12/1 94/14/1 95/5/1 96/2/1
f 97/15/1 98/4/1 99/16/1 100/17/1
f 101/4/1 102/3/1 103/18/1 104/16/1
f 105/3/1 106/6/1 107/19/1 108/18/1
f 109/21/1 110/22/1 111/11/1 112/8/1
f 113/22/1 114/23/1 115/13/1 116/11/1
f 117/24/1 118/1/1 119/4/1 120/15/1
f 121/1/1 122/2/1 123/3/1 124/4/1
f 125/2/1 126/5/1 127/6/1 128/3/1
f 129/7/1 130/8/1 131/9/1 132/10/1
f 133/8/1 134/11/1 135/12/1 136/9/1
f 137/11/1 138/13/1 139/14/1 140/12/1
f 141/24/1 142/1/1 143/4/1 144/15/1
f 145/1/1 146/2/1 147/3/1 148/4/1
f 149/2/1 150/5/1 151/6/1 152/3/1
f 153/10/1 154/9/1 155/1/1 156/24/1
f 157/9/1 158/12/1 159/2/1 160/1/1
f 161/12/1 162/14/1 163/5/1 164/2/1
f 165/20/1 166/21/1 167/8/1 168/7/1
f 169/21/1 170/22/1 171/11/1 172/8/1
f 173/22/1 174/23/1 175/13/1 176/11/1
f 177/10/1 178/9/1 179/1/1 180/24/1
f 181/9/1 182/12/1 183/2/1 184/1/1
f 185/12/1 186/14/1 187/5/1 188/2/1
f 189/7/1 190/8/1 191/9/1 192/10/1
f 193/8/1 194/11/1 195/12/1 196/9/1
f 197/11/1 198/13/1 199/14/1 200/12/1
f 201/7/1 202/8/1 203/9/1 204/10/1
f 205/8/1 206/11/1 207/12/1 208/9/1
f 209/11/1 210/13/1 211/14/1 212/12/1
f 213/20/1 214/21/1 215/8/1 216/7/1
f 217/21/1 218/22/1 219/11/1 220/8/1
f 221/22/1 222/23/1 223/13/1 224/11/1
f 225/20/1 226/21/1 227/8/1 228/7/1
f 229/21/1 230/22/1 231/11/1 232/8/1
f 233/22/1 234/23/1 235/13/1 236/11/1
f 237/15/1 238/4/1 239/16/1 240/17/1
f 241/4/1 242/3/1 243/18/1 244/16/1
f 245/3/1 246/6/1 247/19/1 248/18/1
f 249/24/1 250/1/1 251/4/1 252/15/1
f 253/1/1 254/2/1 255/3/1 256/4/1
f 257/2/1 258/5/1 259/6/1 260/3/1
f 261/10/1 262/9/1 263/1/1 264/24/1
f 265/9/1 266/12/1 267/2/1 268/1/1
f 269/12/1 270/14/1 271/5/1 272/2/1
f 273/15/1 274/4/1 275/16/1 276/17/1
f 277/4/1 278/3/1 279/18/1 280/16/1
f 281/7/1 282/8/1 283/9/1 284/10/1
f 285/8/1 286/11/1 287/12/1 288/9/1
f 289/11/1 290/13/1 291/14/1 292/12/1
f 293/24/1 294/1/1 295/4/1 296/15/1
f 297/1/1 298/2/1 299/3/1 300/4/1
f 301/15/1 302/4/1 303/16/1 304/17/1
f 305/4/1 306/3/1 307/18/1 308/16/1
f 309/3/1 310/6/1 311/19/1 312/18/1
f 313/20/1 314/21/1 315/8/1 316/7/1
f 317/21/1 318/22/1 319/11/1 320/8/1
f 321/22/1 322/23/1 323/13/1 324/11/1
f 325/10/1 326/9/1 327/1/1 328/24/1
f 329/9/1 330/12/1 331/2/1 332/1/1
f 333/24/1 334/1/1 335/4/1 336/15/1
f 337/1/1 338/2/1 339/3/1 340/4/1
f 341/2/1 342/5/1 343/6/1 344/3/1
f 345/7/1 346/8/1 347/9/1 348/10/1
f 349/8/1 350/11/1 351/12/1 352/9/1
f 353/10/1 354/9/1 355/1/1 356/24/1
f 357/9/1 358/12/1 359/2/1 360/1/1
f 361/12/1 362/14/1 363/5/1 364/2/1
f 365/20/1 366/21/1 367/8/1 368/7/1
f 369/21/1 370/22/1 371/11/1 372/8/1
f 373/7/1 374/8/1 375/9/1 376/10/1
f 377/8/1 378/11/1 379/12/1 380/9/1
f 381/11/1 382/13/1 383/14/1 384/12/1
f 385/15/1 386/4/1 387/16/1 388/17/1
f 389/4/1 390/3/1 391/18/1 392/16/1
f 393/3/1 394/6/1 395/19/1 396/18/1
f 397/20/1 398/21/1 399/8/1 400/7/1
f 401/21/1 402/22/1 403/11/1 404/8/1
f 405/22/1 406/23/1 407/13/1 408/11/1
f 409/24/1 410/1/1 411/4/1 412/15/1
f 413/1/1 414/2/1 415/3/1 416/4/1
f 417/2/1 418/5/1 419/6/1 420/3/1
f 421/10/1 422/9/1 423/1/1 424/24/1
f 425/9/1 426/12/1 427/2/1 428/1/1
f 429/12/1 430/14/1 431/5/1 432/2/1
f 433/7/1 434/8/1 435/9/1 436/10/1
f 437/8/1 438/11/1 439/12/1 440/9/1
f 441/11/1 442/13/1 443/14/1 444/12/1
f 445/15/1 446/4/1 447/16/1 448/17/1
f 449/4/1 450/3/1 451/18/1 452/16/1
f 453/3/1 454/6/1 455/19/1 456/18/1
f 457/20/1 458/21/1 459/8/1 460/7/1
f 461/21/1 462/22/1 463/11/1 464/8/1
f 465/22/1 466/23/1 467/13/1 468/11/1
f 469/24/1 470/1/1 471/4/1 472/15/1
f 473/1/1 474/2/1 475/3/1 476/4/1
f 477/2/1 478/5/1 479/6/1 480/3/1
f 481/10/1 482/9/1 483/1/1 484/24/1
f 485/9/1 486/12/1 487/2/1 488/1/1
f 489/12/1 490/14/1 491/5/1 492/2/1
f 493/7/1 494/8/1 495/9/1 496/10/1
f 497/8/1 498/11/1 499/12/1 500/9/1
f 501/11/1 502/13/1 503/14/1 504/12/1
f 505/20/1 506/21/1 507/8/1 508/7/1
f 509/21/1 510/22/1 511/11/1 512/8/1
f 513/22/1 514/23/1 515/13/1 516/11/1

