# Tiled2Unity generated file. Do not modify by hand.
# Wavefront file for 'ForestEnd_mesh_0007.obj'

# Vertices (Count = 876)
v -2.56 -0.32 0
v -2.88 -0.32 0
v -2.88 0 0
v -2.56 0 0
v -2.88 -0.32 0
v -3.2 -0.32 0
v -3.2 0 0
v -2.88 0 0
v -3.2 -0.32 0
v -3.52 -0.32 0
v -3.52 0 0
v -3.2 0 0
v -6.4 -0.32 0
v -6.72 -0.32 0
v -6.72 0 0
v -6.4 0 0
v -6.72 -0.32 0
v -7.04 -0.32 0
v -7.04 0 0
v -6.72 0 0
v -7.04 -0.32 0
v -7.36 -0.32 0
v -7.36 0 0
v -7.04 0 0
v -2.56 -0.64 0
v -2.88 -0.64 0
v -2.88 -0.32 0
v -2.56 -0.32 0
v -2.88 -0.64 0
v -3.2 -0.64 0
v -3.2 -0.32 0
v -2.88 -0.32 0
v -3.2 -0.64 0
v -3.52 -0.64 0
v -3.52 -0.32 0
v -3.2 -0.32 0
v -4.8 -0.64 0
v -5.12 -0.64 0
v -5.12 -0.32 0
v -4.8 -0.32 0
v -5.12 -0.64 0
v -5.44 -0.64 0
v -5.44 -0.32 0
v -5.12 -0.32 0
v -5.44 -0.64 0
v -5.76 -0.64 0
v -5.76 -0.32 0
v -5.44 -0.32 0
v -6.4 -0.64 0
v -6.72 -0.64 0
v -6.72 -0.32 0
v -6.4 -0.32 0
v -6.72 -0.64 0
v -7.04 -0.64 0
v -7.04 -0.32 0
v -6.72 -0.32 0
v -7.04 -0.64 0
v -7.36 -0.64 0
v -7.36 -0.32 0
v -7.04 -0.32 0
v -0.96 -0.96 0
v -1.28 -0.96 0
v -1.28 -0.64 0
v -0.96 -0.64 0
v -1.28 -0.96 0
v -1.6 -0.96 0
v -1.6 -0.64 0
v -1.28 -0.64 0
v -1.6 -0.96 0
v -1.92 -0.96 0
v -1.92 -0.64 0
v -1.6 -0.64 0
v -2.56 -0.96 0
v -2.88 -0.96 0
v -2.88 -0.64 0
v -2.56 -0.64 0
v -2.88 -0.96 0
v -3.2 -0.96 0
v -3.2 -0.64 0
v -2.88 -0.64 0
v -3.2 -0.96 0
v -3.52 -0.96 0
v -3.52 -0.64 0
v -3.2 -0.64 0
v -4.8 -0.96 0
v -5.12 -0.96 0
v -5.12 -0.64 0
v -4.8 -0.64 0
v -5.12 -0.96 0
v -5.44 -0.96 0
v -5.44 -0.64 0
v -5.12 -0.64 0
v -5.44 -0.96 0
v -5.76 -0.96 0
v -5.76 -0.64 0
v -5.44 -0.64 0
v -6.4 -0.96 0
v -6.72 -0.96 0
v -6.72 -0.64 0
v -6.4 -0.64 0
v -6.72 -0.96 0
v -7.04 -0.96 0
v -7.04 -0.64 0
v -6.72 -0.64 0
v -7.04 -0.96 0
v -7.36 -0.96 0
v -7.36 -0.64 0
v -7.04 -0.64 0
v 0 -1.28 0
v -0.32 -1.28 0
v -0.32 -0.96 0
v 0 -0.96 0
v -0.32 -1.28 0
v -0.64 -1.28 0
v -0.64 -0.96 0
v -0.32 -0.96 0
v -0.64 -1.28 0
v -0.96 -1.28 0
v -0.96 -0.96 0
v -0.64 -0.96 0
v -0.96 -1.28 0
v -1.28 -1.28 0
v -1.28 -0.96 0
v -0.96 -0.96 0
v -1.28 -1.28 0
v -1.6 -1.28 0
v -1.6 -0.96 0
v -1.28 -0.96 0
v -1.6 -1.28 0
v -1.92 -1.28 0
v -1.92 -0.96 0
v -1.6 -0.96 0
v -2.56 -1.28 0
v -2.88 -1.28 0
v -2.88 -0.96 0
v -2.56 -0.96 0
v -2.88 -1.28 0
v -3.2 -1.28 0
v -3.2 -0.96 0
v -2.88 -0.96 0
v -3.2 -1.28 0
v -3.52 -1.28 0
v -3.52 -0.96 0
v -3.2 -0.96 0
v -4.8 -1.28 0
v -5.12 -1.28 0
v -5.12 -0.96 0
v -4.8 -0.96 0
v -5.12 -1.28 0
v -5.44 -1.28 0
v -5.44 -0.96 0
v -5.12 -0.96 0
v -5.44 -1.28 0
v -5.76 -1.28 0
v -5.76 -0.96 0
v -5.44 -0.96 0
v -6.4 -1.28 0
v -6.72 -1.28 0
v -6.72 -0.96 0
v -6.4 -0.96 0
v -6.72 -1.28 0
v -7.04 -1.28 0
v -7.04 -0.96 0
v -6.72 -0.96 0
v -7.04 -1.28 0
v -7.36 -1.28 0
v -7.36 -0.96 0
v -7.04 -0.96 0
v 0 -1.6 0
v -0.32 -1.6 0
v -0.32 -1.28 0
v 0 -1.28 0
v -0.32 -1.6 0
v -0.64 -1.6 0
v -0.64 -1.28 0
v -0.32 -1.28 0
v -0.64 -1.6 0
v -0.96 -1.6 0
v -0.96 -1.28 0
v -0.64 -1.28 0
v -0.96 -1.6 0
v -1.28 -1.6 0
v -1.28 -1.28 0
v -0.96 -1.28 0
v -1.28 -1.6 0
v -1.6 -1.6 0
v -1.6 -1.28 0
v -1.28 -1.28 0
v -1.6 -1.6 0
v -1.92 -1.6 0
v -1.92 -1.28 0
v -1.6 -1.28 0
v -4.8 -1.6 0
v -5.12 -1.6 0
v -5.12 -1.28 0
v -4.8 -1.28 0
v -5.12 -1.6 0
v -5.44 -1.6 0
v -5.44 -1.28 0
v -5.12 -1.28 0
v -5.44 -1.6 0
v -5.76 -1.6 0
v -5.76 -1.28 0
v -5.44 -1.28 0
v 0 -1.92 0
v -0.32 -1.92 0
v -0.32 -1.6 0
v 0 -1.6 0
v -0.32 -1.92 0
v -0.64 -1.92 0
v -0.64 -1.6 0
v -0.32 -1.6 0
v -0.64 -1.92 0
v -0.96 -1.92 0
v -0.96 -1.6 0
v -0.64 -1.6 0
v -0.96 -1.92 0
v -1.28 -1.92 0
v -1.28 -1.6 0
v -0.96 -1.6 0
v -1.28 -1.92 0
v -1.6 -1.92 0
v -1.6 -1.6 0
v -1.28 -1.6 0
v -1.6 -1.92 0
v -1.92 -1.92 0
v -1.92 -1.6 0
v -1.6 -1.6 0
v -4.8 -1.92 0
v -5.12 -1.92 0
v -5.12 -1.6 0
v -4.8 -1.6 0
v -5.12 -1.92 0
v -5.44 -1.92 0
v -5.44 -1.6 0
v -5.12 -1.6 0
v -5.44 -1.92 0
v -5.76 -1.92 0
v -5.76 -1.6 0
v -5.44 -1.6 0
v -7.04 -1.92 0
v -7.36 -1.92 0
v -7.36 -1.6 0
v -7.04 -1.6 0
v -7.36 -1.92 0
v -7.68 -1.92 0
v -7.68 -1.6 0
v -7.36 -1.6 0
v -7.68 -1.92 0
v -8 -1.92 0
v -8 -1.6 0
v -7.68 -1.6 0
v 0 -2.24 0
v -0.32 -2.24 0
v -0.32 -1.92 0
v 0 -1.92 0
v -0.32 -2.24 0
v -0.64 -2.24 0
v -0.64 -1.92 0
v -0.32 -1.92 0
v -0.64 -2.24 0
v -0.96 -2.24 0
v -0.96 -1.92 0
v -0.64 -1.92 0
v -0.96 -2.24 0
v -1.28 -2.24 0
v -1.28 -1.92 0
v -0.96 -1.92 0
v -1.28 -2.24 0
v -1.6 -2.24 0
v -1.6 -1.92 0
v -1.28 -1.92 0
v -1.6 -2.24 0
v -1.92 -2.24 0
v -1.92 -1.92 0
v -1.6 -1.92 0
v -7.04 -2.24 0
v -7.36 -2.24 0
v -7.36 -1.92 0
v -7.04 -1.92 0
v -7.36 -2.24 0
v -7.68 -2.24 0
v -7.68 -1.92 0
v -7.36 -1.92 0
v -7.68 -2.24 0
v -8 -2.24 0
v -8 -1.92 0
v -7.68 -1.92 0
v 0 -2.56 0
v -0.32 -2.56 0
v -0.32 -2.24 0
v 0 -2.24 0
v -0.32 -2.56 0
v -0.64 -2.56 0
v -0.64 -2.24 0
v -0.32 -2.24 0
v -0.64 -2.56 0
v -0.96 -2.56 0
v -0.96 -2.24 0
v -0.64 -2.24 0
v -7.04 -2.56 0
v -7.36 -2.56 0
v -7.36 -2.24 0
v -7.04 -2.24 0
v -7.36 -2.56 0
v -7.68 -2.56 0
v -7.68 -2.24 0
v -7.36 -2.24 0
v -7.68 -2.56 0
v -8 -2.56 0
v -8 -2.24 0
v -7.68 -2.24 0
v -7.04 -2.88 0
v -7.36 -2.88 0
v -7.36 -2.56 0
v -7.04 -2.56 0
v -7.36 -2.88 0
v -7.68 -2.88 0
v -7.68 -2.56 0
v -7.36 -2.56 0
v -7.68 -2.88 0
v -8 -2.88 0
v -8 -2.56 0
v -7.68 -2.56 0
v -0.96 -3.2 0
v -1.28 -3.2 0
v -1.28 -2.88 0
v -0.96 -2.88 0
v -1.28 -3.2 0
v -1.6 -3.2 0
v -1.6 -2.88 0
v -1.28 -2.88 0
v -1.6 -3.2 0
v -1.92 -3.2 0
v -1.92 -2.88 0
v -1.6 -2.88 0
v -5.12 -3.2 0
v -5.44 -3.2 0
v -5.44 -2.88 0
v -5.12 -2.88 0
v -5.44 -3.2 0
v -5.76 -3.2 0
v -5.76 -2.88 0
v -5.44 -2.88 0
v -5.76 -3.2 0
v -6.08 -3.2 0
v -6.08 -2.88 0
v -5.76 -2.88 0
v -7.04 -3.2 0
v -7.36 -3.2 0
v -7.36 -2.88 0
v -7.04 -2.88 0
v -7.36 -3.2 0
v -7.68 -3.2 0
v -7.68 -2.88 0
v -7.36 -2.88 0
v -7.68 -3.2 0
v -8 -3.2 0
v -8 -2.88 0
v -7.68 -2.88 0
v -0.96 -3.52 0
v -1.28 -3.52 0
v -1.28 -3.2 0
v -0.96 -3.2 0
v -1.28 -3.52 0
v -1.6 -3.52 0
v -1.6 -3.2 0
v -1.28 -3.2 0
v -1.6 -3.52 0
v -1.92 -3.52 0
v -1.92 -3.2 0
v -1.6 -3.2 0
v -5.12 -3.52 0
v -5.44 -3.52 0
v -5.44 -3.2 0
v -5.12 -3.2 0
v -5.44 -3.52 0
v -5.76 -3.52 0
v -5.76 -3.2 0
v -5.44 -3.2 0
v -5.76 -3.52 0
v -6.08 -3.52 0
v -6.08 -3.2 0
v -5.76 -3.2 0
v -0.96 -3.84 0
v -1.28 -3.84 0
v -1.28 -3.52 0
v -0.96 -3.52 0
v -1.28 -3.84 0
v -1.6 -3.84 0
v -1.6 -3.52 0
v -1.28 -3.52 0
v -1.6 -3.84 0
v -1.92 -3.84 0
v -1.92 -3.52 0
v -1.6 -3.52 0
v -5.12 -3.84 0
v -5.44 -3.84 0
v -5.44 -3.52 0
v -5.12 -3.52 0
v -5.44 -3.84 0
v -5.76 -3.84 0
v -5.76 -3.52 0
v -5.44 -3.52 0
v -5.76 -3.84 0
v -6.08 -3.84 0
v -6.08 -3.52 0
v -5.76 -3.52 0
v -0.96 -4.16 0
v -1.28 -4.16 0
v -1.28 -3.84 0
v -0.96 -3.84 0
v -1.28 -4.16 0
v -1.6 -4.16 0
v -1.6 -3.84 0
v -1.28 -3.84 0
v -1.6 -4.16 0
v -1.92 -4.16 0
v -1.92 -3.84 0
v -1.6 -3.84 0
v -5.12 -4.16 0
v -5.44 -4.16 0
v -5.44 -3.84 0
v -5.12 -3.84 0
v -5.44 -4.16 0
v -5.76 -4.16 0
v -5.76 -3.84 0
v -5.44 -3.84 0
v -5.76 -4.16 0
v -6.08 -4.16 0
v -6.08 -3.84 0
v -5.76 -3.84 0
v -0.96 -4.48 0
v -1.28 -4.48 0
v -1.28 -4.16 0
v -0.96 -4.16 0
v -1.28 -4.48 0
v -1.6 -4.48 0
v -1.6 -4.16 0
v -1.28 -4.16 0
v -1.6 -4.48 0
v -1.92 -4.48 0
v -1.92 -4.16 0
v -1.6 -4.16 0
v -5.12 -4.48 0
v -5.44 -4.48 0
v -5.44 -4.16 0
v -5.12 -4.16 0
v -5.44 -4.48 0
v -5.76 -4.48 0
v -5.76 -4.16 0
v -5.44 -4.16 0
v -5.76 -4.48 0
v -6.08 -4.48 0
v -6.08 -4.16 0
v -5.76 -4.16 0
v -3.2 -4.8 0
v -3.52 -4.8 0
v -3.52 -4.48 0
v -3.2 -4.48 0
v -3.52 -4.8 0
v -3.84 -4.8 0
v -3.84 -4.48 0
v -3.52 -4.48 0
v -3.84 -4.8 0
v -4.16 -4.8 0
v -4.16 -4.48 0
v -3.84 -4.48 0
v -4.8 -4.8 0
v -5.12 -4.8 0
v -5.12 -4.48 0
v -4.8 -4.48 0
v -5.12 -4.8 0
v -5.44 -4.8 0
v -5.44 -4.48 0
v -5.12 -4.48 0
v -5.44 -4.8 0
v -5.76 -4.8 0
v -5.76 -4.48 0
v -5.44 -4.48 0
v -2.24 -5.12 0
v -2.56 -5.12 0
v -2.56 -4.8 0
v -2.24 -4.8 0
v -2.56 -5.12 0
v -2.88 -5.12 0
v -2.88 -4.8 0
v -2.56 -4.8 0
v -2.88 -5.12 0
v -3.2 -5.12 0
v -3.2 -4.8 0
v -2.88 -4.8 0
v -3.2 -5.12 0
v -3.52 -5.12 0
v -3.52 -4.8 0
v -3.2 -4.8 0
v -3.52 -5.12 0
v -3.84 -5.12 0
v -3.84 -4.8 0
v -3.52 -4.8 0
v -3.84 -5.12 0
v -4.16 -5.12 0
v -4.16 -4.8 0
v -3.84 -4.8 0
v -4.8 -5.12 0
v -5.12 -5.12 0
v -5.12 -4.8 0
v -4.8 -4.8 0
v -5.12 -5.12 0
v -5.44 -5.12 0
v -5.44 -4.8 0
v -5.12 -4.8 0
v -5.44 -5.12 0
v -5.76 -5.12 0
v -5.76 -4.8 0
v -5.44 -4.8 0
v -2.24 -5.44 0
v -2.56 -5.44 0
v -2.56 -5.12 0
v -2.24 -5.12 0
v -2.56 -5.44 0
v -2.88 -5.44 0
v -2.88 -5.12 0
v -2.56 -5.12 0
v -2.88 -5.44 0
v -3.2 -5.44 0
v -3.2 -5.12 0
v -2.88 -5.12 0
v -3.2 -5.44 0
v -3.52 -5.44 0
v -3.52 -5.12 0
v -3.2 -5.12 0
v -3.52 -5.44 0
v -3.84 -5.44 0
v -3.84 -5.12 0
v -3.52 -5.12 0
v -3.84 -5.44 0
v -4.16 -5.44 0
v -4.16 -5.12 0
v -3.84 -5.12 0
v -4.8 -5.44 0
v -5.12 -5.44 0
v -5.12 -5.12 0
v -4.8 -5.12 0
v -5.12 -5.44 0
v -5.44 -5.44 0
v -5.44 -5.12 0
v -5.12 -5.12 0
v -5.44 -5.44 0
v -5.76 -5.44 0
v -5.76 -5.12 0
v -5.44 -5.12 0
v -7.04 -5.44 0
v -7.36 -5.44 0
v -7.36 -5.12 0
v -7.04 -5.12 0
v -7.36 -5.44 0
v -7.68 -5.44 0
v -7.68 -5.12 0
v -7.36 -5.12 0
v -7.68 -5.44 0
v -8 -5.44 0
v -8 -5.12 0
v -7.68 -5.12 0
v 0 -5.76 0
v -0.32 -5.76 0
v -0.32 -5.44 0
v 0 -5.44 0
v -0.32 -5.76 0
v -0.64 -5.76 0
v -0.64 -5.44 0
v -0.32 -5.44 0
v -0.64 -5.76 0
v -0.96 -5.76 0
v -0.96 -5.44 0
v -0.64 -5.44 0
v -2.24 -5.76 0
v -2.56 -5.76 0
v -2.56 -5.44 0
v -2.24 -5.44 0
v -2.56 -5.76 0
v -2.88 -5.76 0
v -2.88 -5.44 0
v -2.56 -5.44 0
v -2.88 -5.76 0
v -3.2 -5.76 0
v -3.2 -5.44 0
v -2.88 -5.44 0
v -3.2 -5.76 0
v -3.52 -5.76 0
v -3.52 -5.44 0
v -3.2 -5.44 0
v -3.52 -5.76 0
v -3.84 -5.76 0
v -3.84 -5.44 0
v -3.52 -5.44 0
v -3.84 -5.76 0
v -4.16 -5.76 0
v -4.16 -5.44 0
v -3.84 -5.44 0
v -4.8 -5.76 0
v -5.12 -5.76 0
v -5.12 -5.44 0
v -4.8 -5.44 0
v -5.12 -5.76 0
v -5.44 -5.76 0
v -5.44 -5.44 0
v -5.12 -5.44 0
v -5.44 -5.76 0
v -5.76 -5.76 0
v -5.76 -5.44 0
v -5.44 -5.44 0
v -7.04 -5.76 0
v -7.36 -5.76 0
v -7.36 -5.44 0
v -7.04 -5.44 0
v -7.36 -5.76 0
v -7.68 -5.76 0
v -7.68 -5.44 0
v -7.36 -5.44 0
v -7.68 -5.76 0
v -8 -5.76 0
v -8 -5.44 0
v -7.68 -5.44 0
v 0 -6.08 0
v -0.32 -6.08 0
v -0.32 -5.76 0
v 0 -5.76 0
v -0.32 -6.08 0
v -0.64 -6.08 0
v -0.64 -5.76 0
v -0.32 -5.76 0
v -0.64 -6.08 0
v -0.96 -6.08 0
v -0.96 -5.76 0
v -0.64 -5.76 0
v -2.24 -6.08 0
v -2.56 -6.08 0
v -2.56 -5.76 0
v -2.24 -5.76 0
v -2.56 -6.08 0
v -2.88 -6.08 0
v -2.88 -5.76 0
v -2.56 -5.76 0
v -2.88 -6.08 0
v -3.2 -6.08 0
v -3.2 -5.76 0
v -2.88 -5.76 0
v -3.2 -6.08 0
v -3.52 -6.08 0
v -3.52 -5.76 0
v -3.2 -5.76 0
v -3.52 -6.08 0
v -3.84 -6.08 0
v -3.84 -5.76 0
v -3.52 -5.76 0
v -3.84 -6.08 0
v -4.16 -6.08 0
v -4.16 -5.76 0
v -3.84 -5.76 0
v -4.8 -6.08 0
v -5.12 -6.08 0
v -5.12 -5.76 0
v -4.8 -5.76 0
v -5.12 -6.08 0
v -5.44 -6.08 0
v -5.44 -5.76 0
v -5.12 -5.76 0
v -5.44 -6.08 0
v -5.76 -6.08 0
v -5.76 -5.76 0
v -5.44 -5.76 0
v -7.04 -6.08 0
v -7.36 -6.08 0
v -7.36 -5.76 0
v -7.04 -5.76 0
v -7.36 -6.08 0
v -7.68 -6.08 0
v -7.68 -5.76 0
v -7.36 -5.76 0
v -7.68 -6.08 0
v -8 -6.08 0
v -8 -5.76 0
v -7.68 -5.76 0
v 0 -6.4 0
v -0.32 -6.4 0
v -0.32 -6.08 0
v 0 -6.08 0
v -0.32 -6.4 0
v -0.64 -6.4 0
v -0.64 -6.08 0
v -0.32 -6.08 0
v -0.64 -6.4 0
v -0.96 -6.4 0
v -0.96 -6.08 0
v -0.64 -6.08 0
v -2.24 -6.4 0
v -2.56 -6.4 0
v -2.56 -6.08 0
v -2.24 -6.08 0
v -2.56 -6.4 0
v -2.88 -6.4 0
v -2.88 -6.08 0
v -2.56 -6.08 0
v -2.88 -6.4 0
v -3.2 -6.4 0
v -3.2 -6.08 0
v -2.88 -6.08 0
v -7.04 -6.4 0
v -7.36 -6.4 0
v -7.36 -6.08 0
v -7.04 -6.08 0
v -7.36 -6.4 0
v -7.68 -6.4 0
v -7.68 -6.08 0
v -7.36 -6.08 0
v -7.68 -6.4 0
v -8 -6.4 0
v -8 -6.08 0
v -7.68 -6.08 0
v 0 -6.72 0
v -0.32 -6.72 0
v -0.32 -6.4 0
v 0 -6.4 0
v -0.32 -6.72 0
v -0.64 -6.72 0
v -0.64 -6.4 0
v -0.32 -6.4 0
v -0.64 -6.72 0
v -0.96 -6.72 0
v -0.96 -6.4 0
v -0.64 -6.4 0
v -3.52 -6.72 0
v -3.84 -6.72 0
v -3.84 -6.4 0
v -3.52 -6.4 0
v -3.84 -6.72 0
v -4.16 -6.72 0
v -4.16 -6.4 0
v -3.84 -6.4 0
v -4.16 -6.72 0
v -4.48 -6.72 0
v -4.48 -6.4 0
v -4.16 -6.4 0
v -5.12 -6.72 0
v -5.44 -6.72 0
v -5.44 -6.4 0
v -5.12 -6.4 0
v -5.44 -6.72 0
v -5.76 -6.72 0
v -5.76 -6.4 0
v -5.44 -6.4 0
v -5.76 -6.72 0
v -6.08 -6.72 0
v -6.08 -6.4 0
v -5.76 -6.4 0
v -7.04 -6.72 0
v -7.36 -6.72 0
v -7.36 -6.4 0
v -7.04 -6.4 0
v -7.36 -6.72 0
v -7.68 -6.72 0
v -7.68 -6.4 0
v -7.36 -6.4 0
v -7.68 -6.72 0
v -8 -6.72 0
v -8 -6.4 0
v -7.68 -6.4 0
v 0 -7.04 0
v -0.32 -7.04 0
v -0.32 -6.72 0
v 0 -6.72 0
v -0.32 -7.04 0
v -0.64 -7.04 0
v -0.64 -6.72 0
v -0.32 -6.72 0
v -0.64 -7.04 0
v -0.96 -7.04 0
v -0.96 -6.72 0
v -0.64 -6.72 0
v -3.52 -7.04 0
v -3.84 -7.04 0
v -3.84 -6.72 0
v -3.52 -6.72 0
v -3.84 -7.04 0
v -4.16 -7.04 0
v -4.16 -6.72 0
v -3.84 -6.72 0
v -4.16 -7.04 0
v -4.48 -7.04 0
v -4.48 -6.72 0
v -4.16 -6.72 0
v -5.12 -7.04 0
v -5.44 -7.04 0
v -5.44 -6.72 0
v -5.12 -6.72 0
v -5.44 -7.04 0
v -5.76 -7.04 0
v -5.76 -6.72 0
v -5.44 -6.72 0
v -5.76 -7.04 0
v -6.08 -7.04 0
v -6.08 -6.72 0
v -5.76 -6.72 0
v -3.52 -7.36 0
v -3.84 -7.36 0
v -3.84 -7.04 0
v -3.52 -7.04 0
v -3.84 -7.36 0
v -4.16 -7.36 0
v -4.16 -7.04 0
v -3.84 -7.04 0
v -4.16 -7.36 0
v -4.48 -7.36 0
v -4.48 -7.04 0
v -4.16 -7.04 0
v -5.12 -7.36 0
v -5.44 -7.36 0
v -5.44 -7.04 0
v -5.12 -7.04 0
v -5.44 -7.36 0
v -5.76 -7.36 0
v -5.76 -7.04 0
v -5.44 -7.04 0
v -5.76 -7.36 0
v -6.08 -7.36 0
v -6.08 -7.04 0
v -5.76 -7.04 0
v -3.52 -7.68 0
v -3.84 -7.68 0
v -3.84 -7.36 0
v -3.52 -7.36 0
v -3.84 -7.68 0
v -4.16 -7.68 0
v -4.16 -7.36 0
v -3.84 -7.36 0
v -4.16 -7.68 0
v -4.48 -7.68 0
v -4.48 -7.36 0
v -4.16 -7.36 0
v -5.12 -7.68 0
v -5.44 -7.68 0
v -5.44 -7.36 0
v -5.12 -7.36 0
v -5.44 -7.68 0
v -5.76 -7.68 0
v -5.76 -7.36 0
v -5.44 -7.36 0
v -5.76 -7.68 0
v -6.08 -7.68 0
v -6.08 -7.36 0
v -5.76 -7.36 0
v -3.52 -8 0
v -3.84 -8 0
v -3.84 -7.68 0
v -3.52 -7.68 0
v -3.84 -8 0
v -4.16 -8 0
v -4.16 -7.68 0
v -3.84 -7.68 0
v -4.16 -8 0
v -4.48 -8 0
v -4.48 -7.68 0
v -4.16 -7.68 0
v -5.12 -8 0
v -5.44 -8 0
v -5.44 -7.68 0
v -5.12 -7.68 0
v -5.44 -8 0
v -5.76 -8 0
v -5.76 -7.68 0
v -5.44 -7.68 0
v -5.76 -8 0
v -6.08 -8 0
v -6.08 -7.68 0
v -5.76 -7.68 0

# Texture cooridinates (Count = 24)
vt 0.2307692 0.5384616
vt 0.3076923 0.5384616
vt 0.3076923 0.6153846
vt 0.2307692 0.6153846
vt 0.3846154 0.5384616
vt 0.3846154 0.6153846
vt 0.4615385 0.5384616
vt 0.4615385 0.6153846
vt 0.2307692 0.4615384
vt 0.3076923 0.4615384
vt 0.3846154 0.4615384
vt 0.4615385 0.4615384
vt 0.3076923 0.6923077
vt 0.2307692 0.6923077
vt 0.3846154 0.6923077
vt 0.4615385 0.6923077
vt 0.2307692 0.3846154
vt 0.3076923 0.3846154
vt 0.3846154 0.3846154
vt 0.4615385 0.3846154
vt 0.2307692 0.3076923
vt 0.3076923 0.3076923
vt 0.3846154 0.3076923
vt 0.4615385 0.3076923

# Normal
vn 0 0 -1

# Mesh description
g ForestEnd_mesh_0007

# Faces
f 1/1/1 2/2/1 3/3/1 4/4/1
f 5/2/1 6/5/1 7/6/1 8/3/1
f 9/5/1 10/7/1 11/8/1 12/6/1
f 13/1/1 14/2/1 15/3/1 16/4/1
f 17/2/1 18/5/1 19/6/1 20/3/1
f 21/5/1 22/7/1 23/8/1 24/6/1
f 25/9/1 26/10/1 27/2/1 28/1/1
f 29/10/1 30/11/1 31/5/1 32/2/1
f 33/11/1 34/12/1 35/7/1 36/5/1
f 37/4/1 38/3/1 39/13/1 40/14/1
f 41/3/1 42/6/1 43/15/1 44/13/1
f 45/6/1 46/8/1 47/16/1 48/15/1
f 49/9/1 50/10/1 51/2/1 52/1/1
f 53/10/1 54/11/1 55/5/1 56/2/1
f 57/11/1 58/12/1 59/7/1 60/5/1
f 61/4/1 62/3/1 63/13/1 64/14/1
f 65/3/1 66/6/1 67/15/1 68/13/1
f 69/6/1 70/8/1 71/16/1 72/15/1
f 73/17/1 74/18/1 75/10/1 76/9/1
f 77/18/1 78/19/1 79/11/1 80/10/1
f 81/19/1 82/20/1 83/12/1 84/11/1
f 85/1/1 86/2/1 87/3/1 88/4/1
f 89/2/1 90/5/1 91/6/1 92/3/1
f 93/5/1 94/7/1 95/8/1 96/6/1
f 97/17/1 98/18/1 99/10/1 100/9/1
f 101/18/1 102/19/1 103/11/1 104/10/1
f 105/19/1 106/20/1 107/12/1 108/11/1
f 109/4/1 110/3/1 111/13/1 112/14/1
f 113/3/1 114/6/1 115/15/1 116/13/1
f 117/6/1 118/8/1 119/16/1 120/15/1
f 121/1/1 122/2/1 123/3/1 124/4/1
f 125/2/1 126/5/1 127/6/1 128/3/1
f 129/5/1 130/7/1 131/8/1 132/6/1
f 133/21/1 134/22/1 135/18/1 136/17/1
f 137/22/1 138/23/1 139/19/1 140/18/1
f 141/23/1 142/24/1 143/20/1 144/19/1
f 145/9/1 146/10/1 147/2/1 148/1/1
f 149/10/1 150/11/1 151/5/1 152/2/1
f 153/11/1 154/12/1 155/7/1 156/5/1
f 157/21/1 158/22/1 159/18/1 160/17/1
f 161/22/1 162/23/1 163/19/1 164/18/1
f 165/23/1 166/24/1 167/20/1 168/19/1
f 169/1/1 170/2/1 171/3/1 172/4/1
f 173/2/1 174/5/1 175/6/1 176/3/1
f 177/5/1 178/7/1 179/8/1 180/6/1
f 181/9/1 182/10/1 183/2/1 184/1/1
f 185/10/1 186/11/1 187/5/1 188/2/1
f 189/11/1 190/12/1 191/7/1 192/5/1
f 193/17/1 194/18/1 195/10/1 196/9/1
f 197/18/1 198/19/1 199/11/1 200/10/1
f 201/19/1 202/20/1 203/12/1 204/11/1
f 205/9/1 206/10/1 207/2/1 208/1/1
f 209/10/1 210/11/1 211/5/1 212/2/1
f 213/11/1 214/12/1 215/7/1 216/5/1
f 217/17/1 218/18/1 219/10/1 220/9/1
f 221/18/1 222/19/1 223/11/1 224/10/1
f 225/19/1 226/20/1 227/12/1 228/11/1
f 229/21/1 230/22/1 231/18/1 232/17/1
f 233/22/1 234/23/1 235/19/1 236/18/1
f 237/23/1 238/24/1 239/20/1 240/19/1
f 241/4/1 242/3/1 243/13/1 244/14/1
f 245/3/1 246/6/1 247/15/1 248/13/1
f 249/6/1 250/8/1 251/16/1 252/15/1
f 253/17/1 254/18/1 255/10/1 256/9/1
f 257/18/1 258/19/1 259/11/1 260/10/1
f 261/19/1 262/20/1 263/12/1 264/11/1
f 265/21/1 266/22/1 267/18/1 268/17/1
f 269/22/1 270/23/1 271/19/1 272/18/1
f 273/23/1 274/24/1 275/20/1 276/19/1
f 277/1/1 278/2/1 279/3/1 280/4/1
f 281/2/1 282/5/1 283/6/1 284/3/1
f 285/5/1 286/7/1 287/8/1 288/6/1
f 289/21/1 290/22/1 291/18/1 292/17/1
f 293/22/1 294/23/1 295/19/1 296/18/1
f 297/23/1 298/24/1 299/20/1 300/19/1
f 301/9/1 302/10/1 303/2/1 304/1/1
f 305/10/1 306/11/1 307/5/1 308/2/1
f 309/11/1 310/12/1 311/7/1 312/5/1
f 313/17/1 314/18/1 315/10/1 316/9/1
f 317/18/1 318/19/1 319/11/1 320/10/1
f 321/19/1 322/20/1 323/12/1 324/11/1
f 325/4/1 326/3/1 327/13/1 328/14/1
f 329/3/1 330/6/1 331/15/1 332/13/1
f 333/6/1 334/8/1 335/16/1 336/15/1
f 337/4/1 338/3/1 339/13/1 340/14/1
f 341/3/1 342/6/1 343/15/1 344/13/1
f 345/6/1 346/8/1 347/16/1 348/15/1
f 349/21/1 350/22/1 351/18/1 352/17/1
f 353/22/1 354/23/1 355/19/1 356/18/1
f 357/23/1 358/24/1 359/20/1 360/19/1
f 361/1/1 362/2/1 363/3/1 364/4/1
f 365/2/1 366/5/1 367/6/1 368/3/1
f 369/5/1 370/7/1 371/8/1 372/6/1
f 373/1/1 374/2/1 375/3/1 376/4/1
f 377/2/1 378/5/1 379/6/1 380/3/1
f 381/5/1 382/7/1 383/8/1 384/6/1
f 385/9/1 386/10/1 387/2/1 388/1/1
f 389/10/1 390/11/1 391/5/1 392/2/1
f 393/11/1 394/12/1 395/7/1 396/5/1
f 397/9/1 398/10/1 399/2/1 400/1/1
f 401/10/1 402/11/1 403/5/1 404/2/1
f 405/11/1 406/12/1 407/7/1 408/5/1
f 409/17/1 410/18/1 411/10/1 412/9/1
f 413/18/1 414/19/1 415/11/1 416/10/1
f 417/19/1 418/20/1 419/12/1 420/11/1
f 421/17/1 422/18/1 423/10/1 424/9/1
f 425/18/1 426/19/1 427/11/1 428/10/1
f 429/19/1 430/20/1 431/12/1 432/11/1
f 433/21/1 434/22/1 435/18/1 436/17/1
f 437/22/1 438/23/1 439/19/1 440/18/1
f 441/23/1 442/24/1 443/20/1 444/19/1
f 445/21/1 446/22/1 447/18/1 448/17/1
f 449/22/1 450/23/1 451/19/1 452/18/1
f 453/23/1 454/24/1 455/20/1 456/19/1
f 457/4/1 458/3/1 459/13/1 460/14/1
f 461/3/1 462/6/1 463/15/1 464/13/1
f 465/6/1 466/8/1 467/16/1 468/15/1
f 469/4/1 470/3/1 471/13/1 472/14/1
f 473/3/1 474/6/1 475/15/1 476/13/1
f 477/6/1 478/8/1 479/16/1 480/15/1
f 481/4/1 482/3/1 483/13/1 484/14/1
f 485/3/1 486/6/1 487/15/1 488/13/1
f 489/6/1 490/8/1 491/16/1 492/15/1
f 493/1/1 494/2/1 495/3/1 496/4/1
f 497/2/1 498/5/1 499/6/1 500/3/1
f 501/5/1 502/7/1 503/8/1 504/6/1
f 505/1/1 506/2/1 507/3/1 508/4/1
f 509/2/1 510/5/1 511/6/1 512/3/1
f 513/5/1 514/7/1 515/8/1 516/6/1
f 517/1/1 518/2/1 519/3/1 520/4/1
f 521/2/1 522/5/1 523/6/1 524/3/1
f 525/5/1 526/7/1 527/8/1 528/6/1
f 529/9/1 530/10/1 531/2/1 532/1/1
f 533/10/1 534/11/1 535/5/1 536/2/1
f 537/11/1 538/12/1 539/7/1 540/5/1
f 541/9/1 542/10/1 543/2/1 544/1/1
f 545/10/1 546/11/1 547/5/1 548/2/1
f 549/11/1 550/12/1 551/7/1 552/5/1
f 553/4/1 554/3/1 555/13/1 556/14/1
f 557/3/1 558/6/1 559/15/1 560/13/1
f 561/6/1 562/8/1 563/16/1 564/15/1
f 565/4/1 566/3/1 567/13/1 568/14/1
f 569/3/1 570/6/1 571/15/1 572/13/1
f 573/6/1 574/8/1 575/16/1 576/15/1
f 577/9/1 578/10/1 579/2/1 580/1/1
f 581/10/1 582/11/1 583/5/1 584/2/1
f 585/11/1 586/12/1 587/7/1 588/5/1
f 589/17/1 590/18/1 591/10/1 592/9/1
f 593/18/1 594/19/1 595/11/1 596/10/1
f 597/19/1 598/20/1 599/12/1 600/11/1
f 601/17/1 602/18/1 603/10/1 604/9/1
f 605/18/1 606/19/1 607/11/1 608/10/1
f 609/19/1 610/20/1 611/12/1 612/11/1
f 613/1/1 614/2/1 615/3/1 616/4/1
f 617/2/1 618/5/1 619/6/1 620/3/1
f 621/5/1 622/7/1 623/8/1 624/6/1
f 625/1/1 626/2/1 627/3/1 628/4/1
f 629/2/1 630/5/1 631/6/1 632/3/1
f 633/5/1 634/7/1 635/8/1 636/6/1
f 637/17/1 638/18/1 639/10/1 640/9/1
f 641/18/1 642/19/1 643/11/1 644/10/1
f 645/19/1 646/20/1 647/12/1 648/11/1
f 649/21/1 650/22/1 651/18/1 652/17/1
f 653/22/1 654/23/1 655/19/1 656/18/1
f 657/23/1 658/24/1 659/20/1 660/19/1
f 661/21/1 662/22/1 663/18/1 664/17/1
f 665/22/1 666/23/1 667/19/1 668/18/1
f 669/23/1 670/24/1 671/20/1 672/19/1
f 673/9/1 674/10/1 675/2/1 676/1/1
f 677/10/1 678/11/1 679/5/1 680/2/1
f 681/11/1 682/12/1 683/7/1 684/5/1
f 685/9/1 686/10/1 687/2/1 688/1/1
f 689/10/1 690/11/1 691/5/1 692/2/1
f 693/11/1 694/12/1 695/7/1 696/5/1
f 697/21/1 698/22/1 699/18/1 700/17/1
f 701/22/1 702/23/1 703/19/1 704/18/1
f 705/23/1 706/24/1 707/20/1 708/19/1
f 709/17/1 710/18/1 711/10/1 712/9/1
f 713/18/1 714/19/1 715/11/1 716/10/1
f 717/19/1 718/20/1 719/12/1 720/11/1
f 721/17/1 722/18/1 723/10/1 724/9/1
f 725/18/1 726/19/1 727/11/1 728/10/1
f 729/19/1 730/20/1 731/12/1 732/11/1
f 733/4/1 734/3/1 735/13/1 736/14/1
f 737/3/1 738/6/1 739/15/1 740/13/1
f 741/6/1 742/8/1 743/16/1 744/15/1
f 745/4/1 746/3/1 747/13/1 748/14/1
f 749/3/1 750/6/1 751/15/1 752/13/1
f 753/6/1 754/8/1 755/16/1 756/15/1
f 757/21/1 758/22/1 759/18/1 760/17/1
f 761/22/1 762/23/1 763/19/1 764/18/1
f 765/23/1 766/24/1 767/20/1 768/19/1
f 769/21/1 770/22/1 771/18/1 772/17/1
f 773/22/1 774/23/1 775/19/1 776/18/1
f 777/23/1 778/24/1 779/20/1 780/19/1
f 781/1/1 782/2/1 783/3/1 784/4/1
f 785/2/1 786/5/1 787/6/1 788/3/1
f 789/5/1 790/7/1 791/8/1 792/6/1
f 793/1/1 794/2/1 795/3/1 796/4/1
f 797/2/1 798/5/1 799/6/1 800/3/1
f 801/5/1 802/7/1 803/8/1 804/6/1
f 805/9/1 806/10/1 807/2/1 808/1/1
f 809/10/1 810/11/1 811/5/1 812/2/1
f 813/11/1 814/12/1 815/7/1 816/5/1
f 817/9/1 818/10/1 819/2/1 820/1/1
f 821/10/1 822/11/1 823/5/1 824/2/1
f 825/11/1 826/12/1 827/7/1 828/5/1
f 829/17/1 830/18/1 831/10/1 832/9/1
f 833/18/1 834/19/1 835/11/1 836/10/1
f 837/19/1 838/20/1 839/12/1 840/11/1
f 841/17/1 842/18/1 843/10/1 844/9/1
f 845/18/1 846/19/1 847/11/1 848/10/1
f 849/19/1 850/20/1 851/12/1 852/11/1
f 853/21/1 854/22/1 855/18/1 856/17/1
f 857/22/1 858/23/1 859/19/1 860/18/1
f 861/23/1 862/24/1 863/20/1 864/19/1
f 865/21/1 866/22/1 867/18/1 868/17/1
f 869/22/1 870/23/1 871/19/1 872/18/1
f 873/23/1 874/24/1 875/20/1 876/19/1

