# Tiled2Unity generated file. Do not modify by hand.
# Wavefront file for 'Village_mesh_0023.obj'

# Vertices (Count = 176)
v -1.6 -0.96 0
v -1.92 -0.96 0
v -1.92 -0.64 0
v -1.6 -0.64 0
v -1.92 -0.96 0
v -2.24 -0.96 0
v -2.24 -0.64 0
v -1.92 -0.64 0
v -1.6 -1.28 0
v -1.92 -1.28 0
v -1.92 -0.96 0
v -1.6 -0.96 0
v -1.92 -1.28 0
v -2.24 -1.28 0
v -2.24 -0.96 0
v -1.92 -0.96 0
v -2.24 -1.28 0
v -2.56 -1.28 0
v -2.56 -0.96 0
v -2.24 -0.96 0
v -2.56 -1.28 0
v -2.88 -1.28 0
v -2.88 -0.96 0
v -2.56 -0.96 0
v -2.24 -1.6 0
v -2.56 -1.6 0
v -2.56 -1.28 0
v -2.24 -1.28 0
v -2.56 -1.6 0
v -2.88 -1.6 0
v -2.88 -1.28 0
v -2.56 -1.28 0
v -1.6 -2.24 0
v -1.92 -2.24 0
v -1.92 -1.92 0
v -1.6 -1.92 0
v -1.92 -2.24 0
v -2.24 -2.24 0
v -2.24 -1.92 0
v -1.92 -1.92 0
v -1.6 -2.56 0
v -1.92 -2.56 0
v -1.92 -2.24 0
v -1.6 -2.24 0
v -1.92 -2.56 0
v -2.24 -2.56 0
v -2.24 -2.24 0
v -1.92 -2.24 0
v -1.92 -2.88 0
v -2.24 -2.88 0
v -2.24 -2.56 0
v -1.92 -2.56 0
v -2.24 -2.88 0
v -2.56 -2.88 0
v -2.56 -2.56 0
v -2.24 -2.56 0
v -1.92 -3.2 0
v -2.24 -3.2 0
v -2.24 -2.88 0
v -1.92 -2.88 0
v -2.24 -3.2 0
v -2.56 -3.2 0
v -2.56 -2.88 0
v -2.24 -2.88 0
v -1.6 -3.52 0
v -1.92 -3.52 0
v -1.92 -3.2 0
v -1.6 -3.2 0
v -1.92 -3.52 0
v -2.24 -3.52 0
v -2.24 -3.2 0
v -1.92 -3.2 0
v -1.6 -3.84 0
v -1.92 -3.84 0
v -1.92 -3.52 0
v -1.6 -3.52 0
v -1.92 -3.84 0
v -2.24 -3.84 0
v -2.24 -3.52 0
v -1.92 -3.52 0
v -1.6 -4.8 0
v -1.92 -4.8 0
v -1.92 -4.48 0
v -1.6 -4.48 0
v -1.92 -4.8 0
v -2.24 -4.8 0
v -2.24 -4.48 0
v -1.92 -4.48 0
v -1.6 -5.12 0
v -1.92 -5.12 0
v -1.92 -4.8 0
v -1.6 -4.8 0
v -1.92 -5.12 0
v -2.24 -5.12 0
v -2.24 -4.8 0
v -1.92 -4.8 0
v -1.6 -5.44 0
v -1.92 -5.44 0
v -1.92 -5.12 0
v -1.6 -5.12 0
v -1.92 -5.44 0
v -2.24 -5.44 0
v -2.24 -5.12 0
v -1.92 -5.12 0
v -1.6 -5.76 0
v -1.92 -5.76 0
v -1.92 -5.44 0
v -1.6 -5.44 0
v -1.92 -5.76 0
v -2.24 -5.76 0
v -2.24 -5.44 0
v -1.92 -5.44 0
v -1.6 -6.72 0
v -1.92 -6.72 0
v -1.92 -6.4 0
v -1.6 -6.4 0
v -1.92 -6.72 0
v -2.24 -6.72 0
v -2.24 -6.4 0
v -1.92 -6.4 0
v -1.6 -7.04 0
v -1.92 -7.04 0
v -1.92 -6.72 0
v -1.6 -6.72 0
v -1.92 -7.04 0
v -2.24 -7.04 0
v -2.24 -6.72 0
v -1.92 -6.72 0
v -1.6 -9.599999 0
v -1.92 -9.599999 0
v -1.92 -9.28 0
v -1.6 -9.28 0
v -1.92 -9.599999 0
v -2.24 -9.599999 0
v -2.24 -9.28 0
v -1.92 -9.28 0
v -1.6 -9.92 0
v -1.92 -9.92 0
v -1.92 -9.599999 0
v -1.6 -9.599999 0
v -1.92 -9.92 0
v -2.24 -9.92 0
v -2.24 -9.599999 0
v -1.92 -9.599999 0
v -1.6 -12.16 0
v -1.92 -12.16 0
v -1.92 -11.84 0
v -1.6 -11.84 0
v -1.92 -12.16 0
v -2.24 -12.16 0
v -2.24 -11.84 0
v -1.92 -11.84 0
v -1.6 -12.48 0
v -1.92 -12.48 0
v -1.92 -12.16 0
v -1.6 -12.16 0
v -1.92 -12.48 0
v -2.24 -12.48 0
v -2.24 -12.16 0
v -1.92 -12.16 0
v -1.28 -14.72 0
v -1.6 -14.72 0
v -1.6 -14.4 0
v -1.28 -14.4 0
v -1.6 -14.72 0
v -1.92 -14.72 0
v -1.92 -14.4 0
v -1.6 -14.4 0
v -1.28 -15.04 0
v -1.6 -15.04 0
v -1.6 -14.72 0
v -1.28 -14.72 0
v -1.6 -15.04 0
v -1.92 -15.04 0
v -1.92 -14.72 0
v -1.6 -14.72 0

# Texture cooridinates (Count = 9)
vt 0 0.5625
vt 0.0625 0.5625
vt 0.0625 0.625
vt 0 0.625
vt 0.125 0.5625
vt 0.125 0.625
vt 0 0.5
vt 0.0625 0.5
vt 0.125 0.5

# Normal
vn 0 0 -1

# Mesh description
g Village_mesh_0023

# Faces
f 1/1/1 2/2/1 3/3/1 4/4/1
f 5/2/1 6/5/1 7/6/1 8/3/1
f 9/7/1 10/8/1 11/2/1 12/1/1
f 13/8/1 14/9/1 15/5/1 16/2/1
f 17/1/1 18/2/1 19/3/1 20/4/1
f 21/2/1 22/5/1 23/6/1 24/3/1
f 25/7/1 26/8/1 27/2/1 28/1/1
f 29/8/1 30/9/1 31/5/1 32/2/1
f 33/1/1 34/2/1 35/3/1 36/4/1
f 37/2/1 38/5/1 39/6/1 40/3/1
f 41/7/1 42/8/1 43/2/1 44/1/1
f 45/8/1 46/9/1 47/5/1 48/2/1
f 49/1/1 50/2/1 51/3/1 52/4/1
f 53/2/1 54/5/1 55/6/1 56/3/1
f 57/7/1 58/8/1 59/2/1 60/1/1
f 61/8/1 62/9/1 63/5/1 64/2/1
f 65/1/1 66/2/1 67/3/1 68/4/1
f 69/2/1 70/5/1 71/6/1 72/3/1
f 73/7/1 74/8/1 75/2/1 76/1/1
f 77/8/1 78/9/1 79/5/1 80/2/1
f 81/1/1 82/2/1 83/3/1 84/4/1
f 85/2/1 86/5/1 87/6/1 88/3/1
f 89/7/1 90/8/1 91/2/1 92/1/1
f 93/8/1 94/9/1 95/5/1 96/2/1
f 97/1/1 98/2/1 99/3/1 100/4/1
f 101/2/1 102/5/1 103/6/1 104/3/1
f 105/7/1 106/8/1 107/2/1 108/1/1
f 109/8/1 110/9/1 111/5/1 112/2/1
f 113/1/1 114/2/1 115/3/1 116/4/1
f 117/2/1 118/5/1 119/6/1 120/3/1
f 121/7/1 122/8/1 123/2/1 124/1/1
f 125/8/1 126/9/1 127/5/1 128/2/1
f 129/1/1 130/2/1 131/3/1 132/4/1
f 133/2/1 134/5/1 135/6/1 136/3/1
f 137/7/1 138/8/1 139/2/1 140/1/1
f 141/8/1 142/9/1 143/5/1 144/2/1
f 145/1/1 146/2/1 147/3/1 148/4/1
f 149/2/1 150/5/1 151/6/1 152/3/1
f 153/7/1 154/8/1 155/2/1 156/1/1
f 157/8/1 158/9/1 159/5/1 160/2/1
f 161/1/1 162/2/1 163/3/1 164/4/1
f 165/2/1 166/5/1 167/6/1 168/3/1
f 169/7/1 170/8/1 171/2/1 172/1/1
f 173/8/1 174/9/1 175/5/1 176/2/1

