# Tiled2Unity generated file. Do not modify by hand.
# Wavefront file for 'Village_mesh_0003.obj'

# Vertices (Count = 288)
v -3.52 -2.24 0
v -3.84 -2.24 0
v -3.84 -1.92 0
v -3.52 -1.92 0
v -6.08 -2.24 0
v -6.4 -2.24 0
v -6.4 -1.92 0
v -6.08 -1.92 0
v -11.2 -2.88 0
v -11.52 -2.88 0
v -11.52 -2.56 0
v -11.2 -2.56 0
v -8 -3.2 0
v -8.32 -3.2 0
v -8.32 -2.88 0
v -8 -2.88 0
v -16.64 -3.2 0
v -16.96 -3.2 0
v -16.96 -2.88 0
v -16.64 -2.88 0
v -5.44 -3.52 0
v -5.76 -3.52 0
v -5.76 -3.2 0
v -5.44 -3.2 0
v -5.44 -3.84 0
v -5.76 -3.84 0
v -5.76 -3.52 0
v -5.44 -3.52 0
v -10.56 -3.84 0
v -10.88 -3.84 0
v -10.88 -3.52 0
v -10.56 -3.52 0
v -20.16 -3.84 0
v -20.48 -3.84 0
v -20.48 -3.52 0
v -20.16 -3.52 0
v -3.84 -4.48 0
v -4.16 -4.48 0
v -4.16 -4.16 0
v -3.84 -4.16 0
v -8.96 -4.48 0
v -9.28 -4.48 0
v -9.28 -4.16 0
v -8.96 -4.16 0
v -22.4 -4.48 0
v -22.72 -4.48 0
v -22.72 -4.16 0
v -22.4 -4.16 0
v -8.96 -4.8 0
v -9.28 -4.8 0
v -9.28 -4.48 0
v -8.96 -4.48 0
v -17.6 -4.8 0
v -17.92 -4.8 0
v -17.92 -4.48 0
v -17.6 -4.48 0
v -4.8 -5.12 0
v -5.12 -5.12 0
v -5.12 -4.8 0
v -4.8 -4.8 0
v -9.599999 -5.44 0
v -9.92 -5.44 0
v -9.92 -5.12 0
v -9.599999 -5.12 0
v -17.6 -5.44 0
v -17.92 -5.44 0
v -17.92 -5.12 0
v -17.6 -5.12 0
v -19.52 -5.44 0
v -19.84 -5.44 0
v -19.84 -5.12 0
v -19.52 -5.12 0
v -5.12 -5.76 0
v -5.44 -5.76 0
v -5.44 -5.44 0
v -5.12 -5.44 0
v -5.44 -5.76 0
v -5.76 -5.76 0
v -5.76 -5.44 0
v -5.44 -5.44 0
v -9.599999 -5.76 0
v -9.92 -5.76 0
v -9.92 -5.44 0
v -9.599999 -5.44 0
v -6.4 -6.08 0
v -6.72 -6.08 0
v -6.72 -5.76 0
v -6.4 -5.76 0
v -11.52 -6.08 0
v -11.84 -6.08 0
v -11.84 -5.76 0
v -11.52 -5.76 0
v -15.68 -6.4 0
v -16 -6.4 0
v -16 -6.08 0
v -15.68 -6.08 0
v -7.36 -7.04 0
v -7.68 -7.04 0
v -7.68 -6.72 0
v -7.36 -6.72 0
v -19.52 -7.04 0
v -19.84 -7.04 0
v -19.84 -6.72 0
v -19.52 -6.72 0
v -19.84 -7.04 0
v -20.16 -7.04 0
v -20.16 -6.72 0
v -19.84 -6.72 0
v -4.8 -7.36 0
v -5.12 -7.36 0
v -5.12 -7.04 0
v -4.8 -7.04 0
v -9.599999 -7.36 0
v -9.92 -7.36 0
v -9.92 -7.04 0
v -9.599999 -7.04 0
v -16.96 -7.68 0
v -17.28 -7.68 0
v -17.28 -7.36 0
v -16.96 -7.36 0
v -22.4 -7.68 0
v -22.72 -7.68 0
v -22.72 -7.36 0
v -22.4 -7.36 0
v -6.08 -8.32 0
v -6.4 -8.32 0
v -6.4 -8 0
v -6.08 -8 0
v -15.04 -8.32 0
v -15.36 -8.32 0
v -15.36 -8 0
v -15.04 -8 0
v -6.08 -8.639999 0
v -6.4 -8.639999 0
v -6.4 -8.32 0
v -6.08 -8.32 0
v -3.52 -8.96 0
v -3.84 -8.96 0
v -3.84 -8.639999 0
v -3.52 -8.639999 0
v -3.84 -8.96 0
v -4.16 -8.96 0
v -4.16 -8.639999 0
v -3.84 -8.639999 0
v -13.12 -8.96 0
v -13.44 -8.96 0
v -13.44 -8.639999 0
v -13.12 -8.639999 0
v -5.44 -9.92 0
v -5.76 -9.92 0
v -5.76 -9.599999 0
v -5.44 -9.599999 0
v -2.56 -10.56 0
v -2.88 -10.56 0
v -2.88 -10.24 0
v -2.56 -10.24 0
v -2.88 -10.56 0
v -3.2 -10.56 0
v -3.2 -10.24 0
v -2.88 -10.24 0
v -22.4 -10.88 0
v -22.72 -10.88 0
v -22.72 -10.56 0
v -22.4 -10.56 0
v -22.72 -11.84 0
v -23.04 -11.84 0
v -23.04 -11.52 0
v -22.72 -11.52 0
v -21.44 -12.48 0
v -21.76 -12.48 0
v -21.76 -12.16 0
v -21.44 -12.16 0
v -22.4 -13.44 0
v -22.72 -13.44 0
v -22.72 -13.12 0
v -22.4 -13.12 0
v -5.76 -14.72 0
v -6.08 -14.72 0
v -6.08 -14.4 0
v -5.76 -14.4 0
v -21.76 -14.72 0
v -22.08 -14.72 0
v -22.08 -14.4 0
v -21.76 -14.4 0
v -20.8 -15.36 0
v -21.12 -15.36 0
v -21.12 -15.04 0
v -20.8 -15.04 0
v -21.12 -15.36 0
v -21.44 -15.36 0
v -21.44 -15.04 0
v -21.12 -15.04 0
v -21.44 -15.36 0
v -21.76 -15.36 0
v -21.76 -15.04 0
v -21.44 -15.04 0
v -21.76 -15.36 0
v -22.08 -15.36 0
v -22.08 -15.04 0
v -21.76 -15.04 0
v -22.08 -15.36 0
v -22.4 -15.36 0
v -22.4 -15.04 0
v -22.08 -15.04 0
v -20.48 -15.68 0
v -20.8 -15.68 0
v -20.8 -15.36 0
v -20.48 -15.36 0
v -20.48 -16 0
v -20.8 -16 0
v -20.8 -15.68 0
v -20.48 -15.68 0
v -3.2 -16.32 0
v -3.52 -16.32 0
v -3.52 -16 0
v -3.2 -16 0
v -18.24 -16.32 0
v -18.56 -16.32 0
v -18.56 -16 0
v -18.24 -16 0
v -16 -16.64 0
v -16.32 -16.64 0
v -16.32 -16.32 0
v -16 -16.32 0
v -13.12 -16.96 0
v -13.44 -16.96 0
v -13.44 -16.64 0
v -13.12 -16.64 0
v -14.4 -16.96 0
v -14.72 -16.96 0
v -14.72 -16.64 0
v -14.4 -16.64 0
v -16 -16.96 0
v -16.32 -16.96 0
v -16.32 -16.64 0
v -16 -16.64 0
v -7.36 -17.28 0
v -7.68 -17.28 0
v -7.68 -16.96 0
v -7.36 -16.96 0
v -10.24 -17.28 0
v -10.56 -17.28 0
v -10.56 -16.96 0
v -10.24 -16.96 0
v -12.16 -17.6 0
v -12.48 -17.6 0
v -12.48 -17.28 0
v -12.16 -17.28 0
v -15.04 -17.6 0
v -15.36 -17.6 0
v -15.36 -17.28 0
v -15.04 -17.28 0
v -16.64 -17.6 0
v -16.96 -17.6 0
v -16.96 -17.28 0
v -16.64 -17.28 0
v -2.88 -17.92 0
v -3.2 -17.92 0
v -3.2 -17.6 0
v -2.88 -17.6 0
v -4.8 -18.24 0
v -5.12 -18.24 0
v -5.12 -17.92 0
v -4.8 -17.92 0
v -8.96 -18.24 0
v -9.28 -18.24 0
v -9.28 -17.92 0
v -8.96 -17.92 0
v -14.72 -18.24 0
v -15.04 -18.24 0
v -15.04 -17.92 0
v -14.72 -17.92 0
v -13.44 -18.88 0
v -13.76 -18.88 0
v -13.76 -18.56 0
v -13.44 -18.56 0
v -15.04 -18.88 0
v -15.36 -18.88 0
v -15.36 -18.56 0
v -15.04 -18.56 0
v -9.599999 -19.52 0
v -9.92 -19.52 0
v -9.92 -19.2 0
v -9.599999 -19.2 0
v -12.48 -19.52 0
v -12.8 -19.52 0
v -12.8 -19.2 0
v -12.48 -19.2 0

# Texture cooridinates (Count = 20)
vt 0.0625 0.875
vt 0.125 0.875
vt 0.125 0.9375
vt 0.0625 0.9375
vt 0 0.9375
vt 0.0625 1
vt 0 1
vt 0 0.875
vt 0.25 0.8125
vt 0.3125 0.8125
vt 0.3125 0.875
vt 0.25 0.875
vt 0.1875 0.875
vt 0.25 0.9375
vt 0.1875 0.9375
vt 0.125 0.8125
vt 0.1875 0.8125
vt 0.0625 0.8125
vt 0.3125 0.9375
vt 0 0.8125

# Normal
vn 0 0 -1

# Mesh description
g Village_mesh_0003

# Faces
f 1/1/1 2/2/1 3/3/1 4/4/1
f 5/5/1 6/4/1 7/6/1 8/7/1
f 9/1/1 10/2/1 11/3/1 12/4/1
f 13/8/1 14/1/1 15/4/1 16/5/1
f 17/9/1 18/10/1 19/11/1 20/12/1
f 21/5/1 22/4/1 23/6/1 24/7/1
f 25/5/1 26/4/1 27/6/1 28/7/1
f 29/5/1 30/4/1 31/6/1 32/7/1
f 33/8/1 34/1/1 35/4/1 36/5/1
f 37/5/1 38/4/1 39/6/1 40/7/1
f 41/5/1 42/4/1 43/6/1 44/7/1
f 45/5/1 46/4/1 47/6/1 48/7/1
f 49/5/1 50/4/1 51/6/1 52/7/1
f 53/5/1 54/4/1 55/6/1 56/7/1
f 57/1/1 58/2/1 59/3/1 60/4/1
f 61/5/1 62/4/1 63/6/1 64/7/1
f 65/13/1 66/12/1 67/14/1 68/15/1
f 69/5/1 70/4/1 71/6/1 72/7/1
f 73/5/1 74/4/1 75/6/1 76/7/1
f 77/5/1 78/4/1 79/6/1 80/7/1
f 81/5/1 82/4/1 83/6/1 84/7/1
f 85/5/1 86/4/1 87/6/1 88/7/1
f 89/16/1 90/17/1 91/13/1 92/2/1
f 93/5/1 94/4/1 95/6/1 96/7/1
f 97/9/1 98/10/1 99/11/1 100/12/1
f 101/2/1 102/13/1 103/15/1 104/3/1
f 105/5/1 106/4/1 107/6/1 108/7/1
f 109/5/1 110/4/1 111/6/1 112/7/1
f 113/5/1 114/4/1 115/6/1 116/7/1
f 117/5/1 118/4/1 119/6/1 120/7/1
f 121/16/1 122/17/1 123/13/1 124/2/1
f 125/5/1 126/4/1 127/6/1 128/7/1
f 129/1/1 130/2/1 131/3/1 132/4/1
f 133/5/1 134/4/1 135/6/1 136/7/1
f 137/5/1 138/4/1 139/6/1 140/7/1
f 141/5/1 142/4/1 143/6/1 144/7/1
f 145/18/1 146/16/1 147/2/1 148/1/1
f 149/18/1 150/16/1 151/2/1 152/1/1
f 153/5/1 154/4/1 155/6/1 156/7/1
f 157/12/1 158/11/1 159/19/1 160/14/1
f 161/1/1 162/2/1 163/3/1 164/4/1
f 165/5/1 166/4/1 167/6/1 168/7/1
f 169/16/1 170/17/1 171/13/1 172/2/1
f 173/5/1 174/4/1 175/6/1 176/7/1
f 177/1/1 178/2/1 179/3/1 180/4/1
f 181/1/1 182/2/1 183/3/1 184/4/1
f 185/5/1 186/4/1 187/6/1 188/7/1
f 189/5/1 190/4/1 191/6/1 192/7/1
f 193/5/1 194/4/1 195/6/1 196/7/1
f 197/5/1 198/4/1 199/6/1 200/7/1
f 201/5/1 202/4/1 203/6/1 204/7/1
f 205/5/1 206/4/1 207/6/1 208/7/1
f 209/5/1 210/4/1 211/6/1 212/7/1
f 213/18/1 214/16/1 215/2/1 216/1/1
f 217/12/1 218/11/1 219/19/1 220/14/1
f 221/17/1 222/9/1 223/12/1 224/13/1
f 225/9/1 226/10/1 227/11/1 228/12/1
f 229/5/1 230/4/1 231/6/1 232/7/1
f 233/5/1 234/4/1 235/6/1 236/7/1
f 237/17/1 238/9/1 239/12/1 240/13/1
f 241/2/1 242/13/1 243/15/1 244/3/1
f 245/17/1 246/9/1 247/12/1 248/13/1
f 249/5/1 250/4/1 251/6/1 252/7/1
f 253/5/1 254/4/1 255/6/1 256/7/1
f 257/5/1 258/4/1 259/6/1 260/7/1
f 261/20/1 262/18/1 263/1/1 264/8/1
f 265/12/1 266/11/1 267/19/1 268/14/1
f 269/5/1 270/4/1 271/6/1 272/7/1
f 273/5/1 274/4/1 275/6/1 276/7/1
f 277/16/1 278/17/1 279/13/1 280/2/1
f 281/16/1 282/17/1 283/13/1 284/2/1
f 285/16/1 286/17/1 287/13/1 288/2/1

