# Tiled2Unity generated file. Do not modify by hand.
# Wavefront file for 'Village_mesh_0028.obj'

# Vertices (Count = 576)
v -17.6 -11.52 0
v -17.92 -11.52 0
v -17.92 -11.2 0
v -17.6 -11.2 0
v -17.92 -11.52 0
v -18.24 -11.52 0
v -18.24 -11.2 0
v -17.92 -11.2 0
v -18.24 -11.52 0
v -18.56 -11.52 0
v -18.56 -11.2 0
v -18.24 -11.2 0
v -18.56 -11.52 0
v -18.88 -11.52 0
v -18.88 -11.2 0
v -18.56 -11.2 0
v -17.6 -11.84 0
v -17.92 -11.84 0
v -17.92 -11.52 0
v -17.6 -11.52 0
v -17.92 -11.84 0
v -18.24 -11.84 0
v -18.24 -11.52 0
v -17.92 -11.52 0
v -18.24 -11.84 0
v -18.56 -11.84 0
v -18.56 -11.52 0
v -18.24 -11.52 0
v -18.56 -11.84 0
v -18.88 -11.84 0
v -18.88 -11.52 0
v -18.56 -11.52 0
v -17.6 -12.16 0
v -17.92 -12.16 0
v -17.92 -11.84 0
v -17.6 -11.84 0
v -17.92 -12.16 0
v -18.24 -12.16 0
v -18.24 -11.84 0
v -17.92 -11.84 0
v -18.24 -12.16 0
v -18.56 -12.16 0
v -18.56 -11.84 0
v -18.24 -11.84 0
v -18.56 -12.16 0
v -18.88 -12.16 0
v -18.88 -11.84 0
v -18.56 -11.84 0
v -17.6 -12.48 0
v -17.92 -12.48 0
v -17.92 -12.16 0
v -17.6 -12.16 0
v -17.92 -12.48 0
v -18.24 -12.48 0
v -18.24 -12.16 0
v -17.92 -12.16 0
v -18.24 -12.48 0
v -18.56 -12.48 0
v -18.56 -12.16 0
v -18.24 -12.16 0
v -18.56 -12.48 0
v -18.88 -12.48 0
v -18.88 -12.16 0
v -18.56 -12.16 0
v -21.76 -18.88 0
v -22.08 -18.88 0
v -22.08 -18.56 0
v -21.76 -18.56 0
v -22.08 -18.88 0
v -22.4 -18.88 0
v -22.4 -18.56 0
v -22.08 -18.56 0
v -22.4 -18.88 0
v -22.72 -18.88 0
v -22.72 -18.56 0
v -22.4 -18.56 0
v -21.76 -19.2 0
v -22.08 -19.2 0
v -22.08 -18.88 0
v -21.76 -18.88 0
v -22.08 -19.2 0
v -22.4 -19.2 0
v -22.4 -18.88 0
v -22.08 -18.88 0
v -22.4 -19.2 0
v -22.72 -19.2 0
v -22.72 -18.88 0
v -22.4 -18.88 0
v -19.84 -19.52 0
v -20.16 -19.52 0
v -20.16 -19.2 0
v -19.84 -19.2 0
v -20.16 -19.52 0
v -20.48 -19.52 0
v -20.48 -19.2 0
v -20.16 -19.2 0
v -21.76 -19.52 0
v -22.08 -19.52 0
v -22.08 -19.2 0
v -21.76 -19.2 0
v -22.08 -19.52 0
v -22.4 -19.52 0
v -22.4 -19.2 0
v -22.08 -19.2 0
v -22.4 -19.52 0
v -22.72 -19.52 0
v -22.72 -19.2 0
v -22.4 -19.2 0
v -19.84 -19.84 0
v -20.16 -19.84 0
v -20.16 -19.52 0
v -19.84 -19.52 0
v -20.16 -19.84 0
v -20.48 -19.84 0
v -20.48 -19.52 0
v -20.16 -19.52 0
v -21.76 -19.84 0
v -22.08 -19.84 0
v -22.08 -19.52 0
v -21.76 -19.52 0
v -22.08 -19.84 0
v -22.4 -19.84 0
v -22.4 -19.52 0
v -22.08 -19.52 0
v -22.4 -19.84 0
v -22.72 -19.84 0
v -22.72 -19.52 0
v -22.4 -19.52 0
v -17.92 -20.16 0
v -18.24 -20.16 0
v -18.24 -19.84 0
v -17.92 -19.84 0
v -18.24 -20.16 0
v -18.56 -20.16 0
v -18.56 -19.84 0
v -18.24 -19.84 0
v -18.56 -20.16 0
v -18.88 -20.16 0
v -18.88 -19.84 0
v -18.56 -19.84 0
v -17.92 -20.48 0
v -18.24 -20.48 0
v -18.24 -20.16 0
v -17.92 -20.16 0
v -18.24 -20.48 0
v -18.56 -20.48 0
v -18.56 -20.16 0
v -18.24 -20.16 0
v -18.56 -20.48 0
v -18.88 -20.48 0
v -18.88 -20.16 0
v -18.56 -20.16 0
v -3.2 -20.8 0
v -3.52 -20.8 0
v -3.52 -20.48 0
v -3.2 -20.48 0
v -3.52 -20.8 0
v -3.84 -20.8 0
v -3.84 -20.48 0
v -3.52 -20.48 0
v -3.84 -20.8 0
v -4.16 -20.8 0
v -4.16 -20.48 0
v -3.84 -20.48 0
v -17.92 -20.8 0
v -18.24 -20.8 0
v -18.24 -20.48 0
v -17.92 -20.48 0
v -18.24 -20.8 0
v -18.56 -20.8 0
v -18.56 -20.48 0
v -18.24 -20.48 0
v -18.56 -20.8 0
v -18.88 -20.8 0
v -18.88 -20.48 0
v -18.56 -20.48 0
v -3.2 -21.12 0
v -3.52 -21.12 0
v -3.52 -20.8 0
v -3.2 -20.8 0
v -3.52 -21.12 0
v -3.84 -21.12 0
v -3.84 -20.8 0
v -3.52 -20.8 0
v -3.84 -21.12 0
v -4.16 -21.12 0
v -4.16 -20.8 0
v -3.84 -20.8 0
v -17.92 -21.12 0
v -18.24 -21.12 0
v -18.24 -20.8 0
v -17.92 -20.8 0
v -18.24 -21.12 0
v -18.56 -21.12 0
v -18.56 -20.8 0
v -18.24 -20.8 0
v -18.56 -21.12 0
v -18.88 -21.12 0
v -18.88 -20.8 0
v -18.56 -20.8 0
v -20.8 -21.12 0
v -21.12 -21.12 0
v -21.12 -20.8 0
v -20.8 -20.8 0
v -21.12 -21.12 0
v -21.44 -21.12 0
v -21.44 -20.8 0
v -21.12 -20.8 0
v -3.2 -21.44 0
v -3.52 -21.44 0
v -3.52 -21.12 0
v -3.2 -21.12 0
v -3.52 -21.44 0
v -3.84 -21.44 0
v -3.84 -21.12 0
v -3.52 -21.12 0
v -3.84 -21.44 0
v -4.16 -21.44 0
v -4.16 -21.12 0
v -3.84 -21.12 0
v -17.92 -21.44 0
v -18.24 -21.44 0
v -18.24 -21.12 0
v -17.92 -21.12 0
v -18.24 -21.44 0
v -18.56 -21.44 0
v -18.56 -21.12 0
v -18.24 -21.12 0
v -18.56 -21.44 0
v -18.88 -21.44 0
v -18.88 -21.12 0
v -18.56 -21.12 0
v -20.8 -21.44 0
v -21.12 -21.44 0
v -21.12 -21.12 0
v -20.8 -21.12 0
v -21.12 -21.44 0
v -21.44 -21.44 0
v -21.44 -21.12 0
v -21.12 -21.12 0
v -3.2 -21.76 0
v -3.52 -21.76 0
v -3.52 -21.44 0
v -3.2 -21.44 0
v -3.52 -21.76 0
v -3.84 -21.76 0
v -3.84 -21.44 0
v -3.52 -21.44 0
v -3.84 -21.76 0
v -4.16 -21.76 0
v -4.16 -21.44 0
v -3.84 -21.44 0
v -9.28 -21.76 0
v -9.599999 -21.76 0
v -9.599999 -21.44 0
v -9.28 -21.44 0
v -9.599999 -21.76 0
v -9.92 -21.76 0
v -9.92 -21.44 0
v -9.599999 -21.44 0
v -9.92 -21.76 0
v -10.24 -21.76 0
v -10.24 -21.44 0
v -9.92 -21.44 0
v -3.2 -22.08 0
v -3.52 -22.08 0
v -3.52 -21.76 0
v -3.2 -21.76 0
v -3.52 -22.08 0
v -3.84 -22.08 0
v -3.84 -21.76 0
v -3.52 -21.76 0
v -3.84 -22.08 0
v -4.16 -22.08 0
v -4.16 -21.76 0
v -3.84 -21.76 0
v -6.4 -22.08 0
v -6.72 -22.08 0
v -6.72 -21.76 0
v -6.4 -21.76 0
v -6.72 -22.08 0
v -7.04 -22.08 0
v -7.04 -21.76 0
v -6.72 -21.76 0
v -9.28 -22.08 0
v -9.599999 -22.08 0
v -9.599999 -21.76 0
v -9.28 -21.76 0
v -9.599999 -22.08 0
v -9.92 -22.08 0
v -9.92 -21.76 0
v -9.599999 -21.76 0
v -9.92 -22.08 0
v -10.24 -22.08 0
v -10.24 -21.76 0
v -9.92 -21.76 0
v -4.48 -22.4 0
v -4.8 -22.4 0
v -4.8 -22.08 0
v -4.48 -22.08 0
v -4.8 -22.4 0
v -5.12 -22.4 0
v -5.12 -22.08 0
v -4.8 -22.08 0
v -5.12 -22.4 0
v -5.44 -22.4 0
v -5.44 -22.08 0
v -5.12 -22.08 0
v -6.4 -22.4 0
v -6.72 -22.4 0
v -6.72 -22.08 0
v -6.4 -22.08 0
v -6.72 -22.4 0
v -7.04 -22.4 0
v -7.04 -22.08 0
v -6.72 -22.08 0
v -9.28 -22.4 0
v -9.599999 -22.4 0
v -9.599999 -22.08 0
v -9.28 -22.08 0
v -9.599999 -22.4 0
v -9.92 -22.4 0
v -9.92 -22.08 0
v -9.599999 -22.08 0
v -9.92 -22.4 0
v -10.24 -22.4 0
v -10.24 -22.08 0
v -9.92 -22.08 0
v -14.08 -22.4 0
v -14.4 -22.4 0
v -14.4 -22.08 0
v -14.08 -22.08 0
v -14.4 -22.4 0
v -14.72 -22.4 0
v -14.72 -22.08 0
v -14.4 -22.08 0
v -14.72 -22.4 0
v -15.04 -22.4 0
v -15.04 -22.08 0
v -14.72 -22.08 0
v -18.88 -22.4 0
v -19.2 -22.4 0
v -19.2 -22.08 0
v -18.88 -22.08 0
v -19.2 -22.4 0
v -19.52 -22.4 0
v -19.52 -22.08 0
v -19.2 -22.08 0
v -19.52 -22.4 0
v -19.84 -22.4 0
v -19.84 -22.08 0
v -19.52 -22.08 0
v -19.84 -22.4 0
v -20.16 -22.4 0
v -20.16 -22.08 0
v -19.84 -22.08 0
v -21.76 -22.4 0
v -22.08 -22.4 0
v -22.08 -22.08 0
v -21.76 -22.08 0
v -22.08 -22.4 0
v -22.4 -22.4 0
v -22.4 -22.08 0
v -22.08 -22.08 0
v -22.4 -22.4 0
v -22.72 -22.4 0
v -22.72 -22.08 0
v -22.4 -22.08 0
v -4.48 -22.72 0
v -4.8 -22.72 0
v -4.8 -22.4 0
v -4.48 -22.4 0
v -4.8 -22.72 0
v -5.12 -22.72 0
v -5.12 -22.4 0
v -4.8 -22.4 0
v -5.12 -22.72 0
v -5.44 -22.72 0
v -5.44 -22.4 0
v -5.12 -22.4 0
v -9.28 -22.72 0
v -9.599999 -22.72 0
v -9.599999 -22.4 0
v -9.28 -22.4 0
v -9.599999 -22.72 0
v -9.92 -22.72 0
v -9.92 -22.4 0
v -9.599999 -22.4 0
v -9.92 -22.72 0
v -10.24 -22.72 0
v -10.24 -22.4 0
v -9.92 -22.4 0
v -14.08 -22.72 0
v -14.4 -22.72 0
v -14.4 -22.4 0
v -14.08 -22.4 0
v -14.4 -22.72 0
v -14.72 -22.72 0
v -14.72 -22.4 0
v -14.4 -22.4 0
v -14.72 -22.72 0
v -15.04 -22.72 0
v -15.04 -22.4 0
v -14.72 -22.4 0
v -16.64 -22.72 0
v -16.96 -22.72 0
v -16.96 -22.4 0
v -16.64 -22.4 0
v -16.96 -22.72 0
v -17.28 -22.72 0
v -17.28 -22.4 0
v -16.96 -22.4 0
v -18.88 -22.72 0
v -19.2 -22.72 0
v -19.2 -22.4 0
v -18.88 -22.4 0
v -19.2 -22.72 0
v -19.52 -22.72 0
v -19.52 -22.4 0
v -19.2 -22.4 0
v -19.52 -22.72 0
v -19.84 -22.72 0
v -19.84 -22.4 0
v -19.52 -22.4 0
v -19.84 -22.72 0
v -20.16 -22.72 0
v -20.16 -22.4 0
v -19.84 -22.4 0
v -21.76 -22.72 0
v -22.08 -22.72 0
v -22.08 -22.4 0
v -21.76 -22.4 0
v -22.08 -22.72 0
v -22.4 -22.72 0
v -22.4 -22.4 0
v -22.08 -22.4 0
v -22.4 -22.72 0
v -22.72 -22.72 0
v -22.72 -22.4 0
v -22.4 -22.4 0
v -4.48 -23.04 0
v -4.8 -23.04 0
v -4.8 -22.72 0
v -4.48 -22.72 0
v -4.8 -23.04 0
v -5.12 -23.04 0
v -5.12 -22.72 0
v -4.8 -22.72 0
v -5.12 -23.04 0
v -5.44 -23.04 0
v -5.44 -22.72 0
v -5.12 -22.72 0
v -9.28 -23.04 0
v -9.599999 -23.04 0
v -9.599999 -22.72 0
v -9.28 -22.72 0
v -9.599999 -23.04 0
v -9.92 -23.04 0
v -9.92 -22.72 0
v -9.599999 -22.72 0
v -9.92 -23.04 0
v -10.24 -23.04 0
v -10.24 -22.72 0
v -9.92 -22.72 0
v -14.08 -23.04 0
v -14.4 -23.04 0
v -14.4 -22.72 0
v -14.08 -22.72 0
v -14.4 -23.04 0
v -14.72 -23.04 0
v -14.72 -22.72 0
v -14.4 -22.72 0
v -14.72 -23.04 0
v -15.04 -23.04 0
v -15.04 -22.72 0
v -14.72 -22.72 0
v -16.64 -23.04 0
v -16.96 -23.04 0
v -16.96 -22.72 0
v -16.64 -22.72 0
v -16.96 -23.04 0
v -17.28 -23.04 0
v -17.28 -22.72 0
v -16.96 -22.72 0
v -18.88 -23.04 0
v -19.2 -23.04 0
v -19.2 -22.72 0
v -18.88 -22.72 0
v -19.2 -23.04 0
v -19.52 -23.04 0
v -19.52 -22.72 0
v -19.2 -22.72 0
v -19.52 -23.04 0
v -19.84 -23.04 0
v -19.84 -22.72 0
v -19.52 -22.72 0
v -19.84 -23.04 0
v -20.16 -23.04 0
v -20.16 -22.72 0
v -19.84 -22.72 0
v -21.76 -23.04 0
v -22.08 -23.04 0
v -22.08 -22.72 0
v -21.76 -22.72 0
v -22.08 -23.04 0
v -22.4 -23.04 0
v -22.4 -22.72 0
v -22.08 -22.72 0
v -22.4 -23.04 0
v -22.72 -23.04 0
v -22.72 -22.72 0
v -22.4 -22.72 0
v -4.48 -23.36 0
v -4.8 -23.36 0
v -4.8 -23.04 0
v -4.48 -23.04 0
v -4.8 -23.36 0
v -5.12 -23.36 0
v -5.12 -23.04 0
v -4.8 -23.04 0
v -5.12 -23.36 0
v -5.44 -23.36 0
v -5.44 -23.04 0
v -5.12 -23.04 0
v -14.08 -23.36 0
v -14.4 -23.36 0
v -14.4 -23.04 0
v -14.08 -23.04 0
v -14.4 -23.36 0
v -14.72 -23.36 0
v -14.72 -23.04 0
v -14.4 -23.04 0
v -14.72 -23.36 0
v -15.04 -23.36 0
v -15.04 -23.04 0
v -14.72 -23.04 0
v -18.88 -23.36 0
v -19.2 -23.36 0
v -19.2 -23.04 0
v -18.88 -23.04 0
v -19.2 -23.36 0
v -19.52 -23.36 0
v -19.52 -23.04 0
v -19.2 -23.04 0
v -19.52 -23.36 0
v -19.84 -23.36 0
v -19.84 -23.04 0
v -19.52 -23.04 0
v -19.84 -23.36 0
v -20.16 -23.36 0
v -20.16 -23.04 0
v -19.84 -23.04 0
v -4.48 -23.68 0
v -4.8 -23.68 0
v -4.8 -23.36 0
v -4.48 -23.36 0
v -4.8 -23.68 0
v -5.12 -23.68 0
v -5.12 -23.36 0
v -4.8 -23.36 0
v -5.12 -23.68 0
v -5.44 -23.68 0
v -5.44 -23.36 0
v -5.12 -23.36 0
v -14.08 -23.68 0
v -14.4 -23.68 0
v -14.4 -23.36 0
v -14.08 -23.36 0
v -14.4 -23.68 0
v -14.72 -23.68 0
v -14.72 -23.36 0
v -14.4 -23.36 0
v -14.72 -23.68 0
v -15.04 -23.68 0
v -15.04 -23.36 0
v -14.72 -23.36 0

# Texture cooridinates (Count = 87)
vt 0.1538462 0.9230769
vt 0.2307692 0.9230769
vt 0.2307692 1
vt 0.1538462 1
vt 0.3076923 0.9230769
vt 0.3076923 1
vt 0.3846154 0.9230769
vt 0.3846154 1
vt 0.4615385 0.9230769
vt 0.4615385 1
vt 0.1538462 0.8461539
vt 0.2307692 0.8461539
vt 0.3076923 0.8461539
vt 0.3846154 0.8461539
vt 0.4615385 0.8461539
vt 0.1538462 0.7692308
vt 0.2307692 0.7692308
vt 0.3076923 0.7692308
vt 0.3846154 0.7692308
vt 0.4615385 0.7692308
vt 0.1538462 0.6923077
vt 0.2307692 0.6923077
vt 0.3076923 0.6923077
vt 0.3846154 0.6923077
vt 0.4615385 0.6923077
vt 0.5384616 0.9230769
vt 0.5384616 1
vt 0.6153846 0.9230769
vt 0.6153846 1
vt 0.6923077 0.9230769
vt 0.6923077 1
vt 0.5384616 0.8461539
vt 0.6153846 0.8461539
vt 0.6923077 0.8461539
vt 0.8461539 0.7692308
vt 0.9230769 0.7692308
vt 0.9230769 0.8461539
vt 0.8461539 0.8461539
vt 1 0.7692308
vt 1 0.8461539
vt 0.5384616 0.7692308
vt 0.6153846 0.7692308
vt 0.6923077 0.7692308
vt 0.8461539 0.6923077
vt 0.9230769 0.6923077
vt 1 0.6923077
vt 0.5384616 0.6923077
vt 0.6153846 0.6923077
vt 0.6923077 0.6923077
vt 0.4615385 0.6153846
vt 0.5384616 0.6153846
vt 0.6153846 0.6153846
vt 0.6923077 0.6153846
vt 0.4615385 0.5384616
vt 0.5384616 0.5384616
vt 0.6153846 0.5384616
vt 0.6923077 0.5384616
vt 0.4615385 0.4615384
vt 0.5384616 0.4615384
vt 0.6153846 0.4615384
vt 0.6923077 0.4615384
vt 0.4615385 0.3846154
vt 0.5384616 0.3846154
vt 0.6153846 0.3846154
vt 0.6923077 0.3846154
vt 0.4615385 0.3076923
vt 0.5384616 0.3076923
vt 0.6153846 0.3076923
vt 0.6923077 0.3076923
vt 0 0.4615384
vt 0.07692308 0.4615384
vt 0.07692308 0.5384616
vt 0 0.5384616
vt 0.1538462 0.4615384
vt 0.1538462 0.5384616
vt 0.2307692 0.4615384
vt 0.2307692 0.5384616
vt 0 0.3846154
vt 0.07692308 0.3846154
vt 0.07692308 0.6153846
vt 0 0.6153846
vt 0.1538462 0.3846154
vt 0.2307692 0.3846154
vt 0 0.3076923
vt 0.07692308 0.3076923
vt 0.1538462 0.3076923
vt 0.2307692 0.3076923

# Normal
vn 0 0 -1

# Mesh description
g Village_mesh_0028

# Faces
f 1/1/1 2/2/1 3/3/1 4/4/1
f 5/2/1 6/5/1 7/6/1 8/3/1
f 9/5/1 10/7/1 11/8/1 12/6/1
f 13/7/1 14/9/1 15/10/1 16/8/1
f 17/11/1 18/12/1 19/2/1 20/1/1
f 21/12/1 22/13/1 23/5/1 24/2/1
f 25/13/1 26/14/1 27/7/1 28/5/1
f 29/14/1 30/15/1 31/9/1 32/7/1
f 33/16/1 34/17/1 35/12/1 36/11/1
f 37/17/1 38/18/1 39/13/1 40/12/1
f 41/18/1 42/19/1 43/14/1 44/13/1
f 45/19/1 46/20/1 47/15/1 48/14/1
f 49/21/1 50/22/1 51/17/1 52/16/1
f 53/22/1 54/23/1 55/18/1 56/17/1
f 57/23/1 58/24/1 59/19/1 60/18/1
f 61/24/1 62/25/1 63/20/1 64/19/1
f 65/9/1 66/26/1 67/27/1 68/10/1
f 69/26/1 70/28/1 71/29/1 72/27/1
f 73/28/1 74/30/1 75/31/1 76/29/1
f 77/15/1 78/32/1 79/26/1 80/9/1
f 81/32/1 82/33/1 83/28/1 84/26/1
f 85/33/1 86/34/1 87/30/1 88/28/1
f 89/35/1 90/36/1 91/37/1 92/38/1
f 93/36/1 94/39/1 95/40/1 96/37/1
f 97/20/1 98/41/1 99/32/1 100/15/1
f 101/41/1 102/42/1 103/33/1 104/32/1
f 105/42/1 106/43/1 107/34/1 108/33/1
f 109/44/1 110/45/1 111/36/1 112/35/1
f 113/45/1 114/46/1 115/39/1 116/36/1
f 117/25/1 118/47/1 119/41/1 120/20/1
f 121/47/1 122/48/1 123/42/1 124/41/1
f 125/48/1 126/49/1 127/43/1 128/42/1
f 129/50/1 130/51/1 131/47/1 132/25/1
f 133/51/1 134/52/1 135/48/1 136/47/1
f 137/52/1 138/53/1 139/49/1 140/48/1
f 141/54/1 142/55/1 143/51/1 144/50/1
f 145/55/1 146/56/1 147/52/1 148/51/1
f 149/56/1 150/57/1 151/53/1 152/52/1
f 153/50/1 154/51/1 155/47/1 156/25/1
f 157/51/1 158/52/1 159/48/1 160/47/1
f 161/52/1 162/53/1 163/49/1 164/48/1
f 165/58/1 166/59/1 167/55/1 168/54/1
f 169/59/1 170/60/1 171/56/1 172/55/1
f 173/60/1 174/61/1 175/57/1 176/56/1
f 177/54/1 178/55/1 179/51/1 180/50/1
f 181/55/1 182/56/1 183/52/1 184/51/1
f 185/56/1 186/57/1 187/53/1 188/52/1
f 189/62/1 190/63/1 191/59/1 192/58/1
f 193/63/1 194/64/1 195/60/1 196/59/1
f 197/64/1 198/65/1 199/61/1 200/60/1
f 201/35/1 202/36/1 203/37/1 204/38/1
f 205/36/1 206/39/1 207/40/1 208/37/1
f 209/58/1 210/59/1 211/55/1 212/54/1
f 213/59/1 214/60/1 215/56/1 216/55/1
f 217/60/1 218/61/1 219/57/1 220/56/1
f 221/66/1 222/67/1 223/63/1 224/62/1
f 225/67/1 226/68/1 227/64/1 228/63/1
f 229/68/1 230/69/1 231/65/1 232/64/1
f 233/44/1 234/45/1 235/36/1 236/35/1
f 237/45/1 238/46/1 239/39/1 240/36/1
f 241/62/1 242/63/1 243/59/1 244/58/1
f 245/63/1 246/64/1 247/60/1 248/59/1
f 249/64/1 250/65/1 251/61/1 252/60/1
f 253/50/1 254/51/1 255/47/1 256/25/1
f 257/51/1 258/52/1 259/48/1 260/47/1
f 261/52/1 262/53/1 263/49/1 264/48/1
f 265/66/1 266/67/1 267/63/1 268/62/1
f 269/67/1 270/68/1 271/64/1 272/63/1
f 273/68/1 274/69/1 275/65/1 276/64/1
f 277/35/1 278/36/1 279/37/1 280/38/1
f 281/36/1 282/39/1 283/40/1 284/37/1
f 285/54/1 286/55/1 287/51/1 288/50/1
f 289/55/1 290/56/1 291/52/1 292/51/1
f 293/56/1 294/57/1 295/53/1 296/52/1
f 297/50/1 298/51/1 299/47/1 300/25/1
f 301/51/1 302/52/1 303/48/1 304/47/1
f 305/52/1 306/53/1 307/49/1 308/48/1
f 309/44/1 310/45/1 311/36/1 312/35/1
f 313/45/1 314/46/1 315/39/1 316/36/1
f 317/58/1 318/59/1 319/55/1 320/54/1
f 321/59/1 322/60/1 323/56/1 324/55/1
f 325/60/1 326/61/1 327/57/1 328/56/1
f 329/50/1 330/51/1 331/47/1 332/25/1
f 333/51/1 334/52/1 335/48/1 336/47/1
f 337/52/1 338/53/1 339/49/1 340/48/1
f 341/1/1 342/2/1 343/3/1 344/4/1
f 345/2/1 346/5/1 347/6/1 348/3/1
f 349/5/1 350/7/1 351/8/1 352/6/1
f 353/7/1 354/9/1 355/10/1 356/8/1
f 357/70/1 358/71/1 359/72/1 360/73/1
f 361/71/1 362/74/1 363/75/1 364/72/1
f 365/74/1 366/76/1 367/77/1 368/75/1
f 369/54/1 370/55/1 371/51/1 372/50/1
f 373/55/1 374/56/1 375/52/1 376/51/1
f 377/56/1 378/57/1 379/53/1 380/52/1
f 381/62/1 382/63/1 383/59/1 384/58/1
f 385/63/1 386/64/1 387/60/1 388/59/1
f 389/64/1 390/65/1 391/61/1 392/60/1
f 393/54/1 394/55/1 395/51/1 396/50/1
f 397/55/1 398/56/1 399/52/1 400/51/1
f 401/56/1 402/57/1 403/53/1 404/52/1
f 405/35/1 406/36/1 407/37/1 408/38/1
f 409/36/1 410/39/1 411/40/1 412/37/1
f 413/11/1 414/12/1 415/2/1 416/1/1
f 417/12/1 418/13/1 419/5/1 420/2/1
f 421/13/1 422/14/1 423/7/1 424/5/1
f 425/14/1 426/15/1 427/9/1 428/7/1
f 429/78/1 430/79/1 431/71/1 432/70/1
f 433/73/1 434/72/1 435/80/1 436/81/1
f 437/82/1 438/83/1 439/76/1 440/74/1
f 441/58/1 442/59/1 443/55/1 444/54/1
f 445/59/1 446/60/1 447/56/1 448/55/1
f 449/60/1 450/61/1 451/57/1 452/56/1
f 453/66/1 454/67/1 455/63/1 456/62/1
f 457/67/1 458/68/1 459/64/1 460/63/1
f 461/68/1 462/69/1 463/65/1 464/64/1
f 465/58/1 466/59/1 467/55/1 468/54/1
f 469/59/1 470/60/1 471/56/1 472/55/1
f 473/60/1 474/61/1 475/57/1 476/56/1
f 477/44/1 478/45/1 479/36/1 480/35/1
f 481/45/1 482/46/1 483/39/1 484/36/1
f 485/16/1 486/17/1 487/12/1 488/11/1
f 489/17/1 490/18/1 491/13/1 492/12/1
f 493/18/1 494/19/1 495/14/1 496/13/1
f 497/19/1 498/20/1 499/15/1 500/14/1
f 501/84/1 502/85/1 503/79/1 504/78/1
f 505/85/1 506/86/1 507/82/1 508/79/1
f 509/86/1 510/87/1 511/83/1 512/82/1
f 513/62/1 514/63/1 515/59/1 516/58/1
f 517/63/1 518/64/1 519/60/1 520/59/1
f 521/64/1 522/65/1 523/61/1 524/60/1
f 525/62/1 526/63/1 527/59/1 528/58/1
f 529/63/1 530/64/1 531/60/1 532/59/1
f 533/64/1 534/65/1 535/61/1 536/60/1
f 537/21/1 538/22/1 539/17/1 540/16/1
f 541/22/1 542/23/1 543/18/1 544/17/1
f 545/23/1 546/24/1 547/19/1 548/18/1
f 549/24/1 550/25/1 551/20/1 552/19/1
f 553/66/1 554/67/1 555/63/1 556/62/1
f 557/67/1 558/68/1 559/64/1 560/63/1
f 561/68/1 562/69/1 563/65/1 564/64/1
f 565/66/1 566/67/1 567/63/1 568/62/1
f 569/67/1 570/68/1 571/64/1 572/63/1
f 573/68/1 574/69/1 575/65/1 576/64/1

