# Tiled2Unity generated file. Do not modify by hand.
# Wavefront file for 'Shrine_mesh_0003.obj'

# Vertices (Count = 896)
v 0 -0.32 0
v -0.32 -0.32 0
v -0.32 0 0
v 0 0 0
v -0.32 -0.32 0
v -0.64 -0.32 0
v -0.64 0 0
v -0.32 0 0
v -0.64 -0.32 0
v -0.96 -0.32 0
v -0.96 0 0
v -0.64 0 0
v -0.96 -0.32 0
v -1.28 -0.32 0
v -1.28 0 0
v -0.96 0 0
v -1.28 -0.32 0
v -1.6 -0.32 0
v -1.6 0 0
v -1.28 0 0
v -1.6 -0.32 0
v -1.92 -0.32 0
v -1.92 0 0
v -1.6 0 0
v -1.92 -0.32 0
v -2.24 -0.32 0
v -2.24 0 0
v -1.92 0 0
v -2.24 -0.32 0
v -2.56 -0.32 0
v -2.56 0 0
v -2.24 0 0
v -2.56 -0.32 0
v -2.88 -0.32 0
v -2.88 0 0
v -2.56 0 0
v -2.88 -0.32 0
v -3.2 -0.32 0
v -3.2 0 0
v -2.88 0 0
v -3.2 -0.32 0
v -3.52 -0.32 0
v -3.52 0 0
v -3.2 0 0
v -3.52 -0.32 0
v -3.84 -0.32 0
v -3.84 0 0
v -3.52 0 0
v -3.84 -0.32 0
v -4.16 -0.32 0
v -4.16 0 0
v -3.84 0 0
v -4.16 -0.32 0
v -4.48 -0.32 0
v -4.48 0 0
v -4.16 0 0
v -4.48 -0.32 0
v -4.8 -0.32 0
v -4.8 0 0
v -4.48 0 0
v -4.8 -0.32 0
v -5.12 -0.32 0
v -5.12 0 0
v -4.8 0 0
v -5.12 -0.32 0
v -5.44 -0.32 0
v -5.44 0 0
v -5.12 0 0
v -5.44 -0.32 0
v -5.76 -0.32 0
v -5.76 0 0
v -5.44 0 0
v -5.76 -0.32 0
v -6.08 -0.32 0
v -6.08 0 0
v -5.76 0 0
v -6.08 -0.32 0
v -6.4 -0.32 0
v -6.4 0 0
v -6.08 0 0
v -6.4 -0.32 0
v -6.72 -0.32 0
v -6.72 0 0
v -6.4 0 0
v -6.72 -0.32 0
v -7.04 -0.32 0
v -7.04 0 0
v -6.72 0 0
v -7.04 -0.32 0
v -7.36 -0.32 0
v -7.36 0 0
v -7.04 0 0
v -7.36 -0.32 0
v -7.68 -0.32 0
v -7.68 0 0
v -7.36 0 0
v -7.68 -0.32 0
v -8 -0.32 0
v -8 0 0
v -7.68 0 0
v -8 -0.32 0
v -8.32 -0.32 0
v -8.32 0 0
v -8 0 0
v -8.32 -0.32 0
v -8.639999 -0.32 0
v -8.639999 0 0
v -8.32 0 0
v -8.639999 -0.32 0
v -8.96 -0.32 0
v -8.96 0 0
v -8.639999 0 0
v -8.96 -0.32 0
v -9.28 -0.32 0
v -9.28 0 0
v -8.96 0 0
v -9.28 -0.32 0
v -9.599999 -0.32 0
v -9.599999 0 0
v -9.28 0 0
v 0 -0.64 0
v -0.32 -0.64 0
v -0.32 -0.32 0
v 0 -0.32 0
v -0.32 -0.64 0
v -0.64 -0.64 0
v -0.64 -0.32 0
v -0.32 -0.32 0
v -0.64 -0.64 0
v -0.96 -0.64 0
v -0.96 -0.32 0
v -0.64 -0.32 0
v -0.96 -0.64 0
v -1.28 -0.64 0
v -1.28 -0.32 0
v -0.96 -0.32 0
v -1.28 -0.64 0
v -1.6 -0.64 0
v -1.6 -0.32 0
v -1.28 -0.32 0
v -1.6 -0.64 0
v -1.92 -0.64 0
v -1.92 -0.32 0
v -1.6 -0.32 0
v -1.92 -0.64 0
v -2.24 -0.64 0
v -2.24 -0.32 0
v -1.92 -0.32 0
v -2.24 -0.64 0
v -2.56 -0.64 0
v -2.56 -0.32 0
v -2.24 -0.32 0
v -2.56 -0.64 0
v -2.88 -0.64 0
v -2.88 -0.32 0
v -2.56 -0.32 0
v -2.88 -0.64 0
v -3.2 -0.64 0
v -3.2 -0.32 0
v -2.88 -0.32 0
v -3.2 -0.64 0
v -3.52 -0.64 0
v -3.52 -0.32 0
v -3.2 -0.32 0
v -3.52 -0.64 0
v -3.84 -0.64 0
v -3.84 -0.32 0
v -3.52 -0.32 0
v -3.84 -0.64 0
v -4.16 -0.64 0
v -4.16 -0.32 0
v -3.84 -0.32 0
v -4.16 -0.64 0
v -4.48 -0.64 0
v -4.48 -0.32 0
v -4.16 -0.32 0
v -4.48 -0.64 0
v -4.8 -0.64 0
v -4.8 -0.32 0
v -4.48 -0.32 0
v -4.8 -0.64 0
v -5.12 -0.64 0
v -5.12 -0.32 0
v -4.8 -0.32 0
v -5.12 -0.64 0
v -5.44 -0.64 0
v -5.44 -0.32 0
v -5.12 -0.32 0
v -5.44 -0.64 0
v -5.76 -0.64 0
v -5.76 -0.32 0
v -5.44 -0.32 0
v -5.76 -0.64 0
v -6.08 -0.64 0
v -6.08 -0.32 0
v -5.76 -0.32 0
v -6.08 -0.64 0
v -6.4 -0.64 0
v -6.4 -0.32 0
v -6.08 -0.32 0
v -6.4 -0.64 0
v -6.72 -0.64 0
v -6.72 -0.32 0
v -6.4 -0.32 0
v -6.72 -0.64 0
v -7.04 -0.64 0
v -7.04 -0.32 0
v -6.72 -0.32 0
v -7.04 -0.64 0
v -7.36 -0.64 0
v -7.36 -0.32 0
v -7.04 -0.32 0
v -7.36 -0.64 0
v -7.68 -0.64 0
v -7.68 -0.32 0
v -7.36 -0.32 0
v -7.68 -0.64 0
v -8 -0.64 0
v -8 -0.32 0
v -7.68 -0.32 0
v -8 -0.64 0
v -8.32 -0.64 0
v -8.32 -0.32 0
v -8 -0.32 0
v -8.32 -0.64 0
v -8.639999 -0.64 0
v -8.639999 -0.32 0
v -8.32 -0.32 0
v -8.639999 -0.64 0
v -8.96 -0.64 0
v -8.96 -0.32 0
v -8.639999 -0.32 0
v -8.96 -0.64 0
v -9.28 -0.64 0
v -9.28 -0.32 0
v -8.96 -0.32 0
v -9.28 -0.64 0
v -9.599999 -0.64 0
v -9.599999 -0.32 0
v -9.28 -0.32 0
v 0 -0.96 0
v -0.32 -0.96 0
v -0.32 -0.64 0
v 0 -0.64 0
v -0.32 -0.96 0
v -0.64 -0.96 0
v -0.64 -0.64 0
v -0.32 -0.64 0
v -8.96 -0.96 0
v -9.28 -0.96 0
v -9.28 -0.64 0
v -8.96 -0.64 0
v -9.28 -0.96 0
v -9.599999 -0.96 0
v -9.599999 -0.64 0
v -9.28 -0.64 0
v 0 -1.28 0
v -0.32 -1.28 0
v -0.32 -0.96 0
v 0 -0.96 0
v -0.32 -1.28 0
v -0.64 -1.28 0
v -0.64 -0.96 0
v -0.32 -0.96 0
v -8.96 -1.28 0
v -9.28 -1.28 0
v -9.28 -0.96 0
v -8.96 -0.96 0
v -9.28 -1.28 0
v -9.599999 -1.28 0
v -9.599999 -0.96 0
v -9.28 -0.96 0
v 0 -1.6 0
v -0.32 -1.6 0
v -0.32 -1.28 0
v 0 -1.28 0
v -0.32 -1.6 0
v -0.64 -1.6 0
v -0.64 -1.28 0
v -0.32 -1.28 0
v -8.96 -1.6 0
v -9.28 -1.6 0
v -9.28 -1.28 0
v -8.96 -1.28 0
v -9.28 -1.6 0
v -9.599999 -1.6 0
v -9.599999 -1.28 0
v -9.28 -1.28 0
v 0 -1.92 0
v -0.32 -1.92 0
v -0.32 -1.6 0
v 0 -1.6 0
v -0.32 -1.92 0
v -0.64 -1.92 0
v -0.64 -1.6 0
v -0.32 -1.6 0
v -8.96 -1.92 0
v -9.28 -1.92 0
v -9.28 -1.6 0
v -8.96 -1.6 0
v -9.28 -1.92 0
v -9.599999 -1.92 0
v -9.599999 -1.6 0
v -9.28 -1.6 0
v 0 -2.24 0
v -0.32 -2.24 0
v -0.32 -1.92 0
v 0 -1.92 0
v -0.32 -2.24 0
v -0.64 -2.24 0
v -0.64 -1.92 0
v -0.32 -1.92 0
v -8.96 -2.24 0
v -9.28 -2.24 0
v -9.28 -1.92 0
v -8.96 -1.92 0
v -9.28 -2.24 0
v -9.599999 -2.24 0
v -9.599999 -1.92 0
v -9.28 -1.92 0
v 0 -2.56 0
v -0.32 -2.56 0
v -0.32 -2.24 0
v 0 -2.24 0
v -0.32 -2.56 0
v -0.64 -2.56 0
v -0.64 -2.24 0
v -0.32 -2.24 0
v -8.96 -2.56 0
v -9.28 -2.56 0
v -9.28 -2.24 0
v -8.96 -2.24 0
v -9.28 -2.56 0
v -9.599999 -2.56 0
v -9.599999 -2.24 0
v -9.28 -2.24 0
v 0 -2.88 0
v -0.32 -2.88 0
v -0.32 -2.56 0
v 0 -2.56 0
v -0.32 -2.88 0
v -0.64 -2.88 0
v -0.64 -2.56 0
v -0.32 -2.56 0
v -8.96 -2.88 0
v -9.28 -2.88 0
v -9.28 -2.56 0
v -8.96 -2.56 0
v -9.28 -2.88 0
v -9.599999 -2.88 0
v -9.599999 -2.56 0
v -9.28 -2.56 0
v 0 -3.2 0
v -0.32 -3.2 0
v -0.32 -2.88 0
v 0 -2.88 0
v -0.32 -3.2 0
v -0.64 -3.2 0
v -0.64 -2.88 0
v -0.32 -2.88 0
v -8.96 -3.2 0
v -9.28 -3.2 0
v -9.28 -2.88 0
v -8.96 -2.88 0
v -9.28 -3.2 0
v -9.599999 -3.2 0
v -9.599999 -2.88 0
v -9.28 -2.88 0
v 0 -3.52 0
v -0.32 -3.52 0
v -0.32 -3.2 0
v 0 -3.2 0
v -0.32 -3.52 0
v -0.64 -3.52 0
v -0.64 -3.2 0
v -0.32 -3.2 0
v -8.96 -3.52 0
v -9.28 -3.52 0
v -9.28 -3.2 0
v -8.96 -3.2 0
v -9.28 -3.52 0
v -9.599999 -3.52 0
v -9.599999 -3.2 0
v -9.28 -3.2 0
v 0 -3.84 0
v -0.32 -3.84 0
v -0.32 -3.52 0
v 0 -3.52 0
v -0.32 -3.84 0
v -0.64 -3.84 0
v -0.64 -3.52 0
v -0.32 -3.52 0
v -8.96 -3.84 0
v -9.28 -3.84 0
v -9.28 -3.52 0
v -8.96 -3.52 0
v -9.28 -3.84 0
v -9.599999 -3.84 0
v -9.599999 -3.52 0
v -9.28 -3.52 0
v 0 -4.16 0
v -0.32 -4.16 0
v -0.32 -3.84 0
v 0 -3.84 0
v -0.32 -4.16 0
v -0.64 -4.16 0
v -0.64 -3.84 0
v -0.32 -3.84 0
v -8.96 -4.16 0
v -9.28 -4.16 0
v -9.28 -3.84 0
v -8.96 -3.84 0
v -9.28 -4.16 0
v -9.599999 -4.16 0
v -9.599999 -3.84 0
v -9.28 -3.84 0
v 0 -4.48 0
v -0.32 -4.48 0
v -0.32 -4.16 0
v 0 -4.16 0
v -0.32 -4.48 0
v -0.64 -4.48 0
v -0.64 -4.16 0
v -0.32 -4.16 0
v -8.96 -4.48 0
v -9.28 -4.48 0
v -9.28 -4.16 0
v -8.96 -4.16 0
v -9.28 -4.48 0
v -9.599999 -4.48 0
v -9.599999 -4.16 0
v -9.28 -4.16 0
v 0 -4.8 0
v -0.32 -4.8 0
v -0.32 -4.48 0
v 0 -4.48 0
v -0.32 -4.8 0
v -0.64 -4.8 0
v -0.64 -4.48 0
v -0.32 -4.48 0
v -8.96 -4.8 0
v -9.28 -4.8 0
v -9.28 -4.48 0
v -8.96 -4.48 0
v -9.28 -4.8 0
v -9.599999 -4.8 0
v -9.599999 -4.48 0
v -9.28 -4.48 0
v 0 -5.12 0
v -0.32 -5.12 0
v -0.32 -4.8 0
v 0 -4.8 0
v -0.32 -5.12 0
v -0.64 -5.12 0
v -0.64 -4.8 0
v -0.32 -4.8 0
v -8.96 -5.12 0
v -9.28 -5.12 0
v -9.28 -4.8 0
v -8.96 -4.8 0
v -9.28 -5.12 0
v -9.599999 -5.12 0
v -9.599999 -4.8 0
v -9.28 -4.8 0
v 0 -5.44 0
v -0.32 -5.44 0
v -0.32 -5.12 0
v 0 -5.12 0
v -0.32 -5.44 0
v -0.64 -5.44 0
v -0.64 -5.12 0
v -0.32 -5.12 0
v -8.96 -5.44 0
v -9.28 -5.44 0
v -9.28 -5.12 0
v -8.96 -5.12 0
v -9.28 -5.44 0
v -9.599999 -5.44 0
v -9.599999 -5.12 0
v -9.28 -5.12 0
v 0 -5.76 0
v -0.32 -5.76 0
v -0.32 -5.44 0
v 0 -5.44 0
v -0.32 -5.76 0
v -0.64 -5.76 0
v -0.64 -5.44 0
v -0.32 -5.44 0
v -8.96 -5.76 0
v -9.28 -5.76 0
v -9.28 -5.44 0
v -8.96 -5.44 0
v -9.28 -5.76 0
v -9.599999 -5.76 0
v -9.599999 -5.44 0
v -9.28 -5.44 0
v 0 -6.08 0
v -0.32 -6.08 0
v -0.32 -5.76 0
v 0 -5.76 0
v -0.32 -6.08 0
v -0.64 -6.08 0
v -0.64 -5.76 0
v -0.32 -5.76 0
v -8.96 -6.08 0
v -9.28 -6.08 0
v -9.28 -5.76 0
v -8.96 -5.76 0
v -9.28 -6.08 0
v -9.599999 -6.08 0
v -9.599999 -5.76 0
v -9.28 -5.76 0
v 0 -6.4 0
v -0.32 -6.4 0
v -0.32 -6.08 0
v 0 -6.08 0
v -0.32 -6.4 0
v -0.64 -6.4 0
v -0.64 -6.08 0
v -0.32 -6.08 0
v -8.96 -6.4 0
v -9.28 -6.4 0
v -9.28 -6.08 0
v -8.96 -6.08 0
v -9.28 -6.4 0
v -9.599999 -6.4 0
v -9.599999 -6.08 0
v -9.28 -6.08 0
v 0 -6.72 0
v -0.32 -6.72 0
v -0.32 -6.4 0
v 0 -6.4 0
v -0.32 -6.72 0
v -0.64 -6.72 0
v -0.64 -6.4 0
v -0.32 -6.4 0
v -8.96 -6.72 0
v -9.28 -6.72 0
v -9.28 -6.4 0
v -8.96 -6.4 0
v -9.28 -6.72 0
v -9.599999 -6.72 0
v -9.599999 -6.4 0
v -9.28 -6.4 0
v 0 -7.04 0
v -0.32 -7.04 0
v -0.32 -6.72 0
v 0 -6.72 0
v -0.32 -7.04 0
v -0.64 -7.04 0
v -0.64 -6.72 0
v -0.32 -6.72 0
v -8.96 -7.04 0
v -9.28 -7.04 0
v -9.28 -6.72 0
v -8.96 -6.72 0
v -9.28 -7.04 0
v -9.599999 -7.04 0
v -9.599999 -6.72 0
v -9.28 -6.72 0
v 0 -7.36 0
v -0.32 -7.36 0
v -0.32 -7.04 0
v 0 -7.04 0
v -0.32 -7.36 0
v -0.64 -7.36 0
v -0.64 -7.04 0
v -0.32 -7.04 0
v -8.96 -7.36 0
v -9.28 -7.36 0
v -9.28 -7.04 0
v -8.96 -7.04 0
v -9.28 -7.36 0
v -9.599999 -7.36 0
v -9.599999 -7.04 0
v -9.28 -7.04 0
v 0 -7.68 0
v -0.32 -7.68 0
v -0.32 -7.36 0
v 0 -7.36 0
v -0.32 -7.68 0
v -0.64 -7.68 0
v -0.64 -7.36 0
v -0.32 -7.36 0
v -8.96 -7.68 0
v -9.28 -7.68 0
v -9.28 -7.36 0
v -8.96 -7.36 0
v -9.28 -7.68 0
v -9.599999 -7.68 0
v -9.599999 -7.36 0
v -9.28 -7.36 0
v 0 -8 0
v -0.32 -8 0
v -0.32 -7.68 0
v 0 -7.68 0
v -0.32 -8 0
v -0.64 -8 0
v -0.64 -7.68 0
v -0.32 -7.68 0
v -8.96 -8 0
v -9.28 -8 0
v -9.28 -7.68 0
v -8.96 -7.68 0
v -9.28 -8 0
v -9.599999 -8 0
v -9.599999 -7.68 0
v -9.28 -7.68 0
v 0 -8.32 0
v -0.32 -8.32 0
v -0.32 -8 0
v 0 -8 0
v -0.32 -8.32 0
v -0.64 -8.32 0
v -0.64 -8 0
v -0.32 -8 0
v -8.96 -8.32 0
v -9.28 -8.32 0
v -9.28 -8 0
v -8.96 -8 0
v -9.28 -8.32 0
v -9.599999 -8.32 0
v -9.599999 -8 0
v -9.28 -8 0
v 0 -8.639999 0
v -0.32 -8.639999 0
v -0.32 -8.32 0
v 0 -8.32 0
v -0.32 -8.639999 0
v -0.64 -8.639999 0
v -0.64 -8.32 0
v -0.32 -8.32 0
v -8.96 -8.639999 0
v -9.28 -8.639999 0
v -9.28 -8.32 0
v -8.96 -8.32 0
v -9.28 -8.639999 0
v -9.599999 -8.639999 0
v -9.599999 -8.32 0
v -9.28 -8.32 0
v 0 -8.96 0
v -0.32 -8.96 0
v -0.32 -8.639999 0
v 0 -8.639999 0
v -0.32 -8.96 0
v -0.64 -8.96 0
v -0.64 -8.639999 0
v -0.32 -8.639999 0
v -8.96 -8.96 0
v -9.28 -8.96 0
v -9.28 -8.639999 0
v -8.96 -8.639999 0
v -9.28 -8.96 0
v -9.599999 -8.96 0
v -9.599999 -8.639999 0
v -9.28 -8.639999 0
v 0 -9.28 0
v -0.32 -9.28 0
v -0.32 -8.96 0
v 0 -8.96 0
v -0.32 -9.28 0
v -0.64 -9.28 0
v -0.64 -8.96 0
v -0.32 -8.96 0
v -0.64 -9.28 0
v -0.96 -9.28 0
v -0.96 -8.96 0
v -0.64 -8.96 0
v -0.96 -9.28 0
v -1.28 -9.28 0
v -1.28 -8.96 0
v -0.96 -8.96 0
v -1.28 -9.28 0
v -1.6 -9.28 0
v -1.6 -8.96 0
v -1.28 -8.96 0
v -1.6 -9.28 0
v -1.92 -9.28 0
v -1.92 -8.96 0
v -1.6 -8.96 0
v -1.92 -9.28 0
v -2.24 -9.28 0
v -2.24 -8.96 0
v -1.92 -8.96 0
v -2.24 -9.28 0
v -2.56 -9.28 0
v -2.56 -8.96 0
v -2.24 -8.96 0
v -2.56 -9.28 0
v -2.88 -9.28 0
v -2.88 -8.96 0
v -2.56 -8.96 0
v -2.88 -9.28 0
v -3.2 -9.28 0
v -3.2 -8.96 0
v -2.88 -8.96 0
v -3.2 -9.28 0
v -3.52 -9.28 0
v -3.52 -8.96 0
v -3.2 -8.96 0
v -3.52 -9.28 0
v -3.84 -9.28 0
v -3.84 -8.96 0
v -3.52 -8.96 0
v -3.84 -9.28 0
v -4.16 -9.28 0
v -4.16 -8.96 0
v -3.84 -8.96 0
v -4.16 -9.28 0
v -4.48 -9.28 0
v -4.48 -8.96 0
v -4.16 -8.96 0
v -4.48 -9.28 0
v -4.8 -9.28 0
v -4.8 -8.96 0
v -4.48 -8.96 0
v -4.8 -9.28 0
v -5.12 -9.28 0
v -5.12 -8.96 0
v -4.8 -8.96 0
v -5.12 -9.28 0
v -5.44 -9.28 0
v -5.44 -8.96 0
v -5.12 -8.96 0
v -5.44 -9.28 0
v -5.76 -9.28 0
v -5.76 -8.96 0
v -5.44 -8.96 0
v -5.76 -9.28 0
v -6.08 -9.28 0
v -6.08 -8.96 0
v -5.76 -8.96 0
v -6.08 -9.28 0
v -6.4 -9.28 0
v -6.4 -8.96 0
v -6.08 -8.96 0
v -6.4 -9.28 0
v -6.72 -9.28 0
v -6.72 -8.96 0
v -6.4 -8.96 0
v -6.72 -9.28 0
v -7.04 -9.28 0
v -7.04 -8.96 0
v -6.72 -8.96 0
v -7.04 -9.28 0
v -7.36 -9.28 0
v -7.36 -8.96 0
v -7.04 -8.96 0
v -7.36 -9.28 0
v -7.68 -9.28 0
v -7.68 -8.96 0
v -7.36 -8.96 0
v -7.68 -9.28 0
v -8 -9.28 0
v -8 -8.96 0
v -7.68 -8.96 0
v -8 -9.28 0
v -8.32 -9.28 0
v -8.32 -8.96 0
v -8 -8.96 0
v -8.32 -9.28 0
v -8.639999 -9.28 0
v -8.639999 -8.96 0
v -8.32 -8.96 0
v -8.639999 -9.28 0
v -8.96 -9.28 0
v -8.96 -8.96 0
v -8.639999 -8.96 0
v -8.96 -9.28 0
v -9.28 -9.28 0
v -9.28 -8.96 0
v -8.96 -8.96 0
v -9.28 -9.28 0
v -9.599999 -9.28 0
v -9.599999 -8.96 0
v -9.28 -8.96 0
v 0 -9.599999 0
v -0.32 -9.599999 0
v -0.32 -9.28 0
v 0 -9.28 0
v -0.32 -9.599999 0
v -0.64 -9.599999 0
v -0.64 -9.28 0
v -0.32 -9.28 0
v -0.64 -9.599999 0
v -0.96 -9.599999 0
v -0.96 -9.28 0
v -0.64 -9.28 0
v -0.96 -9.599999 0
v -1.28 -9.599999 0
v -1.28 -9.28 0
v -0.96 -9.28 0
v -1.28 -9.599999 0
v -1.6 -9.599999 0
v -1.6 -9.28 0
v -1.28 -9.28 0
v -1.6 -9.599999 0
v -1.92 -9.599999 0
v -1.92 -9.28 0
v -1.6 -9.28 0
v -1.92 -9.599999 0
v -2.24 -9.599999 0
v -2.24 -9.28 0
v -1.92 -9.28 0
v -2.24 -9.599999 0
v -2.56 -9.599999 0
v -2.56 -9.28 0
v -2.24 -9.28 0
v -2.56 -9.599999 0
v -2.88 -9.599999 0
v -2.88 -9.28 0
v -2.56 -9.28 0
v -2.88 -9.599999 0
v -3.2 -9.599999 0
v -3.2 -9.28 0
v -2.88 -9.28 0
v -3.2 -9.599999 0
v -3.52 -9.599999 0
v -3.52 -9.28 0
v -3.2 -9.28 0
v -3.52 -9.599999 0
v -3.84 -9.599999 0
v -3.84 -9.28 0
v -3.52 -9.28 0
v -3.84 -9.599999 0
v -4.16 -9.599999 0
v -4.16 -9.28 0
v -3.84 -9.28 0
v -4.16 -9.599999 0
v -4.48 -9.599999 0
v -4.48 -9.28 0
v -4.16 -9.28 0
v -4.48 -9.599999 0
v -4.8 -9.599999 0
v -4.8 -9.28 0
v -4.48 -9.28 0
v -4.8 -9.599999 0
v -5.12 -9.599999 0
v -5.12 -9.28 0
v -4.8 -9.28 0
v -5.12 -9.599999 0
v -5.44 -9.599999 0
v -5.44 -9.28 0
v -5.12 -9.28 0
v -5.44 -9.599999 0
v -5.76 -9.599999 0
v -5.76 -9.28 0
v -5.44 -9.28 0
v -5.76 -9.599999 0
v -6.08 -9.599999 0
v -6.08 -9.28 0
v -5.76 -9.28 0
v -6.08 -9.599999 0
v -6.4 -9.599999 0
v -6.4 -9.28 0
v -6.08 -9.28 0
v -6.4 -9.599999 0
v -6.72 -9.599999 0
v -6.72 -9.28 0
v -6.4 -9.28 0
v -6.72 -9.599999 0
v -7.04 -9.599999 0
v -7.04 -9.28 0
v -6.72 -9.28 0
v -7.04 -9.599999 0
v -7.36 -9.599999 0
v -7.36 -9.28 0
v -7.04 -9.28 0
v -7.36 -9.599999 0
v -7.68 -9.599999 0
v -7.68 -9.28 0
v -7.36 -9.28 0
v -7.68 -9.599999 0
v -8 -9.599999 0
v -8 -9.28 0
v -7.68 -9.28 0
v -8 -9.599999 0
v -8.32 -9.599999 0
v -8.32 -9.28 0
v -8 -9.28 0
v -8.32 -9.599999 0
v -8.639999 -9.599999 0
v -8.639999 -9.28 0
v -8.32 -9.28 0
v -8.639999 -9.599999 0
v -8.96 -9.599999 0
v -8.96 -9.28 0
v -8.639999 -9.28 0
v -8.96 -9.599999 0
v -9.28 -9.599999 0
v -9.28 -9.28 0
v -8.96 -9.28 0
v -9.28 -9.599999 0
v -9.599999 -9.599999 0
v -9.599999 -9.28 0
v -9.28 -9.28 0

# Texture cooridinates (Count = 19)
vt 0.08333334 0.7777778
vt 0.1666667 0.7777778
vt 0.1666667 0.8888889
vt 0.08333334 0.8888889
vt 0.3333333 0.7777778
vt 0.4166667 0.7777778
vt 0.4166667 0.8888889
vt 0.3333333 0.8888889
vt 0.08333334 0.6666666
vt 0.1666667 0.6666666
vt 0.25 0.7777778
vt 0.25 0.8888889
vt 0 0.7777778
vt 0 0.8888889
vt 0.4166667 1
vt 0.3333333 1
vt 0.1666667 1
vt 0.08333334 1
vt 0.25 1

# Normal
vn 0 0 -1

# Mesh description
g Shrine_mesh_0003

# Faces
f 1/1/1 2/2/1 3/3/1 4/4/1
f 5/1/1 6/2/1 7/3/1 8/4/1
f 9/1/1 10/2/1 11/3/1 12/4/1
f 13/1/1 14/2/1 15/3/1 16/4/1
f 17/1/1 18/2/1 19/3/1 20/4/1
f 21/1/1 22/2/1 23/3/1 24/4/1
f 25/1/1 26/2/1 27/3/1 28/4/1
f 29/1/1 30/2/1 31/3/1 32/4/1
f 33/1/1 34/2/1 35/3/1 36/4/1
f 37/1/1 38/2/1 39/3/1 40/4/1
f 41/1/1 42/2/1 43/3/1 44/4/1
f 45/1/1 46/2/1 47/3/1 48/4/1
f 49/1/1 50/2/1 51/3/1 52/4/1
f 53/1/1 54/2/1 55/3/1 56/4/1
f 57/1/1 58/2/1 59/3/1 60/4/1
f 61/1/1 62/2/1 63/3/1 64/4/1
f 65/1/1 66/2/1 67/3/1 68/4/1
f 69/1/1 70/2/1 71/3/1 72/4/1
f 73/1/1 74/2/1 75/3/1 76/4/1
f 77/1/1 78/2/1 79/3/1 80/4/1
f 81/1/1 82/2/1 83/3/1 84/4/1
f 85/1/1 86/2/1 87/3/1 88/4/1
f 89/1/1 90/2/1 91/3/1 92/4/1
f 93/1/1 94/2/1 95/3/1 96/4/1
f 97/1/1 98/2/1 99/3/1 100/4/1
f 101/1/1 102/2/1 103/3/1 104/4/1
f 105/1/1 106/2/1 107/3/1 108/4/1
f 109/1/1 110/2/1 111/3/1 112/4/1
f 113/1/1 114/2/1 115/3/1 116/4/1
f 117/1/1 118/2/1 119/3/1 120/4/1
f 121/1/1 122/2/1 123/3/1 124/4/1
f 125/5/1 126/6/1 127/7/1 128/8/1
f 129/9/1 130/10/1 131/2/1 132/1/1
f 133/9/1 134/10/1 135/2/1 136/1/1
f 137/9/1 138/10/1 139/2/1 140/1/1
f 141/9/1 142/10/1 143/2/1 144/1/1
f 145/9/1 146/10/1 147/2/1 148/1/1
f 149/9/1 150/10/1 151/2/1 152/1/1
f 153/9/1 154/10/1 155/2/1 156/1/1
f 157/9/1 158/10/1 159/2/1 160/1/1
f 161/9/1 162/10/1 163/2/1 164/1/1
f 165/9/1 166/10/1 167/2/1 168/1/1
f 169/9/1 170/10/1 171/2/1 172/1/1
f 173/9/1 174/10/1 175/2/1 176/1/1
f 177/9/1 178/10/1 179/2/1 180/1/1
f 181/9/1 182/10/1 183/2/1 184/1/1
f 185/9/1 186/10/1 187/2/1 188/1/1
f 189/9/1 190/10/1 191/2/1 192/1/1
f 193/9/1 194/10/1 195/2/1 196/1/1
f 197/9/1 198/10/1 199/2/1 200/1/1
f 201/9/1 202/10/1 203/2/1 204/1/1
f 205/9/1 206/10/1 207/2/1 208/1/1
f 209/9/1 210/10/1 211/2/1 212/1/1
f 213/9/1 214/10/1 215/2/1 216/1/1
f 217/9/1 218/10/1 219/2/1 220/1/1
f 221/9/1 222/10/1 223/2/1 224/1/1
f 225/9/1 226/10/1 227/2/1 228/1/1
f 229/9/1 230/10/1 231/2/1 232/1/1
f 233/11/1 234/5/1 235/8/1 236/12/1
f 237/1/1 238/2/1 239/3/1 240/4/1
f 241/1/1 242/2/1 243/3/1 244/4/1
f 245/2/1 246/11/1 247/12/1 248/3/1
f 249/13/1 250/1/1 251/4/1 252/14/1
f 253/1/1 254/2/1 255/3/1 256/4/1
f 257/1/1 258/2/1 259/3/1 260/4/1
f 261/2/1 262/11/1 263/12/1 264/3/1
f 265/13/1 266/1/1 267/4/1 268/14/1
f 269/1/1 270/2/1 271/3/1 272/4/1
f 273/1/1 274/2/1 275/3/1 276/4/1
f 277/2/1 278/11/1 279/12/1 280/3/1
f 281/13/1 282/1/1 283/4/1 284/14/1
f 285/1/1 286/2/1 287/3/1 288/4/1
f 289/1/1 290/2/1 291/3/1 292/4/1
f 293/2/1 294/11/1 295/12/1 296/3/1
f 297/13/1 298/1/1 299/4/1 300/14/1
f 301/1/1 302/2/1 303/3/1 304/4/1
f 305/1/1 306/2/1 307/3/1 308/4/1
f 309/2/1 310/11/1 311/12/1 312/3/1
f 313/13/1 314/1/1 315/4/1 316/14/1
f 317/1/1 318/2/1 319/3/1 320/4/1
f 321/1/1 322/2/1 323/3/1 324/4/1
f 325/2/1 326/11/1 327/12/1 328/3/1
f 329/13/1 330/1/1 331/4/1 332/14/1
f 333/1/1 334/2/1 335/3/1 336/4/1
f 337/1/1 338/2/1 339/3/1 340/4/1
f 341/2/1 342/11/1 343/12/1 344/3/1
f 345/13/1 346/1/1 347/4/1 348/14/1
f 349/1/1 350/2/1 351/3/1 352/4/1
f 353/1/1 354/2/1 355/3/1 356/4/1
f 357/2/1 358/11/1 359/12/1 360/3/1
f 361/13/1 362/1/1 363/4/1 364/14/1
f 365/1/1 366/2/1 367/3/1 368/4/1
f 369/1/1 370/2/1 371/3/1 372/4/1
f 373/2/1 374/11/1 375/12/1 376/3/1
f 377/13/1 378/1/1 379/4/1 380/14/1
f 381/1/1 382/2/1 383/3/1 384/4/1
f 385/1/1 386/2/1 387/3/1 388/4/1
f 389/2/1 390/11/1 391/12/1 392/3/1
f 393/13/1 394/1/1 395/4/1 396/14/1
f 397/1/1 398/2/1 399/3/1 400/4/1
f 401/1/1 402/2/1 403/3/1 404/4/1
f 405/2/1 406/11/1 407/12/1 408/3/1
f 409/13/1 410/1/1 411/4/1 412/14/1
f 413/1/1 414/2/1 415/3/1 416/4/1
f 417/1/1 418/2/1 419/3/1 420/4/1
f 421/2/1 422/11/1 423/12/1 424/3/1
f 425/13/1 426/1/1 427/4/1 428/14/1
f 429/1/1 430/2/1 431/3/1 432/4/1
f 433/1/1 434/2/1 435/3/1 436/4/1
f 437/2/1 438/11/1 439/12/1 440/3/1
f 441/13/1 442/1/1 443/4/1 444/14/1
f 445/1/1 446/2/1 447/3/1 448/4/1
f 449/1/1 450/2/1 451/3/1 452/4/1
f 453/2/1 454/11/1 455/12/1 456/3/1
f 457/13/1 458/1/1 459/4/1 460/14/1
f 461/1/1 462/2/1 463/3/1 464/4/1
f 465/1/1 466/2/1 467/3/1 468/4/1
f 469/2/1 470/11/1 471/12/1 472/3/1
f 473/13/1 474/1/1 475/4/1 476/14/1
f 477/1/1 478/2/1 479/3/1 480/4/1
f 481/1/1 482/2/1 483/3/1 484/4/1
f 485/2/1 486/11/1 487/12/1 488/3/1
f 489/13/1 490/1/1 491/4/1 492/14/1
f 493/1/1 494/2/1 495/3/1 496/4/1
f 497/1/1 498/2/1 499/3/1 500/4/1
f 501/2/1 502/11/1 503/12/1 504/3/1
f 505/13/1 506/1/1 507/4/1 508/14/1
f 509/1/1 510/2/1 511/3/1 512/4/1
f 513/1/1 514/2/1 515/3/1 516/4/1
f 517/2/1 518/11/1 519/12/1 520/3/1
f 521/13/1 522/1/1 523/4/1 524/14/1
f 525/1/1 526/2/1 527/3/1 528/4/1
f 529/1/1 530/2/1 531/3/1 532/4/1
f 533/2/1 534/11/1 535/12/1 536/3/1
f 537/13/1 538/1/1 539/4/1 540/14/1
f 541/1/1 542/2/1 543/3/1 544/4/1
f 545/1/1 546/2/1 547/3/1 548/4/1
f 549/2/1 550/11/1 551/12/1 552/3/1
f 553/13/1 554/1/1 555/4/1 556/14/1
f 557/1/1 558/2/1 559/3/1 560/4/1
f 561/1/1 562/2/1 563/3/1 564/4/1
f 565/2/1 566/11/1 567/12/1 568/3/1
f 569/13/1 570/1/1 571/4/1 572/14/1
f 573/1/1 574/2/1 575/3/1 576/4/1
f 577/1/1 578/2/1 579/3/1 580/4/1
f 581/2/1 582/11/1 583/12/1 584/3/1
f 585/13/1 586/1/1 587/4/1 588/14/1
f 589/1/1 590/2/1 591/3/1 592/4/1
f 593/1/1 594/2/1 595/3/1 596/4/1
f 597/2/1 598/11/1 599/12/1 600/3/1
f 601/13/1 602/1/1 603/4/1 604/14/1
f 605/1/1 606/2/1 607/3/1 608/4/1
f 609/1/1 610/2/1 611/3/1 612/4/1
f 613/2/1 614/11/1 615/12/1 616/3/1
f 617/13/1 618/1/1 619/4/1 620/14/1
f 621/1/1 622/2/1 623/3/1 624/4/1
f 625/1/1 626/2/1 627/3/1 628/4/1
f 629/2/1 630/11/1 631/12/1 632/3/1
f 633/13/1 634/1/1 635/4/1 636/14/1
f 637/1/1 638/2/1 639/3/1 640/4/1
f 641/1/1 642/2/1 643/3/1 644/4/1
f 645/2/1 646/11/1 647/12/1 648/3/1
f 649/13/1 650/1/1 651/4/1 652/14/1
f 653/1/1 654/2/1 655/3/1 656/4/1
f 657/1/1 658/2/1 659/3/1 660/4/1
f 661/8/1 662/7/1 663/15/1 664/16/1
f 665/4/1 666/3/1 667/17/1 668/18/1
f 669/4/1 670/3/1 671/17/1 672/18/1
f 673/4/1 674/3/1 675/17/1 676/18/1
f 677/4/1 678/3/1 679/17/1 680/18/1
f 681/4/1 682/3/1 683/17/1 684/18/1
f 685/4/1 686/3/1 687/17/1 688/18/1
f 689/4/1 690/3/1 691/17/1 692/18/1
f 693/4/1 694/3/1 695/17/1 696/18/1
f 697/4/1 698/3/1 699/17/1 700/18/1
f 701/4/1 702/3/1 703/17/1 704/18/1
f 705/4/1 706/3/1 707/17/1 708/18/1
f 709/4/1 710/3/1 711/17/1 712/18/1
f 713/4/1 714/3/1 715/17/1 716/18/1
f 717/4/1 718/3/1 719/17/1 720/18/1
f 721/4/1 722/3/1 723/17/1 724/18/1
f 725/4/1 726/3/1 727/17/1 728/18/1
f 729/4/1 730/3/1 731/17/1 732/18/1
f 733/4/1 734/3/1 735/17/1 736/18/1
f 737/4/1 738/3/1 739/17/1 740/18/1
f 741/4/1 742/3/1 743/17/1 744/18/1
f 745/4/1 746/3/1 747/17/1 748/18/1
f 749/4/1 750/3/1 751/17/1 752/18/1
f 753/4/1 754/3/1 755/17/1 756/18/1
f 757/4/1 758/3/1 759/17/1 760/18/1
f 761/4/1 762/3/1 763/17/1 764/18/1
f 765/4/1 766/3/1 767/17/1 768/18/1
f 769/12/1 770/8/1 771/16/1 772/19/1
f 773/1/1 774/2/1 775/3/1 776/4/1
f 777/1/1 778/2/1 779/3/1 780/4/1
f 781/1/1 782/2/1 783/3/1 784/4/1
f 785/1/1 786/2/1 787/3/1 788/4/1
f 789/1/1 790/2/1 791/3/1 792/4/1
f 793/1/1 794/2/1 795/3/1 796/4/1
f 797/1/1 798/2/1 799/3/1 800/4/1
f 801/1/1 802/2/1 803/3/1 804/4/1
f 805/1/1 806/2/1 807/3/1 808/4/1
f 809/1/1 810/2/1 811/3/1 812/4/1
f 813/1/1 814/2/1 815/3/1 816/4/1
f 817/1/1 818/2/1 819/3/1 820/4/1
f 821/1/1 822/2/1 823/3/1 824/4/1
f 825/1/1 826/2/1 827/3/1 828/4/1
f 829/1/1 830/2/1 831/3/1 832/4/1
f 833/1/1 834/2/1 835/3/1 836/4/1
f 837/1/1 838/2/1 839/3/1 840/4/1
f 841/1/1 842/2/1 843/3/1 844/4/1
f 845/1/1 846/2/1 847/3/1 848/4/1
f 849/1/1 850/2/1 851/3/1 852/4/1
f 853/1/1 854/2/1 855/3/1 856/4/1
f 857/1/1 858/2/1 859/3/1 860/4/1
f 861/1/1 862/2/1 863/3/1 864/4/1
f 865/1/1 866/2/1 867/3/1 868/4/1
f 869/1/1 870/2/1 871/3/1 872/4/1
f 873/1/1 874/2/1 875/3/1 876/4/1
f 877/1/1 878/2/1 879/3/1 880/4/1
f 881/1/1 882/2/1 883/3/1 884/4/1
f 885/1/1 886/2/1 887/3/1 888/4/1
f 889/1/1 890/2/1 891/3/1 892/4/1
f 893/1/1 894/2/1 895/3/1 896/4/1

