# Tiled2Unity generated file. Do not modify by hand.
# Wavefront file for 'test_mesh_0005.obj'

# Vertices (Count = 528)
v -0.96 -0.32 0
v -1.28 -0.32 0
v -1.28 0 0
v -0.96 0 0
v -1.28 -0.32 0
v -1.6 -0.32 0
v -1.6 0 0
v -1.28 0 0
v -1.6 -0.32 0
v -1.92 -0.32 0
v -1.92 0 0
v -1.6 0 0
v -2.88 -0.32 0
v -3.2 -0.32 0
v -3.2 0 0
v -2.88 0 0
v -3.2 -0.32 0
v -3.52 -0.32 0
v -3.52 0 0
v -3.2 0 0
v -3.52 -0.32 0
v -3.84 -0.32 0
v -3.84 0 0
v -3.52 0 0
v -5.76 -0.32 0
v -6.08 -0.32 0
v -6.08 0 0
v -5.76 0 0
v -6.08 -0.32 0
v -6.4 -0.32 0
v -6.4 0 0
v -6.08 0 0
v -6.4 -0.32 0
v -6.72 -0.32 0
v -6.72 0 0
v -6.4 0 0
v -7.68 -0.32 0
v -8 -0.32 0
v -8 0 0
v -7.68 0 0
v -8 -0.32 0
v -8.32 -0.32 0
v -8.32 0 0
v -8 0 0
v -8.32 -0.32 0
v -8.639999 -0.32 0
v -8.639999 0 0
v -8.32 0 0
v -0.96 -0.64 0
v -1.28 -0.64 0
v -1.28 -0.32 0
v -0.96 -0.32 0
v -1.28 -0.64 0
v -1.6 -0.64 0
v -1.6 -0.32 0
v -1.28 -0.32 0
v -1.6 -0.64 0
v -1.92 -0.64 0
v -1.92 -0.32 0
v -1.6 -0.32 0
v -2.88 -0.64 0
v -3.2 -0.64 0
v -3.2 -0.32 0
v -2.88 -0.32 0
v -3.2 -0.64 0
v -3.52 -0.64 0
v -3.52 -0.32 0
v -3.2 -0.32 0
v -3.52 -0.64 0
v -3.84 -0.64 0
v -3.84 -0.32 0
v -3.52 -0.32 0
v -5.76 -0.64 0
v -6.08 -0.64 0
v -6.08 -0.32 0
v -5.76 -0.32 0
v -6.08 -0.64 0
v -6.4 -0.64 0
v -6.4 -0.32 0
v -6.08 -0.32 0
v -6.4 -0.64 0
v -6.72 -0.64 0
v -6.72 -0.32 0
v -6.4 -0.32 0
v -7.68 -0.64 0
v -8 -0.64 0
v -8 -0.32 0
v -7.68 -0.32 0
v -8 -0.64 0
v -8.32 -0.64 0
v -8.32 -0.32 0
v -8 -0.32 0
v -8.32 -0.64 0
v -8.639999 -0.64 0
v -8.639999 -0.32 0
v -8.32 -0.32 0
v -2.88 -0.96 0
v -3.2 -0.96 0
v -3.2 -0.64 0
v -2.88 -0.64 0
v -3.2 -0.96 0
v -3.52 -0.96 0
v -3.52 -0.64 0
v -3.2 -0.64 0
v -3.52 -0.96 0
v -3.84 -0.96 0
v -3.84 -0.64 0
v -3.52 -0.64 0
v -7.68 -0.96 0
v -8 -0.96 0
v -8 -0.64 0
v -7.68 -0.64 0
v -8 -0.96 0
v -8.32 -0.96 0
v -8.32 -0.64 0
v -8 -0.64 0
v -8.32 -0.96 0
v -8.639999 -0.96 0
v -8.639999 -0.64 0
v -8.32 -0.64 0
v -0.32 -1.28 0
v -0.64 -1.28 0
v -0.64 -0.96 0
v -0.32 -0.96 0
v -0.64 -1.28 0
v -0.96 -1.28 0
v -0.96 -0.96 0
v -0.64 -0.96 0
v -0.96 -1.28 0
v -1.28 -1.28 0
v -1.28 -0.96 0
v -0.96 -0.96 0
v -2.88 -1.28 0
v -3.2 -1.28 0
v -3.2 -0.96 0
v -2.88 -0.96 0
v -3.2 -1.28 0
v -3.52 -1.28 0
v -3.52 -0.96 0
v -3.2 -0.96 0
v -3.52 -1.28 0
v -3.84 -1.28 0
v -3.84 -0.96 0
v -3.52 -0.96 0
v -0.32 -1.6 0
v -0.64 -1.6 0
v -0.64 -1.28 0
v -0.32 -1.28 0
v -0.64 -1.6 0
v -0.96 -1.6 0
v -0.96 -1.28 0
v -0.64 -1.28 0
v -0.96 -1.6 0
v -1.28 -1.6 0
v -1.28 -1.28 0
v -0.96 -1.28 0
v -4.8 -1.6 0
v -5.12 -1.6 0
v -5.12 -1.28 0
v -4.8 -1.28 0
v -5.12 -1.6 0
v -5.44 -1.6 0
v -5.44 -1.28 0
v -5.12 -1.28 0
v -5.44 -1.6 0
v -5.76 -1.6 0
v -5.76 -1.28 0
v -5.44 -1.28 0
v -0.32 -1.92 0
v -0.64 -1.92 0
v -0.64 -1.6 0
v -0.32 -1.6 0
v -0.64 -1.92 0
v -0.96 -1.92 0
v -0.96 -1.6 0
v -0.64 -1.6 0
v -0.96 -1.92 0
v -1.28 -1.92 0
v -1.28 -1.6 0
v -0.96 -1.6 0
v -4.8 -1.92 0
v -5.12 -1.92 0
v -5.12 -1.6 0
v -4.8 -1.6 0
v -5.12 -1.92 0
v -5.44 -1.92 0
v -5.44 -1.6 0
v -5.12 -1.6 0
v -5.44 -1.92 0
v -5.76 -1.92 0
v -5.76 -1.6 0
v -5.44 -1.6 0
v -4.8 -2.24 0
v -5.12 -2.24 0
v -5.12 -1.92 0
v -4.8 -1.92 0
v -5.12 -2.24 0
v -5.44 -2.24 0
v -5.44 -1.92 0
v -5.12 -1.92 0
v -5.44 -2.24 0
v -5.76 -2.24 0
v -5.76 -1.92 0
v -5.44 -1.92 0
v -1.92 -2.56 0
v -2.24 -2.56 0
v -2.24 -2.24 0
v -1.92 -2.24 0
v -2.24 -2.56 0
v -2.56 -2.56 0
v -2.56 -2.24 0
v -2.24 -2.24 0
v -2.56 -2.56 0
v -2.88 -2.56 0
v -2.88 -2.24 0
v -2.56 -2.24 0
v -3.52 -2.56 0
v -3.84 -2.56 0
v -3.84 -2.24 0
v -3.52 -2.24 0
v -3.84 -2.56 0
v -4.16 -2.56 0
v -4.16 -2.24 0
v -3.84 -2.24 0
v -4.16 -2.56 0
v -4.48 -2.56 0
v -4.48 -2.24 0
v -4.16 -2.24 0
v -1.92 -2.88 0
v -2.24 -2.88 0
v -2.24 -2.56 0
v -1.92 -2.56 0
v -2.24 -2.88 0
v -2.56 -2.88 0
v -2.56 -2.56 0
v -2.24 -2.56 0
v -2.56 -2.88 0
v -2.88 -2.88 0
v -2.88 -2.56 0
v -2.56 -2.56 0
v -3.52 -2.88 0
v -3.84 -2.88 0
v -3.84 -2.56 0
v -3.52 -2.56 0
v -3.84 -2.88 0
v -4.16 -2.88 0
v -4.16 -2.56 0
v -3.84 -2.56 0
v -4.16 -2.88 0
v -4.48 -2.88 0
v -4.48 -2.56 0
v -4.16 -2.56 0
v -1.92 -3.2 0
v -2.24 -3.2 0
v -2.24 -2.88 0
v -1.92 -2.88 0
v -2.24 -3.2 0
v -2.56 -3.2 0
v -2.56 -2.88 0
v -2.24 -2.88 0
v -2.56 -3.2 0
v -2.88 -3.2 0
v -2.88 -2.88 0
v -2.56 -2.88 0
v -3.52 -3.2 0
v -3.84 -3.2 0
v -3.84 -2.88 0
v -3.52 -2.88 0
v -3.84 -3.2 0
v -4.16 -3.2 0
v -4.16 -2.88 0
v -3.84 -2.88 0
v -4.16 -3.2 0
v -4.48 -3.2 0
v -4.48 -2.88 0
v -4.16 -2.88 0
v -0.32 -3.52 0
v -0.64 -3.52 0
v -0.64 -3.2 0
v -0.32 -3.2 0
v -0.64 -3.52 0
v -0.96 -3.52 0
v -0.96 -3.2 0
v -0.64 -3.2 0
v -0.96 -3.52 0
v -1.28 -3.52 0
v -1.28 -3.2 0
v -0.96 -3.2 0
v -3.52 -3.52 0
v -3.84 -3.52 0
v -3.84 -3.2 0
v -3.52 -3.2 0
v -3.84 -3.52 0
v -4.16 -3.52 0
v -4.16 -3.2 0
v -3.84 -3.2 0
v -4.16 -3.52 0
v -4.48 -3.52 0
v -4.48 -3.2 0
v -4.16 -3.2 0
v -0.32 -3.84 0
v -0.64 -3.84 0
v -0.64 -3.52 0
v -0.32 -3.52 0
v -0.64 -3.84 0
v -0.96 -3.84 0
v -0.96 -3.52 0
v -0.64 -3.52 0
v -0.96 -3.84 0
v -1.28 -3.84 0
v -1.28 -3.52 0
v -0.96 -3.52 0
v -0.32 -4.16 0
v -0.64 -4.16 0
v -0.64 -3.84 0
v -0.32 -3.84 0
v -0.64 -4.16 0
v -0.96 -4.16 0
v -0.96 -3.84 0
v -0.64 -3.84 0
v -0.96 -4.16 0
v -1.28 -4.16 0
v -1.28 -3.84 0
v -0.96 -3.84 0
v -0.32 -4.48 0
v -0.64 -4.48 0
v -0.64 -4.16 0
v -0.32 -4.16 0
v -0.64 -4.48 0
v -0.96 -4.48 0
v -0.96 -4.16 0
v -0.64 -4.16 0
v -0.96 -4.48 0
v -1.28 -4.48 0
v -1.28 -4.16 0
v -0.96 -4.16 0
v -7.36 -6.08 0
v -7.68 -6.08 0
v -7.68 -5.76 0
v -7.36 -5.76 0
v -7.68 -6.08 0
v -8 -6.08 0
v -8 -5.76 0
v -7.68 -5.76 0
v -8 -6.08 0
v -8.32 -6.08 0
v -8.32 -5.76 0
v -8 -5.76 0
v -7.36 -6.4 0
v -7.68 -6.4 0
v -7.68 -6.08 0
v -7.36 -6.08 0
v -7.68 -6.4 0
v -8 -6.4 0
v -8 -6.08 0
v -7.68 -6.08 0
v -8 -6.4 0
v -8.32 -6.4 0
v -8.32 -6.08 0
v -8 -6.08 0
v -7.36 -6.72 0
v -7.68 -6.72 0
v -7.68 -6.4 0
v -7.36 -6.4 0
v -7.68 -6.72 0
v -8 -6.72 0
v -8 -6.4 0
v -7.68 -6.4 0
v -8 -6.72 0
v -8.32 -6.72 0
v -8.32 -6.4 0
v -8 -6.4 0
v -4.8 -7.04 0
v -5.12 -7.04 0
v -5.12 -6.72 0
v -4.8 -6.72 0
v -5.12 -7.04 0
v -5.44 -7.04 0
v -5.44 -6.72 0
v -5.12 -6.72 0
v -5.44 -7.04 0
v -5.76 -7.04 0
v -5.76 -6.72 0
v -5.44 -6.72 0
v -7.36 -7.04 0
v -7.68 -7.04 0
v -7.68 -6.72 0
v -7.36 -6.72 0
v -7.68 -7.04 0
v -8 -7.04 0
v -8 -6.72 0
v -7.68 -6.72 0
v -8 -7.04 0
v -8.32 -7.04 0
v -8.32 -6.72 0
v -8 -6.72 0
v -4.8 -7.36 0
v -5.12 -7.36 0
v -5.12 -7.04 0
v -4.8 -7.04 0
v -5.12 -7.36 0
v -5.44 -7.36 0
v -5.44 -7.04 0
v -5.12 -7.04 0
v -5.44 -7.36 0
v -5.76 -7.36 0
v -5.76 -7.04 0
v -5.44 -7.04 0
v -3.2 -7.68 0
v -3.52 -7.68 0
v -3.52 -7.36 0
v -3.2 -7.36 0
v -3.52 -7.68 0
v -3.84 -7.68 0
v -3.84 -7.36 0
v -3.52 -7.36 0
v -3.84 -7.68 0
v -4.16 -7.68 0
v -4.16 -7.36 0
v -3.84 -7.36 0
v -4.8 -7.68 0
v -5.12 -7.68 0
v -5.12 -7.36 0
v -4.8 -7.36 0
v -5.12 -7.68 0
v -5.44 -7.68 0
v -5.44 -7.36 0
v -5.12 -7.36 0
v -5.44 -7.68 0
v -5.76 -7.68 0
v -5.76 -7.36 0
v -5.44 -7.36 0
v -6.72 -7.68 0
v -7.04 -7.68 0
v -7.04 -7.36 0
v -6.72 -7.36 0
v -7.04 -7.68 0
v -7.36 -7.68 0
v -7.36 -7.36 0
v -7.04 -7.36 0
v -7.36 -7.68 0
v -7.68 -7.68 0
v -7.68 -7.36 0
v -7.36 -7.36 0
v -3.2 -8 0
v -3.52 -8 0
v -3.52 -7.68 0
v -3.2 -7.68 0
v -3.52 -8 0
v -3.84 -8 0
v -3.84 -7.68 0
v -3.52 -7.68 0
v -3.84 -8 0
v -4.16 -8 0
v -4.16 -7.68 0
v -3.84 -7.68 0
v -4.8 -8 0
v -5.12 -8 0
v -5.12 -7.68 0
v -4.8 -7.68 0
v -5.12 -8 0
v -5.44 -8 0
v -5.44 -7.68 0
v -5.12 -7.68 0
v -5.44 -8 0
v -5.76 -8 0
v -5.76 -7.68 0
v -5.44 -7.68 0
v -6.72 -8 0
v -7.04 -8 0
v -7.04 -7.68 0
v -6.72 -7.68 0
v -7.04 -8 0
v -7.36 -8 0
v -7.36 -7.68 0
v -7.04 -7.68 0
v -7.36 -8 0
v -7.68 -8 0
v -7.68 -7.68 0
v -7.36 -7.68 0
v -3.2 -8.32 0
v -3.52 -8.32 0
v -3.52 -8 0
v -3.2 -8 0
v -3.52 -8.32 0
v -3.84 -8.32 0
v -3.84 -8 0
v -3.52 -8 0
v -3.84 -8.32 0
v -4.16 -8.32 0
v -4.16 -8 0
v -3.84 -8 0
v -6.72 -8.32 0
v -7.04 -8.32 0
v -7.04 -8 0
v -6.72 -8 0
v -7.04 -8.32 0
v -7.36 -8.32 0
v -7.36 -8 0
v -7.04 -8 0
v -7.36 -8.32 0
v -7.68 -8.32 0
v -7.68 -8 0
v -7.36 -8 0
v -3.2 -8.639999 0
v -3.52 -8.639999 0
v -3.52 -8.32 0
v -3.2 -8.32 0
v -3.52 -8.639999 0
v -3.84 -8.639999 0
v -3.84 -8.32 0
v -3.52 -8.32 0
v -3.84 -8.639999 0
v -4.16 -8.639999 0
v -4.16 -8.32 0
v -3.84 -8.32 0
v -6.72 -8.639999 0
v -7.04 -8.639999 0
v -7.04 -8.32 0
v -6.72 -8.32 0
v -7.04 -8.639999 0
v -7.36 -8.639999 0
v -7.36 -8.32 0
v -7.04 -8.32 0
v -7.36 -8.639999 0
v -7.68 -8.639999 0
v -7.68 -8.32 0
v -7.36 -8.32 0

# Texture cooridinates (Count = 32)
vt 0.5 0.1428571
vt 0.6666667 0.1428571
vt 0.6666667 0.2857143
vt 0.5 0.2857143
vt 0.8333333 0.1428571
vt 0.8333333 0.2857143
vt 1 0.1428571
vt 1 0.2857143
vt 0.5 0.4285714
vt 0.6666667 0.4285714
vt 0.6666667 0.5714285
vt 0.5 0.5714285
vt 0.8333333 0.4285714
vt 0.8333333 0.5714285
vt 1 0.4285714
vt 1 0.5714285
vt 0 0.2857143
vt 0.1666667 0.2857143
vt 0.1666667 0.4285714
vt 0 0.4285714
vt 0.3333333 0.2857143
vt 0.3333333 0.4285714
vt 0.5 0
vt 0.6666667 0
vt 0.8333333 0
vt 1 0
vt 0 0.1428571
vt 0.1666667 0.1428571
vt 0.3333333 0.1428571
vt 0.1666667 0.5714285
vt 0 0.5714285
vt 0.3333333 0.5714285

# Normal
vn 0 0 -1

# Mesh description
g test_mesh_0005

# Faces
f 1/1/1 2/2/1 3/3/1 4/4/1
f 5/2/1 6/5/1 7/6/1 8/3/1
f 9/5/1 10/7/1 11/8/1 12/6/1
f 13/9/1 14/10/1 15/11/1 16/12/1
f 17/10/1 18/13/1 19/14/1 20/11/1
f 21/13/1 22/15/1 23/16/1 24/14/1
f 25/17/1 26/18/1 27/19/1 28/20/1
f 29/18/1 30/21/1 31/22/1 32/19/1
f 33/21/1 34/4/1 35/9/1 36/22/1
f 37/4/1 38/3/1 39/10/1 40/9/1
f 41/3/1 42/6/1 43/13/1 44/10/1
f 45/6/1 46/8/1 47/15/1 48/13/1
f 49/23/1 50/24/1 51/2/1 52/1/1
f 53/24/1 54/25/1 55/5/1 56/2/1
f 57/25/1 58/26/1 59/7/1 60/5/1
f 61/4/1 62/3/1 63/10/1 64/9/1
f 65/3/1 66/6/1 67/13/1 68/10/1
f 69/6/1 70/8/1 71/15/1 72/13/1
f 73/27/1 74/28/1 75/18/1 76/17/1
f 77/28/1 78/29/1 79/21/1 80/18/1
f 81/29/1 82/1/1 83/4/1 84/21/1
f 85/1/1 86/2/1 87/3/1 88/4/1
f 89/2/1 90/5/1 91/6/1 92/3/1
f 93/5/1 94/7/1 95/8/1 96/6/1
f 97/1/1 98/2/1 99/3/1 100/4/1
f 101/2/1 102/5/1 103/6/1 104/3/1
f 105/5/1 106/7/1 107/8/1 108/6/1
f 109/23/1 110/24/1 111/2/1 112/1/1
f 113/24/1 114/25/1 115/5/1 116/2/1
f 117/25/1 118/26/1 119/7/1 120/5/1
f 121/20/1 122/19/1 123/30/1 124/31/1
f 125/19/1 126/22/1 127/32/1 128/30/1
f 129/22/1 130/9/1 131/12/1 132/32/1
f 133/23/1 134/24/1 135/2/1 136/1/1
f 137/24/1 138/25/1 139/5/1 140/2/1
f 141/25/1 142/26/1 143/7/1 144/5/1
f 145/17/1 146/18/1 147/19/1 148/20/1
f 149/18/1 150/21/1 151/22/1 152/19/1
f 153/21/1 154/4/1 155/9/1 156/22/1
f 157/20/1 158/19/1 159/30/1 160/31/1
f 161/19/1 162/22/1 163/32/1 164/30/1
f 165/22/1 166/9/1 167/12/1 168/32/1
f 169/27/1 170/28/1 171/18/1 172/17/1
f 173/28/1 174/29/1 175/21/1 176/18/1
f 177/29/1 178/1/1 179/4/1 180/21/1
f 181/17/1 182/18/1 183/19/1 184/20/1
f 185/18/1 186/21/1 187/22/1 188/19/1
f 189/21/1 190/4/1 191/9/1 192/22/1
f 193/27/1 194/28/1 195/18/1 196/17/1
f 197/28/1 198/29/1 199/21/1 200/18/1
f 201/29/1 202/1/1 203/4/1 204/21/1
f 205/20/1 206/19/1 207/30/1 208/31/1
f 209/19/1 210/22/1 211/32/1 212/30/1
f 213/22/1 214/9/1 215/12/1 216/32/1
f 217/9/1 218/10/1 219/11/1 220/12/1
f 221/10/1 222/13/1 223/14/1 224/11/1
f 225/13/1 226/15/1 227/16/1 228/14/1
f 229/17/1 230/18/1 231/19/1 232/20/1
f 233/18/1 234/21/1 235/22/1 236/19/1
f 237/21/1 238/4/1 239/9/1 240/22/1
f 241/4/1 242/3/1 243/10/1 244/9/1
f 245/3/1 246/6/1 247/13/1 248/10/1
f 249/6/1 250/8/1 251/15/1 252/13/1
f 253/27/1 254/28/1 255/18/1 256/17/1
f 257/28/1 258/29/1 259/21/1 260/18/1
f 261/29/1 262/1/1 263/4/1 264/21/1
f 265/1/1 266/2/1 267/3/1 268/4/1
f 269/2/1 270/5/1 271/6/1 272/3/1
f 273/5/1 274/7/1 275/8/1 276/6/1
f 277/9/1 278/10/1 279/11/1 280/12/1
f 281/10/1 282/13/1 283/14/1 284/11/1
f 285/13/1 286/15/1 287/16/1 288/14/1
f 289/23/1 290/24/1 291/2/1 292/1/1
f 293/24/1 294/25/1 295/5/1 296/2/1
f 297/25/1 298/26/1 299/7/1 300/5/1
f 301/4/1 302/3/1 303/10/1 304/9/1
f 305/3/1 306/6/1 307/13/1 308/10/1
f 309/6/1 310/8/1 311/15/1 312/13/1
f 313/1/1 314/2/1 315/3/1 316/4/1
f 317/2/1 318/5/1 319/6/1 320/3/1
f 321/5/1 322/7/1 323/8/1 324/6/1
f 325/23/1 326/24/1 327/2/1 328/1/1
f 329/24/1 330/25/1 331/5/1 332/2/1
f 333/25/1 334/26/1 335/7/1 336/5/1
f 337/9/1 338/10/1 339/11/1 340/12/1
f 341/10/1 342/13/1 343/14/1 344/11/1
f 345/13/1 346/15/1 347/16/1 348/14/1
f 349/4/1 350/3/1 351/10/1 352/9/1
f 353/3/1 354/6/1 355/13/1 356/10/1
f 357/6/1 358/8/1 359/15/1 360/13/1
f 361/1/1 362/2/1 363/3/1 364/4/1
f 365/2/1 366/5/1 367/6/1 368/3/1
f 369/5/1 370/7/1 371/8/1 372/6/1
f 373/9/1 374/10/1 375/11/1 376/12/1
f 377/10/1 378/13/1 379/14/1 380/11/1
f 381/13/1 382/15/1 383/16/1 384/14/1
f 385/23/1 386/24/1 387/2/1 388/1/1
f 389/24/1 390/25/1 391/5/1 392/2/1
f 393/25/1 394/26/1 395/7/1 396/5/1
f 397/4/1 398/3/1 399/10/1 400/9/1
f 401/3/1 402/6/1 403/13/1 404/10/1
f 405/6/1 406/8/1 407/15/1 408/13/1
f 409/9/1 410/10/1 411/11/1 412/12/1
f 413/10/1 414/13/1 415/14/1 416/11/1
f 417/13/1 418/15/1 419/16/1 420/14/1
f 421/1/1 422/2/1 423/3/1 424/4/1
f 425/2/1 426/5/1 427/6/1 428/3/1
f 429/5/1 430/7/1 431/8/1 432/6/1
f 433/9/1 434/10/1 435/11/1 436/12/1
f 437/10/1 438/13/1 439/14/1 440/11/1
f 441/13/1 442/15/1 443/16/1 444/14/1
f 445/4/1 446/3/1 447/10/1 448/9/1
f 449/3/1 450/6/1 451/13/1 452/10/1
f 453/6/1 454/8/1 455/15/1 456/13/1
f 457/23/1 458/24/1 459/2/1 460/1/1
f 461/24/1 462/25/1 463/5/1 464/2/1
f 465/25/1 466/26/1 467/7/1 468/5/1
f 469/4/1 470/3/1 471/10/1 472/9/1
f 473/3/1 474/6/1 475/13/1 476/10/1
f 477/6/1 478/8/1 479/15/1 480/13/1
f 481/1/1 482/2/1 483/3/1 484/4/1
f 485/2/1 486/5/1 487/6/1 488/3/1
f 489/5/1 490/7/1 491/8/1 492/6/1
f 493/1/1 494/2/1 495/3/1 496/4/1
f 497/2/1 498/5/1 499/6/1 500/3/1
f 501/5/1 502/7/1 503/8/1 504/6/1
f 505/23/1 506/24/1 507/2/1 508/1/1
f 509/24/1 510/25/1 511/5/1 512/2/1
f 513/25/1 514/26/1 515/7/1 516/5/1
f 517/23/1 518/24/1 519/2/1 520/1/1
f 521/24/1 522/25/1 523/5/1 524/2/1
f 525/25/1 526/26/1 527/7/1 528/5/1

