# Tiled2Unity generated file. Do not modify by hand.
# Wavefront file for 'test_mesh_0004.obj'

# Vertices (Count = 40)
v -6.72 -3.52 0
v -7.04 -3.52 0
v -7.04 -3.2 0
v -6.72 -3.2 0
v -5.12 -4.16 0
v -5.44 -4.16 0
v -5.44 -3.84 0
v -5.12 -3.84 0
v -3.2 -5.12 0
v -3.52 -5.12 0
v -3.52 -4.8 0
v -3.2 -4.8 0
v -3.2 -5.44 0
v -3.52 -5.44 0
v -3.52 -5.12 0
v -3.2 -5.12 0
v -0.32 -6.4 0
v -0.64 -6.4 0
v -0.64 -6.08 0
v -0.32 -6.08 0
v -1.92 -6.4 0
v -2.24 -6.4 0
v -2.24 -6.08 0
v -1.92 -6.08 0
v -5.44 -6.72 0
v -5.76 -6.72 0
v -5.76 -6.4 0
v -5.44 -6.4 0
v -6.72 -7.04 0
v -7.04 -7.04 0
v -7.04 -6.72 0
v -6.72 -6.72 0
v -4.16 -7.68 0
v -4.48 -7.68 0
v -4.48 -7.36 0
v -4.16 -7.36 0
v -1.92 -8.96 0
v -2.24 -8.96 0
v -2.24 -8.639999 0
v -1.92 -8.639999 0

# Texture cooridinates (Count = 6)
vt 0.5 0
vt 1 0
vt 1 1
vt 0.5 1
vt 0 0
vt 0 1

# Normal
vn 0 0 -1

# Mesh description
g test_mesh_0004

# Faces
f 1/1/1 2/2/1 3/3/1 4/4/1
f 5/5/1 6/1/1 7/4/1 8/6/1
f 9/5/1 10/1/1 11/4/1 12/6/1
f 13/1/1 14/2/1 15/3/1 16/4/1
f 17/5/1 18/1/1 19/4/1 20/6/1
f 21/1/1 22/2/1 23/3/1 24/4/1
f 25/1/1 26/2/1 27/3/1 28/4/1
f 29/5/1 30/1/1 31/4/1 32/6/1
f 33/1/1 34/2/1 35/3/1 36/4/1
f 37/1/1 38/2/1 39/3/1 40/4/1

